<svg width="123" height="123" viewBox="0 0 123 123" fill="none" xmlns="http://www.w3.org/2000/svg">
<rect x="2.12598" y="2" width="118.874" height="118.874" stroke="#8B8B8B" stroke-width="4" stroke-linecap="round" stroke-linejoin="round"/>
<path fill-rule="evenodd" clip-rule="evenodd" d="M61.3221 15.0005C59.1823 15.0005 57.4477 16.7351 57.4477 18.8749L57.4477 71.3093H53.8309C48.4101 71.3093 44.0156 75.7038 44.0156 81.1246C44.0156 81.5776 44.0463 82.0235 44.1057 82.4602C44.0482 82.6065 44.0166 82.7659 44.0166 82.9326L44.0166 106.179C44.0166 106.893 44.5948 107.471 45.3081 107.471C46.0214 107.471 46.5996 106.893 46.5996 106.179L46.5996 87.7615C47.2057 88.4216 47.901 88.9984 48.6664 89.4729L48.6664 106.179C48.6664 106.893 49.2446 107.471 49.9579 107.471C50.6712 107.471 51.2494 106.893 51.2494 106.179L51.2494 90.5969C51.9126 90.7772 52.6037 90.8897 53.3149 90.9265L53.3149 106.179C53.3149 106.893 53.8931 107.471 54.6063 107.471C55.3196 107.471 55.8978 106.893 55.8978 106.179L55.8978 90.9399H57.9653L57.9653 106.179C57.9653 106.893 58.5435 107.471 59.2567 107.471C59.97 107.471 60.5482 106.893 60.5482 106.179V90.9399H62.6137V106.179C62.6137 106.893 63.1919 107.471 63.9052 107.471C64.6184 107.471 65.1967 106.893 65.1967 106.179V90.9399H67.2631V106.179C67.2631 106.893 67.8413 107.471 68.5546 107.471C69.2679 107.471 69.8461 106.893 69.8461 106.179V90.9265C70.5576 90.8895 71.249 90.7768 71.9125 90.5962V106.179C71.9125 106.893 72.4907 107.471 73.204 107.471C73.9173 107.471 74.4955 106.893 74.4955 106.179V89.4715C75.2608 88.9967 75.956 88.4197 76.5619 87.7594V106.179C76.5619 106.893 77.1401 107.471 77.8534 107.471C78.5667 107.471 79.1449 106.893 79.1449 106.179V82.9326C79.1449 82.7645 79.1128 82.6039 79.0543 82.4566C79.1134 82.021 79.144 81.5764 79.144 81.1246C79.144 75.7038 74.7495 71.3093 69.3287 71.3093H65.1966L65.1966 18.8749C65.1966 16.7351 63.4619 15.0005 61.3221 15.0005Z" fill="#8B8B8B"/>
</svg>
