<svg width="123" height="124" viewBox="0 0 123 124" fill="none" xmlns="http://www.w3.org/2000/svg">
<rect x="2.12598" y="2.15332" width="118.874" height="118.874" stroke="#8B8B8B" stroke-width="4" stroke-linecap="round" stroke-linejoin="round"/>
<rect width="8.29879" height="48.5995" rx="4.14939" transform="matrix(0.989175 -0.14674 -0.14674 -0.989175 68.1318 107.291)" fill="#8B8B8B"/>
<rect x="56.8584" y="107.514" width="8.29879" height="48.6862" rx="4.14939" transform="rotate(-173.932 56.8584 107.514)" fill="#8B8B8B"/>
<path fill-rule="evenodd" clip-rule="evenodd" d="M83.2157 12.3336C76.1063 12.6592 68.5114 17.91 65.989 24.2434L62.3996 33.2561C59.6321 40.2052 64.7106 45.3064 72.8193 43.7225C77.7217 42.7648 82.5355 39.5298 85.1735 35.4201L90.8324 26.6041C95.7122 19.0018 91.9399 11.934 83.2157 12.3336ZM81.5677 17.4037C77.3081 17.2939 72.4681 20.3684 70.7571 24.2706L67.3339 32.0779C65.6229 35.9802 67.6888 39.2326 71.9483 39.3424C76.2079 39.4522 81.0479 36.3777 82.7589 32.4754L86.1821 24.6682C87.8931 20.7659 85.8272 17.5134 81.5677 17.4037Z" fill="#8B8B8B"/>
<path fill-rule="evenodd" clip-rule="evenodd" d="M40.1612 12.0169C47.2707 12.3425 54.8655 17.5933 57.3879 23.9268L60.9773 32.9395C63.7448 39.8885 58.6663 44.9898 50.5577 43.4058C45.6552 42.4482 40.8414 39.2132 38.2035 35.1035L32.5446 26.2875C27.6647 18.6851 31.437 11.6173 40.1612 12.0169ZM41.8093 17.087C46.0688 16.9773 50.9089 20.0517 52.6199 23.954L56.0431 31.7613C57.7541 35.6636 55.6881 38.916 51.4286 39.0258C47.1691 39.1355 42.329 36.0611 40.618 32.1588L37.1948 24.3515C35.4838 20.4492 37.5498 17.1968 41.8093 17.087Z" fill="#8B8B8B"/>
<circle cx="61.4522" cy="51.0826" r="7.19228" transform="rotate(-180 61.4522 51.0826)" fill="#8B8B8B"/>
</svg>
