<svg width="124" height="124" viewBox="0 0 124 124" fill="none" xmlns="http://www.w3.org/2000/svg">
<rect x="2.30664" y="2.30664" width="119.693" height="119.693" rx="59.8467" stroke="#8B8B8B" stroke-width="4" stroke-linecap="round" stroke-linejoin="round"/>
<path fill-rule="evenodd" clip-rule="evenodd" d="M87.5393 41.0574H87.9014C92.3196 41.0574 95.9014 44.6391 95.9014 49.0574V75.1242C95.9014 79.4848 92.4127 83.0304 88.0742 83.1224V62.0781L84.5423 83.1242H80.2471V62.0781L76.7152 83.1242H72.3027V62.0781L68.7708 83.1242H64.3584V62.0781L60.8265 83.1242H56.4141V62.0781L52.8822 83.1242H48.4727V62.0781L44.9408 83.1242H40.5283L40.5283 62.0781L37.0073 83.0592C33.0731 82.5561 30.0322 79.1953 30.0322 75.1242V49.0574C30.0322 45.2263 32.7251 42.0243 36.3213 41.2407L36.3213 62.2293L39.8743 41.0574H44.2666V62.2293L47.8196 41.0574H52.2109V62.2293L55.7639 41.0574H60.1543V62.2293L63.7073 41.0574H68.0977V62.2293L71.6507 41.0574H76.041V62.2293L79.594 41.0574H83.9863V62.2293L87.5393 41.0574ZM36.3872 37.1692C36.925 37.0955 37.4742 37.0574 38.0322 37.0574H87.9014C94.5288 37.0574 99.9014 42.43 99.9014 49.0574V75.1242C99.9014 81.6939 94.6219 87.0306 88.0742 87.123V87.1382H83.8687L83.8711 87.1242H80.2471V87.1382H76.0416L76.0439 87.1242H72.3027V87.1382H68.0972L68.0996 87.1242H64.3584V87.1382H60.1529L60.1552 87.1242H56.4141V87.1382H52.2086L52.2109 87.1242H48.4727V87.1382H44.2671L44.2695 87.1242H40.5283V87.1382H36.3228L36.3449 87.0065C30.5164 86.1863 26.0322 81.179 26.0322 75.1242V49.0574C26.0322 43.0108 30.5043 38.0088 36.3213 37.1784V37.1692H36.3872Z" fill="#8B8B8B"/>
</svg>
