<svg width="150" height="150" viewBox="0 0 150 150" fill="none" xmlns="http://www.w3.org/2000/svg">
<rect x="2" y="2" width="146" height="146" fill="black" stroke="#8B8B8B" stroke-width="4" stroke-linecap="round" stroke-linejoin="round"/>
<rect x="48.832" y="23.9321" width="5.67256" height="42.5442" rx="2.83628" transform="rotate(-90 48.832 23.9321)" fill="#8B8B8B"/>
<rect x="78.8975" y="18.2593" width="21.5557" height="112.884" rx="10" fill="#8B8B8B"/>
<rect x="48.832" y="35.8442" width="5.67256" height="42.5442" rx="2.83628" transform="rotate(-90 48.832 35.8442)" fill="#8B8B8B"/>
<rect x="48.832" y="47.7568" width="5.67256" height="42.5442" rx="2.83628" transform="rotate(-90 48.832 47.7568)" fill="#8B8B8B"/>
<rect x="48.832" y="59.6694" width="5.67256" height="42.5442" rx="2.83628" transform="rotate(-90 48.832 59.6694)" fill="#8B8B8B"/>
<rect x="48.832" y="71.5811" width="5.67256" height="42.5442" rx="2.83628" transform="rotate(-90 48.832 71.5811)" fill="#8B8B8B"/>
<rect x="48.832" y="83.4937" width="5.67256" height="42.5442" rx="2.83628" transform="rotate(-90 48.832 83.4937)" fill="#8B8B8B"/>
<rect x="48.832" y="95.4062" width="5.67256" height="42.5442" rx="2.83628" transform="rotate(-90 48.832 95.4062)" fill="#8B8B8B"/>
<rect x="48.832" y="107.318" width="5.67256" height="42.5442" rx="2.83628" transform="rotate(-90 48.832 107.318)" fill="#8B8B8B"/>
<rect x="48.832" y="119.231" width="5.67256" height="42.5442" rx="2.83628" transform="rotate(-90 48.832 119.231)" fill="#8B8B8B"/>
<rect x="48.832" y="131.144" width="5.67256" height="42.5442" rx="2.83628" transform="rotate(-90 48.832 131.144)" fill="#8B8B8B"/>
</svg>
