<svg width="150" height="150" viewBox="0 0 150 150" fill="none" xmlns="http://www.w3.org/2000/svg">
<rect x="2" y="2" width="146" height="146" stroke="#8B8B8B" stroke-width="4" stroke-linecap="round" stroke-linejoin="round"/>
<path fill-rule="evenodd" clip-rule="evenodd" d="M123.772 64.5704C123.772 85.8722 106.503 103.141 85.2012 103.141C76.2247 103.141 67.9644 100.074 61.4107 94.9318L35.5137 120.829C33.7622 122.58 30.9225 122.58 29.171 120.829C27.4196 119.077 27.4196 116.238 29.171 114.486L55.0415 88.6157C49.7776 82.0219 46.6308 73.6636 46.6308 64.5704C46.6308 43.2685 63.8994 26 85.2012 26C106.503 26 123.772 43.2685 123.772 64.5704ZM114.802 64.1218C114.802 80.7174 101.349 94.1708 84.7531 94.1708C68.1575 94.1708 54.7041 80.7174 54.7041 64.1218C54.7041 47.5262 68.1575 34.0728 84.7531 34.0728C101.349 34.0728 114.802 47.5262 114.802 64.1218Z" fill="#8B8B8B"/>
</svg>
