<svg width="123" height="123" viewBox="0 0 123 123" fill="none" xmlns="http://www.w3.org/2000/svg">
<rect x="2.12598" y="2.07666" width="118.874" height="118.874" stroke="#8B8B8B" stroke-width="4" stroke-linecap="round" stroke-linejoin="round"/>
<path fill-rule="evenodd" clip-rule="evenodd" d="M42.4503 19.6807C41.1672 19.6807 40.127 18.6405 40.127 17.3573C40.127 16.0741 41.1672 15.0339 42.4503 15.0339L72.6542 15.0339C72.7609 15.0339 72.866 15.0411 72.969 15.0551C73.1724 15.0411 73.3777 15.0339 73.5847 15.0339C78.4607 15.0339 82.4135 18.9867 82.4135 23.8628L82.4135 98.6753C82.4135 103.551 78.4607 107.504 73.5847 107.504C73.3781 107.504 73.1733 107.497 72.9703 107.483C72.8669 107.497 72.7614 107.504 72.6542 107.504H42.4503C41.1672 107.504 40.127 106.464 40.127 105.181C40.127 103.898 41.1672 102.858 42.4503 102.858H65.8074C65.1365 101.613 64.7559 100.189 64.7559 98.6753V97.7464H42.4503C41.1672 97.7464 40.127 96.7061 40.127 95.423C40.127 94.1398 41.1672 93.0996 42.4503 93.0996H64.7559V87.988H42.4503C41.1672 87.988 40.127 86.9478 40.127 85.6647C40.127 84.3815 41.1672 83.3413 42.4503 83.3413H64.7559V78.2297H42.4503C41.1672 78.2297 40.127 77.1895 40.127 75.9064C40.127 74.6232 41.1672 73.583 42.4503 73.583H64.7559V68.4714H42.4503C41.1672 68.4714 40.127 67.4312 40.127 66.1481C40.127 64.8649 41.1672 63.8247 42.4503 63.8247H64.7559V58.7134H42.4503C41.1672 58.7134 40.127 57.6732 40.127 56.39C40.127 55.1069 41.1672 54.0667 42.4503 54.0667H64.7559V48.9553H42.4503C41.1672 48.9553 40.127 47.9151 40.127 46.632C40.127 45.3488 41.1672 44.3086 42.4503 44.3086L64.7559 44.3086V39.1973H42.4503C41.1672 39.1973 40.127 38.1571 40.127 36.8739C40.127 35.5907 41.1672 34.5505 42.4503 34.5505L64.7559 34.5505V29.439L42.4503 29.439C41.1672 29.439 40.127 28.3988 40.127 27.1156C40.127 25.8324 41.1672 24.7922 42.4503 24.7922H64.7559V23.8628C64.7559 22.3496 65.1365 20.9254 65.8072 19.6807L42.4503 19.6807Z" fill="#8B8B8B"/>
</svg>
