<svg width="150" height="150" viewBox="0 0 150 150" fill="none" xmlns="http://www.w3.org/2000/svg">
<rect x="2" y="2" width="146" height="146" rx="73" fill="black" stroke="#8B8B8B" stroke-width="4" stroke-linecap="round" stroke-linejoin="round"/>
<path d="M39 49L44.8377 49L39 77.5862L39 49Z" fill="#8B8B8B"/>
<path d="M99.9717 106L94.134 106L99.9717 77.4138L99.9717 106Z" fill="#8B8B8B"/>
<path d="M110.838 106L105 106L110.838 77.4138L110.838 106Z" fill="#8B8B8B"/>
<path d="M50.0273 49L55.8651 49L50.0273 77.5862L50.0273 49Z" fill="#8B8B8B"/>
<path d="M88.9443 106L83.1066 106L88.9443 77.4138L88.9443 106Z" fill="#8B8B8B"/>
<path d="M61.0547 49L66.8924 49L61.0547 77.5862L61.0547 49Z" fill="#8B8B8B"/>
<path d="M77.918 106L72.0803 106L77.918 77.4138L77.918 106Z" fill="#8B8B8B"/>
<path d="M72.082 49L77.9197 49L72.082 77.5862L72.082 49Z" fill="#8B8B8B"/>
<path d="M66.8916 106L61.0539 106L66.8916 77.4138L66.8916 106Z" fill="#8B8B8B"/>
<path d="M83.1084 49L88.9461 49L83.1084 77.5862L83.1084 49Z" fill="#8B8B8B"/>
<path d="M55.8643 106L50.0265 106L55.8643 77.4138L55.8643 106Z" fill="#8B8B8B"/>
<path d="M94.1357 49L99.9735 49L94.1357 77.5862L94.1357 49Z" fill="#8B8B8B"/>
<path d="M44.8379 106L39.0002 106L44.8379 77.4138L44.8379 106Z" fill="#8B8B8B"/>
<path d="M105.162 49L111 49L105.162 77.5862L105.162 49Z" fill="#8B8B8B"/>
<rect x="32" y="49" width="86" height="57" rx="10" stroke="#8B8B8B" stroke-width="4"/>
</svg>
