<svg width="97" height="97" viewBox="0 0 97 97" fill="none" xmlns="http://www.w3.org/2000/svg">
<path fill-rule="evenodd" clip-rule="evenodd" d="M96.7716 38.5704C96.7716 59.8722 79.5031 77.1407 58.2012 77.1407C49.2247 77.1407 40.9644 74.0743 34.4107 68.9318L8.51367 94.8288C6.76219 96.5803 3.9225 96.5803 2.17103 94.8288C0.419554 93.0774 0.419553 90.2377 2.17103 88.4862L28.0415 62.6157C22.7776 56.0219 19.6308 47.6636 19.6308 38.5704C19.6308 17.2685 36.8994 0 58.2012 0C79.5031 0 96.7716 17.2685 96.7716 38.5704ZM87.8021 38.1218C87.8021 54.7174 74.3487 68.1708 57.7531 68.1708C41.1575 68.1708 27.7041 54.7174 27.7041 38.1218C27.7041 21.5262 41.1575 8.07275 57.7531 8.07275C74.3487 8.07275 87.8021 21.5262 87.8021 38.1218Z" fill="#8B8B8B"/>
</svg>
