<svg width="311" height="94" viewBox="0 0 311 94" fill="none" xmlns="http://www.w3.org/2000/svg">
<path d="M121.251 29.0741C120.039 22.6804 121.584 15.6229 125.075 10.1728C128.562 4.72835 133.91 1 140.262 1H293.06C301.896 1 309.06 8.16345 309.06 17V77C309.06 85.8375 301.908 93 293.072 93H292.628H292.178H291.723H291.264H290.799H290.33H289.855H289.376H288.892H288.403H287.909H287.411H286.908H286.4H285.887H285.37H284.848H284.322H283.791H283.255H282.715H282.17H281.621H281.068H280.51H279.948H279.381H278.81H278.235H277.656H277.072H276.484H275.892H275.296H274.695H274.091H273.482H272.87H272.253H271.633H271.008H270.38H269.747H269.111H268.471H267.827H267.179H266.528H265.872H265.213H264.551H263.885H263.215H262.541H261.864H261.183H260.499H259.811H259.12H258.426H257.728H257.026H256.322H255.614H254.902H254.188H253.47H252.749H252.025H251.297H250.567H249.833H249.096H248.357H247.614H246.868H246.119H245.367H244.613H243.855H243.095H242.332H241.566H240.797H240.025H239.251H238.474H237.695H236.913H236.128H235.34H234.55H233.758H232.963H232.165H231.365H230.563H229.758H228.951H228.142H227.33H226.516H225.7H224.881H224.061H223.238H222.413H221.586H220.757H219.925H219.092H218.257H217.42H216.581H215.739H214.896H214.052H213.205H212.356H211.506H210.654H209.8H208.945H208.088H207.229H206.369H205.507H204.643H203.778H202.911H202.043H201.174H200.303H199.431H198.557H197.682H196.805H195.928H195.049H194.169H193.288H192.405H191.521H190.637H189.751H188.864H187.976H187.087H186.197H185.306H184.414H183.522H182.628H181.733H180.838H179.942H179.045H178.148H177.25H176.351H175.451H174.551H173.65H172.749H171.847H170.944H170.042H169.138H168.234H167.33H166.426H165.521H164.616H163.71H162.804H161.898H160.992H160.086H159.179H158.272H157.366H156.459H155.552H154.645H153.738H152.831H151.924H151.018H150.111H149.205H148.298H147.392H146.486H145.581H144.676H143.771H142.866H141.962H141.058H140.155H139.252H138.349H137.447H136.546H135.645H134.745H133.845H132.946H132.047H131.15H130.253H129.357H128.461H127.567H126.673H125.78H124.888H123.997H123.107H122.218H121.33H120.443H119.557H118.672H117.788H116.905H116.024H115.144H114.264H113.387H112.51H111.635H110.761H109.888H109.017H108.148H107.279H106.412H105.547H104.683H103.821H102.961H102.102H101.244H100.388H99.5344H98.6821H97.8316H96.9828H96.1358H95.2907H94.4474H93.606H92.7666H91.929H91.0935H90.2599H89.4284H88.5989H87.7715H86.9462H86.123H85.302H84.4832H83.6667H82.8523H82.0403H81.2305H80.4231H79.618H78.8153H78.015H77.2172H76.4218H75.6289H74.8386H74.0508H73.2655H72.4829H71.7029H70.9256H70.1509H69.379H68.6098H67.8434H67.0798H66.319H65.5611H64.806H64.0539H63.3047H62.5584H61.8151H61.0749H60.3377H59.6036H58.8726H58.1447H57.42H56.6984H55.9801H55.265H54.7635C81.3219 89.5971 98.1417 82.1253 108.376 72.7126C122.569 59.6589 123.903 43.0666 121.251 29.0741Z" fill="black" stroke="white" stroke-width="2" stroke-linecap="round" stroke-linejoin="round"/>
<path d="M143.447 37.6416V24.7896H153.095V37.6416H151.493V26.2116H145.067V37.6416H143.447ZM164.785 32.7996C164.785 34.3956 164.377 35.6316 163.561 36.5076C162.757 37.3836 161.665 37.8216 160.285 37.8216C159.433 37.8216 158.671 37.6296 157.999 37.2456C157.339 36.8496 156.817 36.2796 156.433 35.5356C156.049 34.7796 155.857 33.8676 155.857 32.7996C155.857 31.2036 156.259 29.9736 157.063 29.1096C157.867 28.2456 158.959 27.8136 160.339 27.8136C161.215 27.8136 161.983 28.0116 162.643 28.4076C163.315 28.7916 163.837 29.3556 164.209 30.0996C164.593 30.8316 164.785 31.7316 164.785 32.7996ZM157.495 32.7996C157.495 33.9396 157.717 34.8456 158.161 35.5176C158.617 36.1776 159.337 36.5076 160.321 36.5076C161.293 36.5076 162.007 36.1776 162.463 35.5176C162.919 34.8456 163.147 33.9396 163.147 32.7996C163.147 31.6596 162.919 30.7656 162.463 30.1176C162.007 29.4696 161.287 29.1456 160.303 29.1456C159.319 29.1456 158.605 29.4696 158.161 30.1176C157.717 30.7656 157.495 31.6596 157.495 32.7996ZM169.834 27.8136C170.938 27.8136 171.814 28.0356 172.462 28.4796C173.122 28.9116 173.452 29.5356 173.452 30.3516C173.452 30.9396 173.29 31.4076 172.966 31.7556C172.642 32.0916 172.198 32.3376 171.634 32.4936V32.5656C172.018 32.6736 172.372 32.8236 172.696 33.0156C173.02 33.2076 173.278 33.4596 173.47 33.7716C173.674 34.0836 173.776 34.4856 173.776 34.9776C173.776 35.7816 173.44 36.4596 172.768 37.0116C172.108 37.5516 171.07 37.8216 169.654 37.8216C168.958 37.8216 168.328 37.7616 167.764 37.6416C167.2 37.5336 166.732 37.3836 166.36 37.1916V35.7696C166.768 35.9616 167.248 36.1356 167.8 36.2916C168.364 36.4476 168.976 36.5256 169.636 36.5256C170.356 36.5256 170.962 36.4056 171.454 36.1656C171.958 35.9136 172.21 35.4876 172.21 34.8876C172.21 33.8076 171.292 33.2676 169.456 33.2676H168.16V31.9716H169.204C170.032 31.9716 170.692 31.8636 171.184 31.6476C171.688 31.4196 171.94 31.0356 171.94 30.4956C171.94 30.0396 171.748 29.6976 171.364 29.4696C170.992 29.2416 170.452 29.1276 169.744 29.1276C169.216 29.1276 168.748 29.1816 168.34 29.2896C167.944 29.3856 167.506 29.5356 167.026 29.7396L166.468 28.4796C167.476 28.0356 168.598 27.8136 169.834 27.8136ZM183.284 27.9936V36.3096H184.688V40.9896H183.158V37.6416H176.444V40.9896H174.932V36.3096H175.706C176.534 35.1696 177.152 33.8736 177.56 32.4216C177.98 30.9576 178.196 29.4816 178.208 27.9936H183.284ZM179.612 29.2356C179.564 30.0516 179.438 30.8976 179.234 31.7736C179.03 32.6376 178.766 33.4656 178.442 34.2576C178.13 35.0496 177.764 35.7336 177.344 36.3096H181.754V29.2356H179.612ZM191.169 27.8136C192.357 27.8136 193.311 28.2276 194.031 29.0556C194.763 29.8836 195.129 31.1316 195.129 32.7996C195.129 34.4436 194.763 35.6916 194.031 36.5436C193.311 37.3956 192.351 37.8216 191.151 37.8216C190.407 37.8216 189.789 37.6836 189.297 37.4076C188.817 37.1196 188.439 36.7896 188.163 36.4176H188.055C188.079 36.6216 188.103 36.8796 188.127 37.1916C188.151 37.5036 188.163 37.7736 188.163 38.0016V41.9616H186.579V27.9936H187.875L188.091 29.3076H188.163C188.451 28.8876 188.829 28.5336 189.297 28.2456C189.765 27.9576 190.389 27.8136 191.169 27.8136ZM190.881 29.1456C189.897 29.1456 189.201 29.4216 188.793 29.9736C188.397 30.5256 188.187 31.3656 188.163 32.4936V32.7996C188.163 33.9876 188.355 34.9056 188.739 35.5536C189.135 36.1896 189.861 36.5076 190.917 36.5076C191.505 36.5076 191.985 36.3456 192.357 36.0216C192.741 35.6976 193.023 35.2596 193.203 34.7076C193.395 34.1436 193.491 33.5016 193.491 32.7816C193.491 31.6776 193.275 30.7956 192.843 30.1356C192.423 29.4756 191.769 29.1456 190.881 29.1456ZM201.307 27.8316C202.483 27.8316 203.353 28.0896 203.917 28.6056C204.481 29.1216 204.763 29.9436 204.763 31.0716V37.6416H203.611L203.305 36.2736H203.233C202.813 36.8016 202.369 37.1916 201.901 37.4436C201.445 37.6956 200.809 37.8216 199.993 37.8216C199.117 37.8216 198.391 37.5936 197.815 37.1376C197.239 36.6696 196.951 35.9436 196.951 34.9596C196.951 33.9996 197.329 33.2616 198.085 32.7456C198.841 32.2176 200.005 31.9296 201.577 31.8816L203.215 31.8276V31.2516C203.215 30.4476 203.041 29.8896 202.693 29.5776C202.345 29.2656 201.853 29.1096 201.217 29.1096C200.713 29.1096 200.233 29.1876 199.777 29.3436C199.321 29.4876 198.895 29.6556 198.499 29.8476L198.013 28.6596C198.433 28.4316 198.931 28.2396 199.507 28.0836C200.083 27.9156 200.683 27.8316 201.307 27.8316ZM201.775 32.9796C200.575 33.0276 199.741 33.2196 199.273 33.5556C198.817 33.8916 198.589 34.3656 198.589 34.9776C198.589 35.5176 198.751 35.9136 199.075 36.1656C199.411 36.4176 199.837 36.5436 200.353 36.5436C201.169 36.5436 201.847 36.3216 202.387 35.8776C202.927 35.4216 203.197 34.7256 203.197 33.7896V32.9256L201.775 32.9796ZM215.501 30.4236C215.501 31.0236 215.321 31.4916 214.961 31.8276C214.601 32.1636 214.139 32.3916 213.575 32.5116V32.5836C214.175 32.6676 214.697 32.8836 215.141 33.2316C215.585 33.5676 215.807 34.0956 215.807 34.8156C215.807 35.6316 215.501 36.3096 214.889 36.8496C214.289 37.3776 213.293 37.6416 211.901 37.6416H207.743V27.9936H211.883C212.567 27.9936 213.179 28.0716 213.719 28.2276C214.271 28.3716 214.703 28.6236 215.015 28.9836C215.339 29.3316 215.501 29.8116 215.501 30.4236ZM213.899 30.6216C213.899 30.1656 213.731 29.8356 213.395 29.6316C213.071 29.4156 212.537 29.3076 211.793 29.3076H209.327V31.9536H211.505C213.101 31.9536 213.899 31.5096 213.899 30.6216ZM214.169 34.8156C214.169 34.2636 213.959 33.8676 213.539 33.6276C213.119 33.3876 212.501 33.2676 211.685 33.2676H209.327V36.3636H211.721C212.513 36.3636 213.119 36.2496 213.539 36.0216C213.959 35.7816 214.169 35.3796 214.169 34.8156ZM225.458 37.6416H223.856V29.3076H221.012C220.856 31.3356 220.64 32.9736 220.364 34.2216C220.088 35.4576 219.722 36.3576 219.266 36.9216C218.81 37.4856 218.234 37.7676 217.538 37.7676C217.382 37.7676 217.226 37.7556 217.07 37.7316C216.926 37.7196 216.806 37.6896 216.71 37.6416V36.4536C216.782 36.4776 216.86 36.4956 216.944 36.5076C217.028 36.5196 217.112 36.5256 217.196 36.5256C217.844 36.5256 218.36 35.8356 218.744 34.4556C219.14 33.0756 219.44 30.9216 219.644 27.9936H225.458V37.6416ZM229.114 37.6416H227.278L230.032 33.5916C229.66 33.4956 229.3 33.3456 228.952 33.1416C228.604 32.9256 228.322 32.6316 228.106 32.2596C227.89 31.8756 227.782 31.4016 227.782 30.8376C227.782 29.9136 228.094 29.2116 228.718 28.7316C229.342 28.2396 230.17 27.9936 231.202 27.9936H235.522V37.6416H233.938V33.8076H231.598L229.114 37.6416ZM229.312 30.8556C229.312 31.4076 229.516 31.8216 229.924 32.0976C230.344 32.3616 230.926 32.4936 231.67 32.4936H233.938V29.3076H231.364C230.632 29.3076 230.104 29.4516 229.78 29.7396C229.468 30.0276 229.312 30.3996 229.312 30.8556ZM251.103 32.7996C251.103 34.3956 250.719 35.6316 249.951 36.5076C249.183 37.3836 248.145 37.8216 246.837 37.8216C245.613 37.8216 244.623 37.4376 243.867 36.6696C243.123 35.9016 242.703 34.7916 242.607 33.3396H240.159V37.6416H238.575V27.9936H240.159V32.0076H242.625C242.757 30.6516 243.195 29.6136 243.939 28.8936C244.683 28.1736 245.661 27.8136 246.873 27.8136C247.701 27.8136 248.433 28.0116 249.069 28.4076C249.705 28.7916 250.203 29.3556 250.563 30.0996C250.923 30.8316 251.103 31.7316 251.103 32.7996ZM244.227 32.7996C244.227 34.0116 244.437 34.9356 244.857 35.5716C245.277 36.1956 245.943 36.5076 246.855 36.5076C247.779 36.5076 248.445 36.1956 248.853 35.5716C249.261 34.9356 249.465 34.0116 249.465 32.7996C249.465 31.5876 249.255 30.6756 248.835 30.0636C248.427 29.4516 247.767 29.1456 246.855 29.1456C245.943 29.1456 245.277 29.4516 244.857 30.0636C244.437 30.6756 244.227 31.5876 244.227 32.7996ZM253.454 40.4365C253.108 40.4365 252.936 40.2871 252.936 39.9883C252.936 39.7773 253.076 39.5752 253.357 39.3818C253.932 38.9834 254.219 38.6172 254.219 38.2832C254.219 38.084 254.125 37.8848 253.938 37.6855C253.551 37.2754 253.357 36.9033 253.357 36.5693C253.357 36.2295 253.46 35.96 253.665 35.7607C253.876 35.5615 254.157 35.4619 254.509 35.4619C254.866 35.4619 255.159 35.6113 255.388 35.9102C255.622 36.209 255.739 36.5459 255.739 36.9209C255.739 37.6006 255.561 38.2832 255.203 38.9688C254.852 39.6602 254.4 40.1201 253.85 40.3486C253.697 40.4072 253.565 40.4365 253.454 40.4365ZM149.891 52.3256H146.741V60.6416H145.175V52.3256H142.061V50.9936H149.891V52.3256ZM151.792 60.6416V50.9936H153.376V54.9536H155.878C157.126 54.9536 158.05 55.1816 158.65 55.6376C159.25 56.0936 159.55 56.7776 159.55 57.6896C159.55 58.5896 159.256 59.3096 158.668 59.8496C158.08 60.3776 157.126 60.6416 155.806 60.6416H151.792ZM161.152 60.6416V50.9936H162.736V60.6416H161.152ZM155.662 59.3636C156.346 59.3636 156.904 59.2496 157.336 59.0216C157.768 58.7816 157.984 58.3676 157.984 57.7796C157.984 57.1916 157.786 56.7956 157.39 56.5916C156.994 56.3756 156.424 56.2676 155.68 56.2676H153.376V59.3636H155.662ZM177.536 50.9936V59.3096H178.94V63.9896H177.41V60.6416H170.696V63.9896H169.184V59.3096H169.958C170.786 58.1696 171.404 56.8736 171.812 55.4216C172.232 53.9576 172.448 52.4816 172.46 50.9936H177.536ZM173.864 52.2356C173.816 53.0516 173.69 53.8976 173.486 54.7736C173.282 55.6376 173.018 56.4656 172.694 57.2576C172.382 58.0496 172.016 58.7336 171.596 59.3096H176.006V52.2356H173.864ZM189.219 55.7996C189.219 57.3956 188.811 58.6316 187.995 59.5076C187.191 60.3836 186.099 60.8216 184.719 60.8216C183.867 60.8216 183.105 60.6296 182.433 60.2456C181.773 59.8496 181.251 59.2796 180.867 58.5356C180.483 57.7796 180.291 56.8676 180.291 55.7996C180.291 54.2036 180.693 52.9736 181.497 52.1096C182.301 51.2456 183.393 50.8136 184.773 50.8136C185.649 50.8136 186.417 51.0116 187.077 51.4076C187.749 51.7916 188.271 52.3556 188.643 53.0996C189.027 53.8316 189.219 54.7316 189.219 55.7996ZM181.929 55.7996C181.929 56.9396 182.151 57.8456 182.595 58.5176C183.051 59.1776 183.771 59.5076 184.755 59.5076C185.727 59.5076 186.441 59.1776 186.897 58.5176C187.353 57.8456 187.581 56.9396 187.581 55.7996C187.581 54.6596 187.353 53.7656 186.897 53.1176C186.441 52.4696 185.721 52.1456 184.737 52.1456C183.753 52.1456 183.039 52.4696 182.595 53.1176C182.151 53.7656 181.929 54.6596 181.929 55.7996ZM195.599 60.8216C194.747 60.8216 193.985 60.6476 193.313 60.2996C192.653 59.9516 192.131 59.4116 191.747 58.6796C191.375 57.9476 191.189 57.0116 191.189 55.8716C191.189 54.6836 191.387 53.7176 191.783 52.9736C192.179 52.2296 192.713 51.6836 193.385 51.3356C194.069 50.9876 194.843 50.8136 195.707 50.8136C196.199 50.8136 196.673 50.8676 197.129 50.9756C197.585 51.0716 197.957 51.1916 198.245 51.3356L197.759 52.6496C197.471 52.5416 197.135 52.4396 196.751 52.3436C196.367 52.2476 196.007 52.1996 195.671 52.1996C193.775 52.1996 192.827 53.4176 192.827 55.8536C192.827 57.0176 193.055 57.9116 193.511 58.5356C193.979 59.1476 194.669 59.4536 195.581 59.4536C196.109 59.4536 196.571 59.3996 196.967 59.2916C197.375 59.1836 197.747 59.0516 198.083 58.8956V60.2996C197.759 60.4676 197.399 60.5936 197.003 60.6776C196.619 60.7736 196.151 60.8216 195.599 60.8216ZM207.038 52.3256H203.888V60.6416H202.322V52.3256H199.208V50.9936H207.038V52.3256ZM210.432 56.8796C210.432 57.0236 210.426 57.2396 210.414 57.5276C210.402 57.8156 210.384 58.1036 210.36 58.3916C210.348 58.6796 210.336 58.9076 210.324 59.0756L215.49 50.9936H217.434V60.6416H215.958V54.9536C215.958 54.7616 215.958 54.5096 215.958 54.1976C215.97 53.8856 215.982 53.5796 215.994 53.2796C216.006 52.9676 216.018 52.7336 216.03 52.5776L210.9 60.6416H208.938V50.9936H210.432V56.8796ZM226.391 50.9936V52.3256H222.089V60.6416H220.505V50.9936H226.391ZM242.979 50.9936V59.3096H244.383V63.9896H242.853V60.6416H236.139V63.9896H234.627V59.3096H235.401C236.229 58.1696 236.847 56.8736 237.255 55.4216C237.675 53.9576 237.891 52.4816 237.903 50.9936H242.979ZM239.307 52.2356C239.259 53.0516 239.133 53.8976 238.929 54.7736C238.725 55.6376 238.461 56.4656 238.137 57.2576C237.825 58.0496 237.459 58.7336 237.039 59.3096H241.449V52.2356H239.307ZM247.858 50.9936V55.0076H253.096V50.9936H254.68V60.6416H253.096V56.3396H247.858V60.6416H246.274V50.9936H247.858ZM261.389 50.8316C262.565 50.8316 263.435 51.0896 263.999 51.6056C264.563 52.1216 264.845 52.9436 264.845 54.0716V60.6416H263.693L263.387 59.2736H263.315C262.895 59.8016 262.451 60.1916 261.983 60.4436C261.527 60.6956 260.891 60.8216 260.075 60.8216C259.199 60.8216 258.473 60.5936 257.897 60.1376C257.321 59.6696 257.033 58.9436 257.033 57.9596C257.033 56.9996 257.411 56.2616 258.167 55.7456C258.923 55.2176 260.087 54.9296 261.659 54.8816L263.297 54.8276V54.2516C263.297 53.4476 263.123 52.8896 262.775 52.5776C262.427 52.2656 261.935 52.1096 261.299 52.1096C260.795 52.1096 260.315 52.1876 259.859 52.3436C259.403 52.4876 258.977 52.6556 258.581 52.8476L258.095 51.6596C258.515 51.4316 259.013 51.2396 259.589 51.0836C260.165 50.9156 260.765 50.8316 261.389 50.8316ZM261.857 55.9796C260.657 56.0276 259.823 56.2196 259.355 56.5556C258.899 56.8916 258.671 57.3656 258.671 57.9776C258.671 58.5176 258.833 58.9136 259.157 59.1656C259.493 59.4176 259.919 59.5436 260.435 59.5436C261.251 59.5436 261.929 59.3216 262.469 58.8776C263.009 58.4216 263.279 57.7256 263.279 56.7896V55.9256L261.857 55.9796ZM276.209 55.1484C275.828 55.1484 275.521 55.0342 275.286 54.8057C275.058 54.5713 274.943 54.2666 274.943 53.8916C274.943 53.5166 275.052 53.2119 275.269 52.9775C275.491 52.7432 275.802 52.626 276.2 52.626C276.604 52.626 276.921 52.7402 277.149 52.9688C277.378 53.1973 277.492 53.4961 277.492 53.8652C277.492 54.2344 277.375 54.542 277.141 54.7881C276.906 55.0283 276.596 55.1484 276.209 55.1484ZM275.172 63.4365C274.826 63.4365 274.653 63.2871 274.653 62.9883C274.653 62.7773 274.794 62.5752 275.075 62.3818C275.649 61.9834 275.937 61.6172 275.937 61.2832C275.937 61.084 275.843 60.8848 275.655 60.6855C275.269 60.2754 275.075 59.9033 275.075 59.5693C275.075 59.2295 275.178 58.96 275.383 58.7607C275.594 58.5615 275.875 58.4619 276.227 58.4619C276.584 58.4619 276.877 58.6113 277.105 58.9102C277.34 59.209 277.457 59.5459 277.457 59.9209C277.457 60.6006 277.278 61.2832 276.921 61.9688C276.569 62.6602 276.118 63.1201 275.567 63.3486C275.415 63.4072 275.283 63.4365 275.172 63.4365ZM279.654 62.6104C280.287 62.6104 280.979 62.2588 281.729 61.5557C283.592 59.8389 284.523 57.5566 284.523 54.709C284.523 51.8555 283.592 49.5703 281.729 47.8535C280.979 47.1504 280.287 46.7988 279.654 46.7988C279.432 46.7988 279.253 46.8604 279.118 46.9834C278.983 47.1064 278.916 47.2617 278.916 47.4492C278.916 47.6367 278.96 47.7949 279.048 47.9238C279.142 48.0527 279.382 48.2109 279.769 48.3984C280.155 48.5859 280.557 48.876 280.973 49.2686C282.268 50.5049 282.915 52.3154 282.915 54.7002C282.915 56.2588 282.619 57.5889 282.027 58.6904C281.436 59.792 280.621 60.5977 279.584 61.1074C279.139 61.3242 278.916 61.6084 278.916 61.96C278.916 62.1416 278.983 62.2939 279.118 62.417C279.253 62.5459 279.432 62.6104 279.654 62.6104Z" fill="white"/>
</svg>
