<svg width="248" height="97" viewBox="0 0 248 97" fill="none" xmlns="http://www.w3.org/2000/svg">
<path d="M96.9646 26.0975C95.8585 20.2701 97.3588 14.0813 100.639 9.35755C103.912 4.64379 108.869 1.5 114.643 1.5H230.839C239.4 1.5 246.339 8.43959 246.339 17V80C246.339 88.579 239.541 95.5 230.999 95.5H230.616H230.229H229.838H229.444H229.046H228.644H228.239H227.83H227.418H227.002H226.583H226.16H225.734H225.304H224.871H224.434H223.994H223.551H223.104H222.654H222.201H221.744H221.284H220.821H220.355H219.885H219.412H218.936H218.457H217.975H217.49H217.002H216.51H216.016H215.518H215.018H214.515H214.008H213.499H212.987H212.472H211.954H211.433H210.91H210.383H209.854H209.322H208.787H208.25H207.71H207.167H206.622H206.074H205.523H204.97H204.414H203.856H203.295H202.731H202.166H201.597H201.026H200.453H199.878H199.299H198.719H198.136H197.551H196.964H196.374H195.783H195.188H194.592H193.994H193.393H192.79H192.185H191.578H190.969H190.357H189.744H189.129H188.512H187.892H187.271H186.648H186.023H185.395H184.767H184.136H183.503H182.869H182.232H181.594H180.955H180.313H179.67H179.025H178.378H177.73H177.08H176.429H175.776H175.121H174.465H173.807H173.148H172.487H171.825H171.162H170.497H169.83H169.162H168.493H167.823H167.151H166.478H165.803H165.128H164.451H163.773H163.094H162.413H161.732H161.049H160.365H159.68H158.994H158.307H157.619H156.93H156.24H155.549H154.857H154.165H153.471H152.776H152.081H151.385H150.688H149.99H149.291H148.592H147.891H147.191H146.489H145.787H145.084H144.381H143.677H142.972H142.267H141.561H140.855H140.148H139.441H138.733H138.025H137.316H136.607H135.898H135.188H134.478H133.768H133.057H132.346H131.635H130.924H130.212H129.501H128.789H128.077H127.365H126.652H125.94H125.227H124.515H123.803H123.09H122.378H121.665H120.953H120.241H119.529H118.817H118.105H117.393H116.681H115.97H115.259H114.548H113.838H113.128H112.418H111.708H110.999H110.29H109.582H108.874H108.166H107.459H106.752H106.046H105.341H104.636H103.931H103.227H102.524H101.821H101.119H100.418H99.7176H99.0177H98.3185H97.6201H96.9225H96.2257H95.5297H94.8345H94.1402H93.4468H92.7543H92.0627H91.372H90.6824H89.9937H89.306H88.6193H87.9337H87.2492H86.5658H85.8834H85.2022H84.5222H83.8433H83.1657H82.4892H81.814H81.1401H80.4674H79.796H79.126H78.4573H77.7899H77.124H76.4594H75.7963H75.1346H74.4744H73.8157H73.1585H72.5028H71.8487H71.1962H70.5452H69.8959H69.2482H68.6022H67.9578H67.3151H66.6742H66.035H65.3975H64.7619H64.128H63.496H62.8658H62.2375H61.6111H60.9865H60.364H59.7433H59.1246H58.508H57.8933H57.2807H56.6701H56.0616H55.4552H54.8509H54.2488H53.6488H53.051H52.4554H51.862H51.2709H50.682H50.0954H49.5111H48.9292H48.874C68.6935 91.3731 81.2086 83.3128 88.7315 73.3647C99.7454 58.8002 99.7217 40.6234 96.9646 26.0975Z" fill="black" stroke="white" stroke-width="3"/>
<path d="M128.476 28.5923H126.64L123.238 23.0123L119.782 28.5923H118.072L122.338 21.8963L118.342 15.7403H120.142L123.292 20.7803L126.46 15.7403H128.17L124.192 21.8603L128.476 28.5923ZM131.625 28.7723C131.073 28.7723 130.593 28.7243 130.185 28.6283C129.789 28.5443 129.417 28.4183 129.069 28.2503V26.8823C129.429 27.0263 129.819 27.1523 130.239 27.2603C130.659 27.3683 131.133 27.4223 131.661 27.4223C132.597 27.4223 133.341 27.1703 133.893 26.6663C134.445 26.1623 134.751 25.3643 134.811 24.2723H130.059V22.9763H134.793C134.709 21.9923 134.427 21.2723 133.947 20.8163C133.479 20.3603 132.789 20.1323 131.877 20.1323C131.529 20.1323 131.145 20.1803 130.725 20.2763C130.317 20.3723 129.951 20.4803 129.627 20.6003L129.177 19.3223C129.525 19.1663 129.939 19.0343 130.419 18.9263C130.899 18.8183 131.379 18.7643 131.859 18.7643C132.759 18.7643 133.551 18.9323 134.235 19.2683C134.931 19.6043 135.471 20.1383 135.855 20.8703C136.251 21.6023 136.449 22.5683 136.449 23.7683C136.449 24.9083 136.239 25.8503 135.819 26.5943C135.411 27.3383 134.841 27.8903 134.109 28.2503C133.389 28.5983 132.561 28.7723 131.625 28.7723ZM140.519 28.7723C139.967 28.7723 139.487 28.7243 139.079 28.6283C138.683 28.5443 138.311 28.4183 137.963 28.2503V26.8823C138.323 27.0263 138.713 27.1523 139.133 27.2603C139.553 27.3683 140.027 27.4223 140.555 27.4223C141.491 27.4223 142.235 27.1703 142.787 26.6663C143.339 26.1623 143.645 25.3643 143.705 24.2723H138.953V22.9763H143.687C143.603 21.9923 143.321 21.2723 142.841 20.8163C142.373 20.3603 141.683 20.1323 140.771 20.1323C140.423 20.1323 140.039 20.1803 139.619 20.2763C139.211 20.3723 138.845 20.4803 138.521 20.6003L138.071 19.3223C138.419 19.1663 138.833 19.0343 139.313 18.9263C139.793 18.8183 140.273 18.7643 140.753 18.7643C141.653 18.7643 142.445 18.9323 143.129 19.2683C143.825 19.6043 144.365 20.1383 144.749 20.8703C145.145 21.6023 145.343 22.5683 145.343 23.7683C145.343 24.9083 145.133 25.8503 144.713 26.5943C144.305 27.3383 143.735 27.8903 143.003 28.2503C142.283 28.5983 141.455 28.7723 140.519 28.7723ZM149.414 28.7723C148.862 28.7723 148.382 28.7243 147.974 28.6283C147.578 28.5443 147.206 28.4183 146.858 28.2503V26.8823C147.218 27.0263 147.608 27.1523 148.028 27.2603C148.448 27.3683 148.922 27.4223 149.45 27.4223C150.386 27.4223 151.13 27.1703 151.682 26.6663C152.234 26.1623 152.54 25.3643 152.6 24.2723H147.848V22.9763H152.582C152.498 21.9923 152.216 21.2723 151.736 20.8163C151.268 20.3603 150.578 20.1323 149.666 20.1323C149.318 20.1323 148.934 20.1803 148.514 20.2763C148.106 20.3723 147.74 20.4803 147.416 20.6003L146.966 19.3223C147.314 19.1663 147.728 19.0343 148.208 18.9263C148.688 18.8183 149.168 18.7643 149.648 18.7643C150.548 18.7643 151.34 18.9323 152.024 19.2683C152.72 19.6043 153.26 20.1383 153.644 20.8703C154.04 21.6023 154.238 22.5683 154.238 23.7683C154.238 24.9083 154.028 25.8503 153.608 26.5943C153.2 27.3383 152.63 27.8903 151.898 28.2503C151.178 28.5983 150.35 28.7723 149.414 28.7723ZM164.572 14.9483C164.488 15.8483 164.182 16.5323 163.654 17.0003C163.138 17.4563 162.31 17.6843 161.17 17.6843C159.994 17.6843 159.16 17.4563 158.668 17.0003C158.188 16.5443 157.918 15.8603 157.858 14.9483H159.334C159.394 15.5963 159.562 16.0343 159.838 16.2623C160.126 16.4783 160.582 16.5863 161.206 16.5863C161.758 16.5863 162.19 16.4723 162.502 16.2443C162.826 16.0043 163.018 15.5723 163.078 14.9483H164.572ZM158.254 24.8303C158.254 24.9743 158.248 25.1903 158.236 25.4783C158.224 25.7663 158.206 26.0543 158.182 26.3423C158.17 26.6303 158.158 26.8583 158.146 27.0263L163.312 18.9443H165.256V28.5923H163.78V22.9043C163.78 22.7123 163.78 22.4603 163.78 22.1483C163.792 21.8363 163.804 21.5303 163.816 21.2303C163.828 20.9183 163.84 20.6843 163.852 20.5283L158.722 28.5923H156.76V18.9443H158.254V24.8303ZM169.038 28.7241C168.669 28.7241 168.373 28.6128 168.15 28.3901C167.928 28.1675 167.816 27.8774 167.816 27.52C167.816 27.1626 167.922 26.8696 168.133 26.6411C168.344 26.4126 168.643 26.2983 169.029 26.2983C169.416 26.2983 169.718 26.4097 169.935 26.6323C170.157 26.8491 170.269 27.1362 170.269 27.4937C170.269 27.8452 170.154 28.1382 169.926 28.3726C169.703 28.6069 169.407 28.7241 169.038 28.7241ZM169.961 15.4878L169.864 17.729V20.7964C169.864 21.4526 169.882 21.9565 169.917 22.3081C169.952 22.6597 169.97 22.9058 169.97 23.0464C169.97 23.1812 169.94 23.3101 169.882 23.4331C169.823 23.5503 169.75 23.647 169.662 23.7231C169.492 23.8813 169.278 23.9604 169.021 23.9604C168.763 23.9604 168.546 23.8696 168.37 23.688C168.2 23.5005 168.115 23.313 168.115 23.1255C168.115 22.938 168.121 22.7856 168.133 22.6685L168.186 22.2817C168.238 21.895 168.265 21.3999 168.265 20.7964V17.729C168.265 17.0962 168.238 16.6421 168.186 16.3667C168.139 16.0854 168.115 15.8276 168.115 15.5933C168.115 15.3589 168.197 15.1597 168.361 14.9956C168.525 14.8315 168.742 14.7495 169.012 14.7495C169.281 14.7495 169.507 14.8228 169.688 14.9692C169.87 15.1099 169.961 15.2827 169.961 15.4878ZM123.814 51.5923H122.194V40.1623H118.18V38.7403H127.81V40.1623H123.814V51.5923ZM128.635 51.5923V41.9443H130.219V45.9043H132.721C133.969 45.9043 134.893 46.1323 135.493 46.5883C136.093 47.0443 136.393 47.7283 136.393 48.6403C136.393 49.5403 136.099 50.2603 135.511 50.8003C134.923 51.3283 133.969 51.5923 132.649 51.5923H128.635ZM137.995 51.5923V41.9443H139.579V51.5923H137.995ZM132.505 50.3143C133.189 50.3143 133.747 50.2003 134.179 49.9723C134.611 49.7323 134.827 49.3183 134.827 48.7303C134.827 48.1423 134.629 47.7463 134.233 47.5423C133.837 47.3263 133.267 47.2183 132.523 47.2183H130.219V50.3143H132.505ZM158.323 41.9443V51.5923H156.739V43.2943H151.753V51.5923H150.169V41.9443H158.323ZM165.991 41.7643C167.179 41.7643 168.133 42.1783 168.853 43.0063C169.585 43.8343 169.951 45.0823 169.951 46.7503C169.951 48.3943 169.585 49.6423 168.853 50.4943C168.133 51.3463 167.173 51.7723 165.973 51.7723C165.229 51.7723 164.611 51.6343 164.119 51.3583C163.639 51.0703 163.261 50.7403 162.985 50.3683H162.877C162.901 50.5723 162.925 50.8303 162.949 51.1423C162.973 51.4543 162.985 51.7243 162.985 51.9523V55.9123H161.401V41.9443H162.697L162.913 43.2583H162.985C163.273 42.8383 163.651 42.4843 164.119 42.1963C164.587 41.9083 165.211 41.7643 165.991 41.7643ZM165.703 43.0963C164.719 43.0963 164.023 43.3723 163.615 43.9243C163.219 44.4763 163.009 45.3163 162.985 46.4443V46.7503C162.985 47.9383 163.177 48.8563 163.561 49.5043C163.957 50.1403 164.683 50.4583 165.739 50.4583C166.327 50.4583 166.807 50.2963 167.179 49.9723C167.563 49.6483 167.845 49.2103 168.025 48.6583C168.217 48.0943 168.313 47.4523 168.313 46.7323C168.313 45.6283 168.097 44.7463 167.665 44.0863C167.245 43.4263 166.591 43.0963 165.703 43.0963ZM180.863 46.7503C180.863 48.3463 180.455 49.5823 179.639 50.4583C178.835 51.3343 177.743 51.7723 176.363 51.7723C175.511 51.7723 174.749 51.5803 174.077 51.1963C173.417 50.8003 172.895 50.2303 172.511 49.4863C172.127 48.7303 171.935 47.8183 171.935 46.7503C171.935 45.1543 172.337 43.9243 173.141 43.0603C173.945 42.1963 175.037 41.7643 176.417 41.7643C177.293 41.7643 178.061 41.9623 178.721 42.3583C179.393 42.7423 179.915 43.3063 180.287 44.0503C180.671 44.7823 180.863 45.6823 180.863 46.7503ZM173.573 46.7503C173.573 47.8903 173.795 48.7963 174.239 49.4683C174.695 50.1283 175.415 50.4583 176.399 50.4583C177.371 50.4583 178.085 50.1283 178.541 49.4683C178.997 48.7963 179.225 47.8903 179.225 46.7503C179.225 45.6103 178.997 44.7163 178.541 44.0683C178.085 43.4203 177.365 43.0963 176.381 43.0963C175.397 43.0963 174.683 43.4203 174.239 44.0683C173.795 44.7163 173.573 45.6103 173.573 46.7503ZM182.87 45.7963C182.87 43.6843 183.188 42.0403 183.824 40.8643C184.46 39.6763 185.486 38.9323 186.902 38.6323C187.682 38.4643 188.444 38.3143 189.188 38.1823C189.932 38.0503 190.628 37.9303 191.276 37.8223L191.546 39.2083C191.126 39.2683 190.652 39.3463 190.124 39.4423C189.596 39.5263 189.074 39.6163 188.558 39.7123C188.042 39.7963 187.598 39.8803 187.226 39.9643C186.446 40.1323 185.828 40.5403 185.372 41.1883C184.916 41.8243 184.658 42.8203 184.598 44.1763H184.706C184.874 43.9483 185.102 43.7143 185.39 43.4743C185.69 43.2343 186.044 43.0303 186.452 42.8623C186.872 42.6943 187.346 42.6103 187.874 42.6103C189.122 42.6103 190.064 43.0123 190.7 43.8163C191.336 44.6203 191.654 45.6643 191.654 46.9483C191.654 48.0163 191.468 48.9103 191.096 49.6303C190.724 50.3503 190.208 50.8903 189.548 51.2503C188.888 51.5983 188.12 51.7723 187.244 51.7723C185.912 51.7723 184.85 51.2623 184.058 50.2423C183.266 49.2223 182.87 47.7403 182.87 45.7963ZM187.37 50.4583C188.15 50.4583 188.78 50.2063 189.26 49.7023C189.74 49.1983 189.98 48.3343 189.98 47.1103C189.98 46.1263 189.794 45.3523 189.422 44.7883C189.062 44.2123 188.462 43.9243 187.622 43.9243C187.094 43.9243 186.614 44.0443 186.182 44.2843C185.75 44.5123 185.39 44.7763 185.102 45.0763C184.814 45.3763 184.61 45.6283 184.49 45.8323C184.49 46.4203 184.532 46.9903 184.616 47.5423C184.7 48.0943 184.844 48.5923 185.048 49.0363C185.264 49.4683 185.558 49.8163 185.93 50.0803C186.314 50.3323 186.794 50.4583 187.37 50.4583ZM195.643 47.8303C195.643 47.9743 195.637 48.1903 195.625 48.4783C195.613 48.7663 195.595 49.0543 195.571 49.3423C195.559 49.6303 195.547 49.8583 195.535 50.0263L200.701 41.9443H202.645V51.5923H201.169V45.9043C201.169 45.7123 201.169 45.4603 201.169 45.1483C201.181 44.8363 201.193 44.5303 201.205 44.2303C201.217 43.9183 201.229 43.6843 201.241 43.5283L196.111 51.5923H194.149V41.9443H195.643V47.8303ZM213.06 51.5923H211.458V43.2583H208.614C208.458 45.2863 208.242 46.9243 207.966 48.1723C207.69 49.4083 207.324 50.3083 206.868 50.8723C206.412 51.4363 205.836 51.7183 205.14 51.7183C204.984 51.7183 204.828 51.7063 204.672 51.6823C204.528 51.6703 204.408 51.6403 204.312 51.5923V50.4043C204.384 50.4283 204.462 50.4463 204.546 50.4583C204.63 50.4703 204.714 50.4763 204.798 50.4763C205.446 50.4763 205.962 49.7863 206.346 48.4063C206.742 47.0263 207.042 44.8723 207.246 41.9443H213.06V51.5923ZM126.694 64.9443V73.2603H128.098V77.9403H126.568V74.5923H119.854V77.9403H118.342V73.2603H119.116C119.944 72.1203 120.562 70.8243 120.97 69.3723C121.39 67.9083 121.606 66.4323 121.618 64.9443H126.694ZM123.022 66.1863C122.974 67.0023 122.848 67.8483 122.644 68.7243C122.44 69.5883 122.176 70.4163 121.852 71.2083C121.54 72.0003 121.174 72.6843 120.754 73.2603H125.164V66.1863H123.022ZM131.573 64.9443V68.9583H136.811V64.9443H138.395V74.5923H136.811V70.2903H131.573V74.5923H129.989V64.9443H131.573ZM149.838 69.7503C149.838 71.3463 149.43 72.5823 148.614 73.4583C147.81 74.3343 146.718 74.7723 145.338 74.7723C144.486 74.7723 143.724 74.5803 143.052 74.1963C142.392 73.8003 141.87 73.2303 141.486 72.4863C141.102 71.7303 140.91 70.8183 140.91 69.7503C140.91 68.1543 141.312 66.9243 142.116 66.0603C142.92 65.1963 144.012 64.7643 145.392 64.7643C146.268 64.7643 147.036 64.9623 147.696 65.3583C148.368 65.7423 148.89 66.3063 149.262 67.0503C149.646 67.7823 149.838 68.6823 149.838 69.7503ZM142.548 69.7503C142.548 70.8903 142.77 71.7963 143.214 72.4683C143.67 73.1283 144.39 73.4583 145.374 73.4583C146.346 73.4583 147.06 73.1283 147.516 72.4683C147.972 71.7963 148.2 70.8903 148.2 69.7503C148.2 68.6103 147.972 67.7163 147.516 67.0683C147.06 66.4203 146.34 66.0963 145.356 66.0963C144.372 66.0963 143.658 66.4203 143.214 67.0683C142.77 67.7163 142.548 68.6103 142.548 69.7503ZM160.583 74.7241C160.214 74.7241 159.918 74.6128 159.695 74.3901C159.473 74.1675 159.361 73.8774 159.361 73.52C159.361 73.1626 159.467 72.8696 159.678 72.6411C159.889 72.4126 160.188 72.2983 160.574 72.2983C160.961 72.2983 161.263 72.4097 161.479 72.6323C161.702 72.8491 161.813 73.1362 161.813 73.4937C161.813 73.8452 161.699 74.1382 161.471 74.3726C161.248 74.6069 160.952 74.7241 160.583 74.7241ZM161.506 61.4878L161.409 63.729V66.7964C161.409 67.4526 161.427 67.9565 161.462 68.3081C161.497 68.6597 161.515 68.9058 161.515 69.0464C161.515 69.1812 161.485 69.3101 161.427 69.4331C161.368 69.5503 161.295 69.647 161.207 69.7231C161.037 69.8813 160.823 69.9604 160.565 69.9604C160.308 69.9604 160.091 69.8696 159.915 69.688C159.745 69.5005 159.66 69.313 159.66 69.1255C159.66 68.938 159.666 68.7856 159.678 68.6685L159.73 68.2817C159.783 67.895 159.81 67.3999 159.81 66.7964V63.729C159.81 63.0962 159.783 62.6421 159.73 62.3667C159.684 62.0854 159.66 61.8276 159.66 61.5933C159.66 61.3589 159.742 61.1597 159.906 60.9956C160.07 60.8315 160.287 60.7495 160.557 60.7495C160.826 60.7495 161.052 60.8228 161.233 60.9692C161.415 61.1099 161.506 61.2827 161.506 61.4878ZM164.178 76.561C164.811 76.561 165.502 76.2095 166.252 75.5063C168.115 73.7896 169.047 71.5073 169.047 68.6597C169.047 65.8062 168.115 63.521 166.252 61.8042C165.502 61.1011 164.811 60.7495 164.178 60.7495C163.955 60.7495 163.776 60.811 163.642 60.9341C163.507 61.0571 163.439 61.2124 163.439 61.3999C163.439 61.5874 163.483 61.7456 163.571 61.8745C163.665 62.0034 163.905 62.1616 164.292 62.3491C164.679 62.5366 165.08 62.8267 165.496 63.2192C166.791 64.4556 167.438 66.2661 167.438 68.6509C167.438 70.2095 167.143 71.5396 166.551 72.6411C165.959 73.7427 165.145 74.5483 164.107 75.0581C163.662 75.2749 163.439 75.5591 163.439 75.9106C163.439 76.0923 163.507 76.2446 163.642 76.3677C163.776 76.4966 163.955 76.561 164.178 76.561Z" fill="white"/>
</svg>
