<svg width="370" height="264" viewBox="0 0 370 264" fill="none" xmlns="http://www.w3.org/2000/svg">
<rect x="105.819" y="53.3185" width="253.237" height="157.297" rx="51" fill="#95C11F"/>
<circle cx="312.76" cy="102.962" r="11.7136" fill="black"/>
<path d="M277.619 201.5L233.92 245.199L233.92 201.5L202.318 245.199L202.318 201.5" stroke="#95C11F" stroke-width="4" stroke-linecap="round" stroke-linejoin="round"/>
<line x1="363.598" y1="159.221" x2="335.552" y2="159.221" stroke="black" stroke-width="11" stroke-linecap="round" stroke-linejoin="round"/>
<path d="M2.07031 29.3335L119.207 97.3841V180.495L2.07031 224.003L114.186 165.435L2.07031 180.495L114.186 151.49L2.07031 144.796L114.186 139.218L2.07031 109.098L114.186 126.947L2.07031 69.4945L114.186 109.098L2.07031 29.3335Z" stroke="#95C11F" stroke-width="4" stroke-linejoin="round"/>
<path d="M274.272 54.9919L248.614 2.55945V54.9919L216.82 2.55945V54.9919L187.815 2.55945V54.9919L159.367 2.55945V54.9919" stroke="#95C11F" stroke-width="4" stroke-linejoin="round"/>
</svg>
