<svg width="299" height="189" viewBox="0 0 299 189" fill="none" xmlns="http://www.w3.org/2000/svg">
<path d="M279.749 116.887H299V78.6945C299 58.4824 280.839 41.9412 258.647 41.9412H232.256L210.094 1.0161C209.684 0.260082 208.744 -0.149804 207.844 0.050586C206.934 0.241867 206.294 0.979677 206.294 1.82678V40.1377L185.112 1.0161C184.702 0.260082 183.762 -0.149804 182.862 0.050586C181.952 0.241867 181.312 0.979677 181.312 1.82678V40.1377L160.131 1.0161C159.721 0.260082 158.781 -0.149804 157.881 0.050586C156.971 0.241867 156.33 0.979677 156.33 1.82678V40.1377L135.149 1.0161C134.739 0.260082 133.799 -0.149804 132.899 0.050586C131.989 0.241867 131.349 0.979677 131.349 1.82678V41.9412H130.979C112.808 41.9412 97.3565 53.0264 92.3362 68.1376L5.22035 20.8C4.30029 20.2991 3.12021 20.545 2.53017 21.3557C1.94013 22.1664 2.15015 23.2503 3.01021 23.8332L88.4759 81.3269L4.82033 56.6243C3.81026 56.3237 2.72018 56.7974 2.34015 57.6991C1.96013 58.6009 2.41016 59.6119 3.37022 60.0127L81.0854 92.4576L4.42031 84.6971C3.36024 84.5787 2.40017 85.2527 2.23016 86.2091C2.06015 87.1655 2.73019 88.0764 3.76026 88.2859L83.2256 104.536L1.88013 108.817C0.830061 108.871 0 109.664 0 110.629C0 111.595 0.810049 112.387 1.87012 112.451L89.126 117.798L1.52012 137.728C0.480052 137.964 -0.170003 138.903 0.0400112 139.85C0.250025 140.806 1.2401 141.444 2.30017 141.298L89.676 129.293L5.70039 167.376C4.76033 167.804 4.34028 168.815 4.74031 169.699C5.06033 170.4 5.80038 170.828 6.59044 170.828C6.80045 170.828 7.00046 170.801 7.21047 170.737L97.6365 143.967C104.917 153.695 117.178 160.107 130.999 160.107H181.322V187.178C181.322 188.025 181.962 188.763 182.872 188.954C183.022 188.991 183.172 189 183.332 189C184.082 189 184.782 188.617 185.122 187.98L200.223 160.107H206.314V187.178C206.314 188.025 206.954 188.763 207.864 188.954C208.014 188.991 208.164 189 208.324 189C209.074 189 209.774 188.617 210.114 187.98L225.215 160.107H258.677C279.899 160.107 297.41 144.987 298.91 125.996H279.769C277.009 125.996 274.758 123.946 274.758 121.432C274.758 118.918 276.989 116.887 279.749 116.887ZM38.1126 42.8976L91.3561 71.8266C90.9161 73.9124 90.6761 76.053 90.6461 78.2391L38.1126 42.8976ZM36.2824 69.7316L90.6361 85.781V92.4212L36.2824 69.7316ZM40.0127 91.9476L90.6361 97.0666V102.295L40.0127 91.9476ZM33.9923 110.775L90.6361 107.787V114.245L33.9923 110.775ZM43.2629 131.989L90.6361 121.214V123.372C90.6361 124.074 90.6661 124.775 90.7061 125.476L43.2629 131.989ZM31.6621 159.67L91.8662 132.363C92.6962 135.323 93.9163 138.147 95.4764 140.779L31.6621 159.67ZM227.795 41.9321H210.294V9.62376L227.795 41.9321ZM202.814 41.9321H185.312V9.62376L202.814 41.9321ZM177.832 41.9321H160.331V9.62376L177.832 41.9321ZM135.359 9.62376L152.86 41.9321H135.359V9.62376ZM185.322 179.381V160.126H195.753L185.322 179.381ZM210.304 179.381V160.126H220.735L210.304 179.381ZM261.158 88.295C255.257 88.295 250.477 83.9411 250.477 78.567C250.477 73.1929 255.257 68.8389 261.158 68.8389C267.058 68.8389 271.838 73.1929 271.838 78.567C271.838 83.9411 267.058 88.295 261.158 88.295Z" fill="white"/>
</svg>
