<svg width="265" height="227" viewBox="0 0 265 227" fill="none" xmlns="http://www.w3.org/2000/svg">
<path d="M245.37 133.916H264.62V91.9863C264.62 69.7963 246.46 51.6363 224.27 51.6363H197.38C195.71 47.4063 195.13 40.5363 201.04 31.1563C213.29 11.7263 200.78 0.59633 200.65 0.48633C199.82 -0.23367 198.56 -0.14367 197.84 0.68633C197.12 1.51633 197.2 2.77633 198.03 3.50633C198.44 3.86633 208 12.5963 197.65 29.0163C191.51 38.7563 191.59 46.4063 193.21 51.6363H183.89C182.22 47.4063 181.639 40.5363 187.549 31.1563C199.799 11.7263 187.29 0.59633 187.16 0.48633C186.33 -0.23367 185.07 -0.14367 184.35 0.68633C183.63 1.51633 183.71 2.77633 184.54 3.50633C184.95 3.86633 194.51 12.5963 184.16 29.0163C178.02 38.7563 178.1 46.4063 179.72 51.6363H170.4C168.73 47.4063 168.15 40.5363 174.06 31.1563C186.31 11.7263 173.799 0.59633 173.669 0.48633C172.829 -0.23367 171.579 -0.14367 170.859 0.68633C170.139 1.51633 170.219 2.77633 171.049 3.50633C171.459 3.86633 181.019 12.5963 170.669 29.0163C164.529 38.7563 164.609 46.4063 166.229 51.6363H156.91C155.24 47.4063 154.66 40.5363 160.57 31.1563C172.82 11.7263 160.31 0.59633 160.18 0.48633C159.35 -0.23367 158.09 -0.14367 157.37 0.68633C156.65 1.51633 156.73 2.77633 157.56 3.50633C157.97 3.86633 167.53 12.5963 157.18 29.0163C151.04 38.7563 151.12 46.4063 152.74 51.6363H143.42C141.75 47.4063 141.17 40.5363 147.08 31.1563C159.33 11.7263 146.82 0.59633 146.69 0.48633C145.85 -0.23367 144.6 -0.14367 143.88 0.68633C143.16 1.51633 143.24 2.77633 144.07 3.50633C144.48 3.86633 154.04 12.5963 143.69 29.0163C137.55 38.7563 137.63 46.4063 139.25 51.6363H129.93C128.26 47.4063 127.68 40.5363 133.59 31.1563C145.84 11.7263 133.33 0.59633 133.2 0.48633C132.37 -0.23367 131.11 -0.14367 130.39 0.68633C129.67 1.51633 129.75 2.77633 130.58 3.50633C130.99 3.86633 140.55 12.5963 130.2 29.0163C124.06 38.7563 124.14 46.4063 125.76 51.6363H116.44C114.77 47.4063 114.19 40.5363 120.1 31.1563C132.35 11.7263 119.84 0.59633 119.71 0.48633C118.88 -0.23367 117.62 -0.14367 116.9 0.68633C116.18 1.51633 116.26 2.77633 117.09 3.50633C117.5 3.86633 127.06 12.5963 116.71 29.0163C110.57 38.7563 110.65 46.4063 112.27 51.6363H96.5495C79.9395 51.6363 65.5795 61.8163 59.4195 76.2463C54.8895 70.1163 45.7295 66.2963 32.1395 64.8963C19.3195 63.5663 10.4295 59.8763 6.40952 54.2063C3.19952 49.6663 4.14953 45.4163 4.19953 45.2063C4.45953 44.1363 3.81952 43.0563 2.74952 42.7863C1.67952 42.5163 0.589526 43.1563 0.319526 44.2263C0.259526 44.4763 -1.17047 50.3263 3.06953 56.3963C7.80953 63.1863 17.4495 67.3863 31.7295 68.8563C44.4995 70.1763 53.1295 73.7763 56.6795 79.2763C57.0995 79.9363 57.4295 80.5863 57.6795 81.2163C56.7395 84.5863 56.2195 88.1263 56.2095 91.7763C51.1095 87.5863 43.0595 84.8963 32.1495 83.7763C19.3295 82.4463 10.4395 78.7563 6.41953 73.0863C3.20953 68.5463 4.15954 64.2963 4.20954 64.0863C4.46954 63.0163 3.82953 61.9363 2.75953 61.6663C1.68953 61.3963 0.599536 62.0363 0.329536 63.1063C0.269536 63.3563 -1.16046 69.2063 3.07954 75.2763C7.81954 82.0663 17.4595 86.2663 31.7395 87.7363C43.9895 89.0063 52.4095 92.3763 56.2095 97.4963V108.726C51.1095 104.546 43.0595 101.856 32.1495 100.726C19.3295 99.3963 10.4395 95.7063 6.41953 90.0363C3.20953 85.4963 4.15954 81.2463 4.20954 81.0363C4.46954 79.9663 3.82953 78.8863 2.75953 78.6163C1.68953 78.3463 0.599536 78.9863 0.329536 80.0563C0.269536 80.3063 -1.16046 86.1563 3.07954 92.2263C7.81954 99.0163 17.4595 103.216 31.7395 104.686C43.9895 105.956 52.4095 109.326 56.2095 114.446V117.506C52.4095 122.626 43.9895 125.996 31.7395 127.266C17.4595 128.746 7.81954 132.936 3.07954 139.726C-1.16046 145.806 0.269536 151.656 0.329536 151.896C0.559536 152.796 1.36953 153.396 2.25953 153.396C2.41953 153.396 2.57952 153.376 2.74952 153.336C3.81952 153.076 4.46954 151.986 4.20954 150.926C4.16954 150.746 3.18953 146.476 6.41953 141.926C10.4295 136.256 19.3295 132.566 32.1495 131.236C43.0595 130.106 51.1095 127.416 56.2095 123.236V134.466C52.4095 139.586 43.9895 142.956 31.7395 144.226C17.4595 145.706 7.81954 149.896 3.07954 156.686C-1.16046 162.766 0.269536 168.616 0.329536 168.856C0.559536 169.756 1.36953 170.356 2.25953 170.356C2.41953 170.356 2.57952 170.336 2.74952 170.296C3.81952 170.036 4.46954 168.946 4.20954 167.886C4.16954 167.706 3.18953 163.436 6.41953 158.886C10.4295 153.216 19.3295 149.526 32.1495 148.196C43.0595 147.066 51.1095 144.376 56.2095 140.196V140.996C56.2095 144.506 56.6695 147.906 57.5195 151.156C57.2895 151.656 57.0195 152.176 56.6895 152.686C53.1395 158.176 44.5195 161.786 31.7495 163.106C17.4695 164.586 7.82951 168.776 3.08952 175.566C-1.15048 181.646 0.279515 187.496 0.339515 187.736C0.569515 188.636 1.37954 189.236 2.26954 189.236C2.42954 189.236 2.58953 189.216 2.75953 189.176C3.82953 188.916 4.47952 187.826 4.21952 186.766C4.17952 186.586 3.19954 182.316 6.42954 177.766C10.4395 172.096 19.3395 168.406 32.1595 167.076C45.4795 165.696 54.5495 161.996 59.1695 156.076C65.1795 170.846 79.6995 181.336 96.5595 181.336H175.43C175.44 185.166 174.25 189.966 170.64 195.696C158.39 215.126 170.9 226.256 171.03 226.366C171.41 226.686 171.87 226.846 172.33 226.846C172.89 226.846 173.44 226.616 173.84 226.156C174.56 225.326 174.48 224.066 173.65 223.336C173.24 222.976 163.68 214.246 174.03 197.826C178.1 191.376 179.43 185.856 179.39 181.336H188.91C188.92 185.166 187.73 189.966 184.12 195.696C171.87 215.126 184.38 226.256 184.51 226.366C184.89 226.686 185.35 226.846 185.81 226.846C186.37 226.846 186.92 226.616 187.32 226.156C188.04 225.326 187.96 224.066 187.13 223.336C186.72 222.976 177.16 214.246 187.51 197.826C191.58 191.376 192.91 185.856 192.87 181.336H202.39C202.4 185.166 201.21 189.966 197.6 195.696C185.35 215.126 197.86 226.256 197.99 226.366C198.37 226.686 198.83 226.846 199.29 226.846C199.85 226.846 200.399 226.616 200.799 226.156C201.519 225.326 201.439 224.066 200.609 223.336C200.199 222.976 190.64 214.246 200.99 197.826C205.05 191.376 206.38 185.856 206.35 181.336H224.22C245.44 181.336 262.95 164.736 264.45 143.886H245.31C242.55 143.886 240.299 141.636 240.299 138.876C240.299 136.116 242.62 133.916 245.37 133.916ZM226.78 102.536C220.88 102.536 216.1 97.7563 216.1 91.8563C216.1 85.9563 220.88 81.1763 226.78 81.1763C232.68 81.1763 237.46 85.9563 237.46 91.8563C237.46 97.7563 232.68 102.536 226.78 102.536Z" fill="white"/>
</svg>
