<svg width="296" height="189" viewBox="0 0 296 189" fill="none" xmlns="http://www.w3.org/2000/svg">
<path d="M274.464 111.574H296V76.6396C296 58.1517 275.683 43.0215 250.858 43.0215H220.775C218.907 39.4972 218.258 33.7734 224.87 25.9583C238.574 9.76995 224.579 0.49684 224.433 0.405192C223.505 -0.194686 222.095 -0.119701 221.289 0.571824C220.484 1.26335 220.573 2.31314 221.502 2.92134C221.961 3.22128 232.656 10.4948 221.077 24.1753C214.208 32.2903 214.297 38.664 216.11 43.0215H205.683C203.814 39.4972 203.166 33.7734 209.777 25.9583C223.482 9.76995 209.487 0.49684 209.341 0.405192C208.413 -0.194686 207.003 -0.119701 206.197 0.571824C205.392 1.26335 205.481 2.31314 206.41 2.92134C206.869 3.22128 217.564 10.4948 205.985 24.1753C199.116 32.2903 199.205 38.664 201.018 43.0215H190.591C188.722 39.4972 188.074 33.7734 194.685 25.9583C208.39 9.76995 194.395 0.49684 194.249 0.405192C193.309 -0.194686 191.911 -0.119701 191.105 0.571824C190.3 1.26335 190.389 2.31314 191.318 2.92134C191.777 3.22128 202.472 10.4948 190.893 24.1753C184.024 32.2903 184.113 38.664 185.926 43.0215H175.499C173.63 39.4972 172.982 33.7734 179.593 25.9583C193.298 9.76995 179.303 0.49684 179.157 0.405192C178.229 -0.194686 176.819 -0.119701 176.013 0.571824C175.208 1.26335 175.297 2.31314 176.226 2.92134C176.685 3.22128 187.38 10.4948 175.801 24.1753C168.932 32.2903 169.021 38.664 170.834 43.0215H160.407C158.538 39.4972 157.89 33.7734 164.501 25.9583C178.206 9.76995 164.21 0.49684 164.065 0.405192C163.125 -0.194686 161.727 -0.119701 160.921 0.571824C160.116 1.26335 160.205 2.31314 161.134 2.92134C161.593 3.22128 172.288 10.4948 160.709 24.1753C153.84 32.2903 153.929 38.664 155.742 43.0215H145.315C143.446 39.4972 142.797 33.7734 149.409 25.9583C163.114 9.76995 149.118 0.49684 148.973 0.405192C148.044 -0.194686 146.635 -0.119701 145.829 0.571824C145.024 1.26335 145.113 2.31314 146.042 2.92134C146.501 3.22128 157.196 10.4948 145.617 24.1753C138.748 32.2903 138.837 38.664 140.65 43.0215H130.223C128.354 39.4972 127.705 33.7734 134.317 25.9583C148.022 9.76995 134.026 0.49684 133.881 0.405192C132.952 -0.194686 131.543 -0.119701 130.737 0.571824C129.932 1.26335 130.021 2.31314 130.95 2.92134C131.409 3.22128 142.104 10.4948 130.525 24.1753C123.656 32.2903 123.745 38.664 125.557 43.0215H107.971C89.3881 43.0215 73.3227 51.5031 66.4312 63.5256C61.3632 58.4183 51.1154 55.2357 35.9115 54.0692C21.5691 52.9611 11.6233 49.8868 7.1259 45.1627C3.53469 41.3802 4.59752 37.8392 4.65346 37.6642C4.94434 36.7728 4.22832 35.8729 3.03125 35.648C1.83418 35.423 0.614742 35.9563 0.312678 36.8477C0.245553 37.056 -1.35427 41.93 3.38926 46.9873C8.69216 52.6445 19.477 56.1438 35.4528 57.3686C49.7393 58.4683 59.3942 61.4677 63.3658 66.0501C63.8357 66.6 64.2049 67.1416 64.4846 67.6665C63.4329 70.4742 62.8512 73.4236 62.84 76.4647C57.1343 72.9737 48.1284 70.7325 35.9227 69.7993C21.5803 68.6912 11.6345 65.6169 7.1371 60.8928C3.54589 57.1103 4.60872 53.5693 4.66466 53.3944C4.95553 52.5029 4.23952 51.6031 3.04245 51.3781C1.84538 51.1532 0.625941 51.6864 0.323877 52.5779C0.256751 52.7862 -1.34307 57.6602 3.40046 62.7175C8.70336 68.3746 19.4882 71.8739 35.464 73.0987C49.1688 74.1568 58.5887 76.9646 62.84 81.2303V90.5868C57.1343 87.1042 48.1284 84.8629 35.9227 83.9215C21.5803 82.8134 11.6345 79.739 7.1371 75.015C3.54589 71.2324 4.60872 67.6914 4.66466 67.5165C4.95553 66.625 4.23952 65.7252 3.04245 65.5002C1.84538 65.2753 0.625941 65.8085 0.323877 66.7C0.256751 66.9083 -1.34307 71.7823 3.40046 76.8396C8.70336 82.4968 19.4882 85.996 35.464 87.2208C49.1688 88.2789 58.5887 91.0867 62.84 95.3525V97.9019C58.5887 102.168 49.1688 104.975 35.464 106.034C19.4882 107.267 8.70336 110.758 3.40046 116.415C-1.34307 121.48 0.256751 126.354 0.323877 126.554C0.581191 127.304 1.48738 127.804 2.48307 127.804C2.66207 127.804 2.84106 127.787 3.03125 127.754C4.22832 127.538 4.95553 126.629 4.66466 125.746C4.61991 125.596 3.52352 122.039 7.1371 118.248C11.6233 113.524 21.5803 110.449 35.9227 109.341C48.1284 108.4 57.1343 106.159 62.84 102.676V112.032C58.5887 116.298 49.1688 119.106 35.464 120.164C19.4882 121.397 8.70336 124.888 3.40046 130.545C-1.34307 135.611 0.256751 140.485 0.323877 140.685C0.581191 141.435 1.48738 141.935 2.48307 141.935C2.66207 141.935 2.84106 141.918 3.03125 141.885C4.22832 141.668 4.95553 140.76 4.66466 139.877C4.61991 139.727 3.52352 136.169 7.1371 132.378C11.6233 127.654 21.5803 124.58 35.9227 123.472C48.1284 122.53 57.1343 120.289 62.84 116.806V117.473C62.84 120.397 63.3546 123.23 64.3056 125.938C64.0483 126.354 63.7462 126.788 63.377 127.213C59.4054 131.787 49.7617 134.794 35.4752 135.894C19.4993 137.127 8.71453 140.618 3.41162 146.275C-1.33191 151.341 0.267915 156.215 0.335041 156.415C0.592355 157.165 1.49857 157.665 2.49427 157.665C2.67327 157.665 2.85226 157.648 3.04245 157.615C4.23952 157.398 4.9667 156.49 4.67582 155.607C4.63107 155.457 3.53471 151.899 7.1483 148.108C11.6345 143.384 21.5914 140.31 35.9339 139.202C50.8357 138.052 60.9829 134.969 66.1515 130.037C72.8752 142.343 89.1196 151.083 107.982 151.083H196.218C196.229 154.274 194.898 158.273 190.859 163.047C177.155 179.235 191.15 188.508 191.296 188.6C191.721 188.867 192.235 189 192.75 189C193.376 189 193.992 188.808 194.439 188.425C195.245 187.734 195.155 186.684 194.227 186.076C193.768 185.776 183.073 178.502 194.652 164.822C199.205 159.448 200.693 154.849 200.648 151.083H211.299C211.31 154.274 209.979 158.273 205.94 163.047C192.235 179.235 206.231 188.508 206.376 188.6C206.802 188.867 207.316 189 207.831 189C208.457 189 209.073 188.808 209.52 188.425C210.326 187.734 210.236 186.684 209.308 186.076C208.849 185.776 198.154 178.502 209.733 164.822C214.286 159.448 215.774 154.849 215.729 151.083H226.38C226.391 154.274 225.06 158.273 221.021 163.047C207.316 179.235 221.312 188.508 221.457 188.6C221.882 188.867 222.397 189 222.912 189C223.538 189 224.153 188.808 224.601 188.425C225.406 187.734 225.317 186.684 224.388 186.076C223.93 185.776 213.234 178.502 224.814 164.822C229.356 159.448 230.844 154.849 230.81 151.083H250.802C274.542 151.083 294.132 137.252 295.81 119.881H274.397C271.309 119.881 268.792 118.006 268.792 115.707C268.792 113.407 271.387 111.574 274.464 111.574ZM253.666 85.4295C247.066 85.4295 241.718 81.447 241.718 76.5313C241.718 71.6156 247.066 67.6331 253.666 67.6331C260.267 67.6331 265.615 71.6156 265.615 76.5313C265.615 81.447 260.267 85.4295 253.666 85.4295Z" fill="white"/>
</svg>
