<svg width="300" height="209" viewBox="0 0 300 209" fill="none" xmlns="http://www.w3.org/2000/svg">
<path d="M279.86 129.296H299.11V87.3664C299.11 65.1764 280.95 47.0164 258.76 47.0164H232.37L210.21 2.08636C209.8 1.25636 208.86 0.806362 207.96 1.02636C207.05 1.23636 206.41 2.04637 206.41 2.97637V45.0364L185.23 2.08636C184.82 1.25636 183.88 0.806362 182.98 1.02636C182.07 1.23636 181.43 2.04637 181.43 2.97637V45.0364L160.25 2.08636C159.84 1.25636 158.9 0.806362 158 1.02636C157.09 1.23636 156.45 2.04637 156.45 2.97637V45.0364L135.27 2.08636C134.86 1.25636 133.92 0.806362 133.02 1.02636C132.11 1.23636 131.47 2.04637 131.47 2.97637V47.0164H131.1C112.93 47.0164 97.4799 59.1864 92.4599 75.7764L5.34988 23.8064C4.42988 23.2564 3.24988 23.5264 2.65988 24.4164C2.06988 25.3064 2.27989 26.4964 3.13989 27.1364L88.5999 90.2564L4.94989 63.1364C3.93989 62.8064 2.84988 63.3264 2.46988 64.3164C2.08988 65.3064 2.53988 66.4163 3.49988 66.8563L81.2099 102.476L4.5499 93.9564C3.4899 93.8264 2.52989 94.5664 2.35989 95.6164C2.18989 96.6664 2.85989 97.6664 3.88989 97.8964L83.3499 115.736L2.00989 120.436C0.959888 120.496 0.129883 121.366 0.129883 122.426C0.129883 123.486 0.939878 124.356 1.99988 124.426L89.2499 130.296L1.6499 152.176C0.609902 152.436 -0.0401086 153.466 0.169891 154.506C0.379891 155.556 1.3699 156.256 2.4299 156.096L89.7999 142.916L5.8299 184.726C4.8899 185.196 4.46987 186.306 4.86987 187.276C5.18987 188.046 5.92988 188.516 6.71988 188.516C6.92988 188.516 7.12987 188.486 7.33987 188.416L97.7599 159.026C105.04 169.706 117.3 176.746 131.12 176.746H181.44V206.466C181.44 207.396 182.08 208.206 182.99 208.416C183.14 208.456 183.29 208.466 183.45 208.466C184.2 208.466 184.9 208.046 185.24 207.346L200.34 176.746H206.43V206.466C206.43 207.396 207.07 208.206 207.98 208.416C208.13 208.456 208.28 208.466 208.44 208.466C209.19 208.466 209.89 208.046 210.23 207.346L225.33 176.746H258.79C280.01 176.746 297.52 160.146 299.02 139.296H279.88C277.12 139.296 274.87 137.046 274.87 134.286C274.87 131.526 277.1 129.296 279.86 129.296ZM38.2399 48.0664L91.4799 79.8263C91.0399 82.1163 90.7999 84.4664 90.7699 86.8664L38.2399 48.0664ZM36.4099 77.5264L90.7599 95.1464V102.436L36.4099 77.5264ZM40.1399 101.916L90.7599 107.536V113.276L40.1399 101.916ZM34.1199 122.586L90.7599 119.306V126.396L34.1199 122.586ZM43.3899 145.876L90.7599 134.046V136.416C90.7599 137.186 90.7899 137.956 90.8299 138.726L43.3899 145.876ZM31.7899 176.266L91.9899 146.286C92.8199 149.536 94.0399 152.636 95.5999 155.526L31.7899 176.266ZM227.91 47.0064H210.41V11.5364L227.91 47.0064ZM202.93 47.0064H185.43V11.5364L202.93 47.0064ZM177.95 47.0064H160.45V11.5364L177.95 47.0064ZM135.48 11.5364L152.98 47.0064H135.48V11.5364ZM185.44 197.906V176.766H195.87L185.44 197.906ZM210.42 197.906V176.766H220.85L210.42 197.906ZM261.27 97.9064C255.37 97.9064 250.59 93.1264 250.59 87.2264C250.59 81.3264 255.37 76.5463 261.27 76.5463C267.17 76.5463 271.95 81.3264 271.95 87.2264C271.95 93.1264 267.17 97.9064 261.27 97.9064Z" fill="white"/>
</svg>
