<svg width="294" height="189" viewBox="0 0 294 189" fill="none" xmlns="http://www.w3.org/2000/svg">
<path d="M274.753 113.555H294V68.4407C294 44.5655 275.842 25.0264 253.656 25.0264H245.467C245.477 24.8004 245.487 24.5853 245.487 24.3593C245.487 10.9316 235.328 0 222.85 0C217.98 0 213.461 1.6677 209.761 4.49743C206.062 1.6677 201.553 0 196.673 0C191.794 0 187.285 1.6677 183.585 4.49743C179.886 1.6677 175.376 0 170.497 0C165.617 0 161.108 1.6677 157.409 4.49743C153.709 1.6677 149.2 0 144.32 0C131.842 0 121.683 10.9316 121.683 24.3593C121.683 24.6713 121.693 24.9726 121.703 25.2846C104.086 27.3182 89.7778 41.682 86.4182 60.1344C84.0586 59.2414 81.5289 58.7464 78.8893 58.7464C76.5596 58.7464 74.3099 59.123 72.2002 59.8331C72.7001 57.8211 72.9701 55.7123 72.9701 53.5389C72.9701 40.1111 62.8115 29.1795 50.3332 29.1795C45.1139 29.1795 40.3145 31.0947 36.485 34.2903C32.6556 31.0947 27.8462 29.1795 22.6369 29.1795C10.1586 29.1795 0 40.1111 0 53.5389C0 66.9666 10.1586 77.8982 22.6369 77.8982C24.6267 77.8982 26.5564 77.6185 28.3961 77.0912C27.9362 79.0172 27.6962 81.0292 27.6962 83.1058C27.6962 88.7222 29.476 93.8867 32.4456 98.0076C29.476 102.128 27.6962 107.304 27.6962 112.909C27.6962 114.964 27.9362 116.966 28.3861 118.87C26.5464 118.354 24.6167 118.074 22.6369 118.074C10.1586 118.074 0 129.005 0 142.433C0 155.861 10.1586 166.793 22.6369 166.793C27.8562 166.793 32.6556 164.877 36.485 161.682C40.3145 164.877 45.1239 166.793 50.3332 166.793C62.8115 166.793 72.9701 155.861 72.9701 142.433C72.9701 140.271 72.7001 138.183 72.2102 136.182C74.3199 136.881 76.5696 137.269 78.8893 137.269C82.0788 137.269 85.1084 136.559 87.8581 135.267C93.3173 152.31 108.385 164.641 126.013 164.641H173.026C173.026 178.068 183.185 189 195.663 189C200.883 189 205.682 187.085 209.512 183.889C213.341 187.085 218.15 189 223.36 189C235.838 189 245.997 178.068 245.997 164.641H253.636C274.853 164.641 292.36 146.78 293.87 124.347H274.733C271.973 124.347 269.723 121.926 269.723 118.956C269.723 115.987 272.003 113.555 274.753 113.555ZM214.311 164.63C214.311 169.773 212.491 174.453 209.522 178.004C206.552 174.453 204.732 169.773 204.732 164.63H214.311ZM151.869 24.3486C151.869 18.7752 153.999 13.729 157.419 10.0816C160.848 13.7183 162.968 18.7644 162.968 24.3486C162.968 24.5745 162.948 24.7897 162.938 25.0157H151.889C151.899 24.7897 151.869 24.5745 151.869 24.3486ZM178.036 24.3486C178.036 18.7752 180.166 13.729 183.585 10.0816C187.015 13.7183 189.134 18.7644 189.134 24.3486C189.134 24.5745 189.114 24.7897 189.104 25.0157H178.056C178.066 24.7897 178.036 24.5745 178.036 24.3486ZM204.212 24.3486C204.212 18.7752 206.342 13.729 209.761 10.0816C213.191 13.7183 215.311 18.7644 215.311 24.3486C215.311 24.5745 215.291 24.7897 215.281 25.0157H204.232C204.232 24.7897 204.212 24.5745 204.212 24.3486ZM241.487 24.3486C241.487 24.5745 241.467 24.7897 241.457 25.0157H219.3C219.31 24.7897 219.32 24.5745 219.32 24.3486C219.32 17.7638 216.881 11.7923 212.921 7.40249C215.801 5.44427 219.2 4.293 222.85 4.293C233.118 4.293 241.487 13.2879 241.487 24.3486ZM206.602 7.40249C202.652 11.7923 200.203 17.7638 200.203 24.3486C200.203 24.5745 200.213 24.8005 200.223 25.0157H193.124C193.134 24.7897 193.144 24.5745 193.144 24.3486C193.144 17.7638 190.704 11.7923 186.745 7.40249C189.624 5.44427 193.024 4.293 196.673 4.293C200.323 4.293 203.722 5.44427 206.602 7.40249ZM180.435 7.40249C176.486 11.7923 174.036 17.7638 174.036 24.3486C174.036 24.5745 174.046 24.8005 174.056 25.0157H166.957C166.967 24.7897 166.977 24.5745 166.977 24.3486C166.977 17.7638 164.538 11.7923 160.578 7.40249C163.458 5.44427 166.857 4.293 170.507 4.293C174.156 4.293 177.556 5.44427 180.435 7.40249ZM125.703 24.3486C125.703 13.2879 134.062 4.293 144.34 4.293C147.99 4.293 151.389 5.44427 154.269 7.40249C150.32 11.7923 147.87 17.7638 147.87 24.3486C147.87 24.5745 147.88 24.8005 147.89 25.0157H126.033C125.933 25.0157 125.843 25.0264 125.743 25.0264C125.733 24.8004 125.703 24.5745 125.703 24.3486ZM68.9806 112.899C68.9806 117.181 67.7108 121.151 65.5711 124.422C64.5212 123.389 63.3714 122.464 62.1615 121.657C60.9617 119.01 60.2618 116.04 60.2618 112.899C60.2618 109.595 61.0217 106.475 62.3415 103.732C63.1314 103.194 63.8913 102.613 64.6212 101.978C65.3411 102.613 66.101 103.194 66.9009 103.732C68.2207 106.475 68.9806 109.595 68.9806 112.899ZM41.2844 142.422C41.2844 147.565 39.4646 152.246 36.495 155.796C33.5254 152.246 31.7057 147.565 31.7057 142.422C31.7057 138.14 32.9755 134.17 35.1152 130.899C36.505 132.255 38.0448 133.438 39.7146 134.396C40.7145 136.86 41.2844 139.571 41.2844 142.422ZM39.4846 126.154C42.5442 123.776 46.2937 122.356 50.3532 122.356C53.5327 122.356 56.5223 123.217 59.142 124.734C59.8819 126.165 60.7517 127.499 61.7416 128.726C58.592 131.351 54.6426 132.943 50.3532 132.943C47.6335 132.943 45.0539 132.298 42.7242 131.168C41.8343 129.361 40.7445 127.671 39.4846 126.154ZM60.2718 83.0843C60.2718 79.921 60.9717 76.9299 62.2015 74.2615C63.4014 73.4653 64.5312 72.5508 65.5711 71.5394C67.7208 74.8102 68.9906 78.7805 68.9906 83.0843C68.9906 86.3874 68.2307 89.5076 66.9109 92.2513C66.121 92.7892 65.3611 93.3703 64.6312 94.0051C63.9113 93.3703 63.1514 92.7892 62.3515 92.2513C61.0317 89.5076 60.2718 86.3982 60.2718 83.0843ZM36.495 40.1541C39.4646 43.7047 41.2844 48.3851 41.2844 53.5281C41.2844 56.4009 40.7045 59.1338 39.6946 61.6084C38.0448 62.5553 36.515 63.728 35.1352 65.073C32.9855 61.8021 31.7157 57.8319 31.7157 53.5281C31.7057 48.3851 33.5254 43.7047 36.495 40.1541ZM42.6842 64.8255C45.0239 63.685 47.6135 63.0287 50.3432 63.0287C54.6326 63.0287 58.572 64.6103 61.7316 67.2464C60.7617 68.4622 59.9019 69.7749 59.172 71.1843C56.5423 72.7122 53.5427 73.5837 50.3532 73.5837C46.2937 73.5837 42.5542 72.1634 39.4846 69.7856C40.7345 68.29 41.8043 66.6223 42.6842 64.8255ZM61.0217 97.9968C60.4218 98.836 59.8619 99.7183 59.3619 100.633C56.6923 102.236 53.6127 103.151 50.3432 103.151C45.5638 103.151 41.2144 101.192 37.9148 97.9968C41.2144 94.8012 45.5638 92.843 50.3432 92.843C53.6127 92.843 56.6823 93.7576 59.3619 95.3608C59.8619 96.2753 60.4118 97.1576 61.0217 97.9968ZM68.2307 97.9968C68.8306 97.1576 69.3906 96.2753 69.8905 95.3608C72.5601 93.7576 75.6397 92.843 78.9093 92.843C81.2989 92.843 83.5786 93.3487 85.6883 94.231V101.752C83.5886 102.634 81.3089 103.14 78.9093 103.14C75.6397 103.14 72.5701 102.225 69.8905 100.622C69.3906 99.7075 68.8306 98.8253 68.2307 97.9968ZM78.9093 63.0287C81.3689 63.0287 83.7086 63.5559 85.8583 64.492C85.7483 65.7939 85.6883 67.1065 85.6883 68.4299V89.6475C83.5486 88.9266 81.2689 88.5285 78.9093 88.5285C76.5496 88.5285 74.2799 88.9159 72.1502 89.6367C72.6901 87.5494 72.9901 85.3545 72.9901 83.0735C72.9901 77.5216 71.2503 72.3894 68.3307 68.2901C68.9806 67.3755 69.5705 66.4179 70.0905 65.4173C72.7101 63.9002 75.7097 63.0287 78.9093 63.0287ZM68.9806 53.5174C68.9806 56.6806 68.2807 59.6718 67.0609 62.3401C66.211 62.8996 65.4011 63.5236 64.6312 64.2015C60.7317 60.78 55.7624 58.7249 50.3532 58.7249C48.3634 58.7249 46.4337 59.0047 44.5939 59.5319C45.0539 57.6059 45.2938 55.5939 45.2938 53.5174C45.2938 47.2769 43.0941 41.5744 39.4946 37.2599C42.5542 34.882 46.3037 33.4618 50.3632 33.4618C60.6218 33.4618 68.9806 42.4674 68.9806 53.5174ZM22.6469 73.5729C12.3683 73.5729 4.00946 64.578 4.00946 53.5174C4.00946 42.4567 12.3683 33.4618 22.6469 33.4618C26.7064 33.4618 30.4459 34.882 33.5154 37.2599C29.9159 41.5744 27.7162 47.2769 27.7162 53.5174C27.7162 59.0692 29.456 64.2014 32.3756 68.3008C31.5957 69.3875 30.9058 70.5603 30.3059 71.7761C27.9662 72.9274 25.3766 73.5729 22.6469 73.5729ZM33.3055 75.0039C34.4253 74.3584 35.4952 73.6052 36.495 72.766C40.3245 75.9615 45.1339 77.8767 50.3432 77.8767C52.6728 77.8767 54.9225 77.5001 57.0322 76.79C56.5323 78.802 56.2624 80.9109 56.2624 83.0843C56.2624 85.3545 56.5623 87.5601 57.1022 89.6475C54.9625 88.9266 52.6928 88.5393 50.3432 88.5393C44.5439 88.5393 39.2447 90.9063 35.2352 94.7797C33.0255 91.4874 31.7057 87.4526 31.7057 83.0843C31.7057 80.2115 32.2856 77.4786 33.3055 75.0039ZM31.7057 112.899C31.7057 108.53 33.0255 104.506 35.2352 101.203C39.2447 105.077 44.5439 107.444 50.3432 107.444C52.7028 107.444 54.9725 107.056 57.1022 106.335C56.5623 108.423 56.2624 110.628 56.2624 112.899C56.2624 115.061 56.5323 117.149 57.0222 119.15C54.9125 118.45 52.6628 118.063 50.3432 118.063C45.1239 118.063 40.3245 119.978 36.495 123.174C35.4852 122.335 34.4153 121.571 33.2755 120.925C32.2756 118.461 31.7057 115.75 31.7057 112.899ZM4.00946 142.422C4.00946 131.362 12.3683 122.367 22.6469 122.367C25.3666 122.367 27.9462 123.012 30.2759 124.142C30.8758 125.38 31.5757 126.552 32.3556 127.661C29.446 131.76 27.7062 136.871 27.7062 142.422C27.7062 148.663 29.9059 154.365 33.5054 158.68C30.4459 161.058 26.6964 162.478 22.6369 162.478C12.3683 162.478 4.00946 153.483 4.00946 142.422ZM68.9806 142.422C68.9806 153.483 60.6218 162.478 50.3432 162.478C46.2837 162.478 42.5442 161.058 39.4746 158.68C43.0741 154.365 45.2738 148.663 45.2738 142.422C45.2738 140.367 45.0339 138.366 44.5839 136.462C46.4237 136.978 48.3534 137.258 50.3332 137.258C55.7424 137.258 60.7117 135.203 64.6112 131.781C65.3911 132.47 66.211 133.094 67.0709 133.664C68.2907 136.311 68.9806 139.281 68.9806 142.422ZM78.9093 132.954C75.7297 132.954 72.7401 132.093 70.1205 130.576C69.5905 129.554 69.0006 128.586 68.3407 127.661C71.2503 123.561 72.9901 118.45 72.9901 112.899C72.9901 110.628 72.6901 108.423 72.1502 106.335C74.2899 107.056 76.5596 107.444 78.9093 107.444C81.2689 107.444 83.5486 107.056 85.6883 106.325V121.205C85.6883 124.594 86.0683 127.886 86.7582 131.061C84.3585 132.266 81.7089 132.954 78.9093 132.954ZM177.036 164.63H200.743C200.743 170.87 202.942 176.573 206.542 180.887C203.482 183.265 199.733 184.685 195.673 184.685C185.405 184.685 177.036 175.691 177.036 164.63ZM242.017 164.63C242.017 175.691 233.658 184.685 223.38 184.685C219.32 184.685 215.581 183.265 212.511 180.887C216.111 176.573 218.31 170.87 218.31 164.63H242.017ZM256.165 79.7811C250.266 79.7811 245.487 74.6381 245.487 68.2901C245.487 61.942 250.266 56.799 256.165 56.799C262.064 56.799 266.844 61.942 266.844 68.2901C266.844 74.6381 262.064 79.7811 256.165 79.7811Z" fill="white"/>
</svg>
