<svg width="296" height="190" viewBox="0 0 296 190" fill="none" xmlns="http://www.w3.org/2000/svg">
<path d="M276.69 120.916H295.94V78.9864C295.94 56.7964 277.78 38.6364 255.59 38.6364H230.73L193.16 0.826352C192.38 0.0463523 191.12 0.036352 190.33 0.816352C189.55 1.59635 189.54 2.85635 190.32 3.64635L225.09 38.6364H212.88L175.31 0.826352C174.53 0.0463523 173.27 0.036352 172.48 0.816352C171.7 1.59635 171.69 2.85635 172.47 3.64635L207.24 38.6364H195.03L157.46 0.826352C156.68 0.0463523 155.42 0.036352 154.63 0.816352C153.85 1.59635 153.84 2.85635 154.62 3.64635L189.39 38.6364H177.18L139.61 0.826352C138.83 0.0463523 137.57 0.036352 136.78 0.816352C136 1.59635 135.99 2.85635 136.77 3.64635L171.54 38.6364H159.33L121.76 0.826352C120.98 0.0463523 119.72 0.036352 118.93 0.816352C118.15 1.59635 118.14 2.85635 118.92 3.64635L153.69 38.6364H127.95C111.23 38.6364 96.8 48.9464 90.7 63.5264L2.98 15.1264C2.06 14.6164 0.9 14.9064 0.33 15.7964C-0.24 16.6864 -0.02 17.8564 0.82 18.4864L79.32 76.5863L2.7 48.2264C1.71 47.8564 0.61 48.3264 0.18 49.2864C-0.25 50.2464 0.14 51.3764 1.07 51.8664L78.98 93.0964L2.3 81.7564C1.25 81.5964 0.26 82.2964 0.05 83.3264C-0.16 84.3564 0.47 85.3864 1.49 85.6664L77.58 105.976L1.85 111.806C0.8 111.886 0 112.766 0 113.816C0.01 114.866 0.82 115.736 1.87 115.796L75.6 120.566L3.85 140.356C2.84 140.636 2.21 141.646 2.42 142.676C2.63 143.706 3.6 144.396 4.64 144.266L80.91 134.326L1.06 177.306C0.13 177.806 -0.25 178.936 0.19 179.896C0.52 180.626 1.25 181.066 2.01 181.066C2.25 181.066 2.48 181.026 2.72 180.936L92.39 147.046C99.21 159.716 112.62 168.386 127.95 168.386H190.42L173.11 185.586C172.33 186.366 172.32 187.626 173.1 188.416C173.49 188.806 174 189.006 174.52 189.006C175.03 189.006 175.54 188.816 175.93 188.426L196.09 168.386H209.03L191.72 185.586C190.94 186.366 190.93 187.626 191.71 188.416C192.1 188.806 192.61 189.006 193.13 189.006C193.64 189.006 194.15 188.816 194.54 188.426L214.7 168.386H255.59C276.81 168.386 294.32 151.786 295.83 130.936H276.69C273.93 130.936 271.68 128.686 271.68 125.926C271.68 123.166 273.94 120.916 276.69 120.916ZM27.35 33.1464L89.32 67.3363C88.31 70.6463 87.73 74.1464 87.62 77.7464L27.35 33.1464ZM29.64 62.4564L87.6 83.9064V93.1264L29.64 62.4564ZM36.4 90.8464L87.59 98.4264V104.516L36.4 90.8464ZM30.32 113.626L87.59 109.216V117.326L30.32 113.626ZM32.51 136.596L87.59 121.406V128.036C87.59 128.496 87.61 128.956 87.63 129.416L32.51 136.596ZM29.5 166.546L88.2 134.946C88.71 137.896 89.54 140.736 90.67 143.426L29.5 166.546ZM258.1 89.5364C252.2 89.5364 247.42 84.7564 247.42 78.8564C247.42 72.9564 252.2 68.1764 258.1 68.1764C264 68.1764 268.78 72.9564 268.78 78.8564C268.78 84.7564 264 89.5364 258.1 89.5364Z" fill="white"/>
</svg>
