<svg width="329" height="273" viewBox="0 0 329 273" fill="none" xmlns="http://www.w3.org/2000/svg">
<rect x="65.4062" y="62.2415" width="253.237" height="157.297" rx="51" fill="#E72174"/>
<circle cx="272.347" cy="111.885" r="11.7136" fill="black"/>
<line x1="323.185" y1="168.144" x2="295.139" y2="168.144" stroke="black" stroke-width="11" stroke-linecap="round" stroke-linejoin="round"/>
<path d="M238.322 65.5883C233.302 61.4978 226.274 49.6354 238.322 34.9097C250.371 20.184 243.343 6.83419 238.322 2" stroke="#E72174" stroke-width="4" stroke-linecap="round" stroke-linejoin="round"/>
<path d="M238.322 270.856C233.302 266.765 226.274 254.903 238.322 240.177C250.371 225.451 243.343 212.102 238.322 207.267" stroke="#E72174" stroke-width="4" stroke-linecap="round" stroke-linejoin="round"/>
<path d="M222.663 65.5883C217.643 61.4978 210.615 49.6354 222.663 34.9097C234.712 20.184 227.683 6.83419 222.663 2" stroke="#E72174" stroke-width="4" stroke-linecap="round" stroke-linejoin="round"/>
<path d="M222.663 270.856C217.643 266.765 210.615 254.903 222.663 240.177C234.712 225.451 227.683 212.102 222.663 207.267" stroke="#E72174" stroke-width="4" stroke-linecap="round" stroke-linejoin="round"/>
<path d="M207.003 65.5883C201.983 61.4978 194.955 49.6354 207.003 34.9097C219.051 20.184 212.023 6.83419 207.003 2" stroke="#E72174" stroke-width="4" stroke-linecap="round" stroke-linejoin="round"/>
<path d="M207.003 270.856C201.983 266.765 194.955 254.903 207.003 240.177C219.051 225.451 212.023 212.102 207.003 207.267" stroke="#E72174" stroke-width="4" stroke-linecap="round" stroke-linejoin="round"/>
<path d="M191.344 65.5883C186.324 61.4978 179.296 49.6354 191.344 34.9097C203.392 20.184 196.364 6.83419 191.344 2" stroke="#E72174" stroke-width="4" stroke-linecap="round" stroke-linejoin="round"/>
<path d="M175.684 65.5883C170.664 61.4978 163.635 49.6354 175.684 34.9097C187.732 20.184 180.704 6.83419 175.684 2" stroke="#E72174" stroke-width="4" stroke-linecap="round" stroke-linejoin="round"/>
<path d="M160.025 65.5883C155.004 61.4978 147.976 49.6354 160.025 34.9097C172.073 20.184 165.045 6.83419 160.025 2" stroke="#E72174" stroke-width="4" stroke-linecap="round" stroke-linejoin="round"/>
<path d="M144.365 65.5883C139.345 61.4978 132.317 49.6354 144.365 34.9097C156.414 20.184 149.386 6.83419 144.365 2" stroke="#E72174" stroke-width="4" stroke-linecap="round" stroke-linejoin="round"/>
<path d="M69.3114 106.307C70.2411 98.6839 64.7375 82.6567 35.2861 79.533C5.83473 76.4094 1.07491 62.9852 2.37643 56.6636" stroke="#E72174" stroke-width="4" stroke-linecap="round" stroke-linejoin="round"/>
<path d="M70.0595 174.915C70.9891 182.539 65.4856 198.566 36.0342 201.689C6.58278 204.813 1.82296 218.237 3.12447 224.559" stroke="#E72174" stroke-width="4" stroke-linecap="round" stroke-linejoin="round"/>
<path d="M69.3114 128.619C70.2411 120.996 64.7375 104.968 35.2861 101.845C5.83473 98.721 1.07491 85.2969 2.37643 78.9752" stroke="#E72174" stroke-width="4" stroke-linecap="round" stroke-linejoin="round"/>
<path d="M70.0595 152.604C70.9891 160.227 65.4856 176.254 36.0342 179.378C6.58278 182.501 1.82296 195.926 3.12447 202.247" stroke="#E72174" stroke-width="4" stroke-linecap="round" stroke-linejoin="round"/>
<path d="M69.3114 150.93C70.2411 143.307 64.7375 127.28 35.2861 124.156C5.83473 121.033 1.07491 107.609 2.37643 101.287" stroke="#E72174" stroke-width="4" stroke-linecap="round" stroke-linejoin="round"/>
<path d="M70.0595 130.292C70.9891 137.915 65.4856 153.942 36.0342 157.066C6.58278 160.19 1.82296 173.614 3.12447 179.936" stroke="#E72174" stroke-width="4" stroke-linecap="round" stroke-linejoin="round"/>
</svg>
