<svg width="369" height="231" viewBox="0 0 369 231" fill="none" xmlns="http://www.w3.org/2000/svg">
<rect x="106.586" y="47.3571" width="253.237" height="157.297" rx="51" fill="white"/>
<circle cx="313.527" cy="97.0005" r="11.7136" fill="black"/>
<line x1="275.557" y1="47.3571" x2="231.531" y2="3.33098" stroke="white" stroke-width="4" stroke-linecap="round" stroke-linejoin="round"/>
<line x1="2" y1="-2" x2="64.2623" y2="-2" transform="matrix(0.707107 -0.707107 -0.707107 -0.707107 210.335 228.082)" stroke="white" stroke-width="4" stroke-linecap="round" stroke-linejoin="round"/>
<line x1="254.361" y1="47.3571" x2="210.335" y2="3.33098" stroke="white" stroke-width="4" stroke-linecap="round" stroke-linejoin="round"/>
<line x1="2" y1="-2" x2="64.2623" y2="-2" transform="matrix(0.707107 -0.707107 -0.707107 -0.707107 231.531 228.082)" stroke="white" stroke-width="4" stroke-linecap="round" stroke-linejoin="round"/>
<line x1="233.166" y1="47.3571" x2="189.14" y2="3.33098" stroke="white" stroke-width="4" stroke-linecap="round" stroke-linejoin="round"/>
<line x1="211.969" y1="47.3571" x2="167.943" y2="3.33098" stroke="white" stroke-width="4" stroke-linecap="round" stroke-linejoin="round"/>
<line x1="190.773" y1="47.3571" x2="146.747" y2="3.33098" stroke="white" stroke-width="4" stroke-linecap="round" stroke-linejoin="round"/>
<path d="M2.83691 23.372L119.973 91.4226V174.534L2.83691 218.041L114.953 159.473L2.83691 174.534L114.953 145.528L2.83691 138.835L114.953 133.257L2.83691 103.136L114.953 120.986L2.83691 63.533L114.953 103.136L2.83691 23.372Z" stroke="white" stroke-width="4" stroke-linejoin="round"/>
<line x1="362.546" y1="152.5" x2="334.5" y2="152.5" stroke="black" stroke-width="11" stroke-linecap="round" stroke-linejoin="round"/>
</svg>
