<svg width="366" height="211" viewBox="0 0 366 211" fill="none" xmlns="http://www.w3.org/2000/svg">
<rect x="102.355" y="26.3185" width="253.237" height="157.297" rx="51" fill="#FAB334"/>
<circle cx="309.296" cy="75.9619" r="11.7136" fill="black"/>
<line x1="360.133" y1="132.221" x2="332.087" y2="132.221" stroke="black" stroke-width="11" stroke-linecap="round" stroke-linejoin="round"/>
<circle cx="270.808" cy="26.8763" r="24.774" stroke="#FAB334" stroke-width="4"/>
<circle cx="61.0785" cy="159.631" r="24.774" transform="rotate(90 61.0785 159.631)" stroke="#FAB334" stroke-width="4"/>
<circle cx="27.6108" cy="159.631" r="24.774" transform="rotate(90 27.6108 159.631)" stroke="#FAB334" stroke-width="4"/>
<circle cx="270.808" cy="184.174" r="24.774" stroke="#FAB334" stroke-width="4"/>
<circle cx="237.34" cy="26.8763" r="24.774" stroke="#FAB334" stroke-width="4"/>
<circle cx="61.0785" cy="126.163" r="24.774" transform="rotate(90 61.0785 126.163)" stroke="#FAB334" stroke-width="4"/>
<circle cx="96.7768" cy="126.163" r="24.774" transform="rotate(90 96.7768 126.163)" stroke="#FAB334" stroke-width="4"/>
<circle cx="237.34" cy="184.174" r="24.774" stroke="#FAB334" stroke-width="4"/>
<circle cx="203.873" cy="26.8763" r="24.774" stroke="#FAB334" stroke-width="4"/>
<circle cx="61.0785" cy="92.6958" r="24.774" transform="rotate(90 61.0785 92.6958)" stroke="#FAB334" stroke-width="4"/>
<circle cx="96.7768" cy="92.6958" r="24.774" transform="rotate(90 96.7768 92.6958)" stroke="#FAB334" stroke-width="4"/>
<circle cx="170.406" cy="26.8763" r="24.774" stroke="#FAB334" stroke-width="4"/>
<circle cx="61.0785" cy="59.2282" r="24.774" transform="rotate(90 61.0785 59.2282)" stroke="#FAB334" stroke-width="4"/>
<circle cx="27.6108" cy="59.2282" r="24.774" transform="rotate(90 27.6108 59.2282)" stroke="#FAB334" stroke-width="4"/>
</svg>
