<svg width="295" height="177" viewBox="0 0 295 177" fill="none" xmlns="http://www.w3.org/2000/svg">
<path d="M275.69 106.296H294.94V64.3663C294.94 42.1763 276.78 24.0163 254.59 24.0163H246.4C246.41 23.8063 246.42 23.6063 246.42 23.3963C246.42 10.9163 236.26 0.756348 223.78 0.756348C218.91 0.756348 214.39 2.30634 210.69 4.93634C206.99 2.30634 202.48 0.756348 197.6 0.756348C192.72 0.756348 188.21 2.30634 184.51 4.93634C180.81 2.30634 176.3 0.756348 171.42 0.756348C166.54 0.756348 162.03 2.30634 158.33 4.93634C154.63 2.30634 150.12 0.756348 145.24 0.756348C132.76 0.756348 122.6 10.9163 122.6 23.3963C122.6 23.6863 122.61 23.9663 122.62 24.2563C105 26.1463 90.6904 39.4963 87.3304 56.6463C84.9704 55.8163 82.4404 55.3563 79.8004 55.3563C77.4704 55.3563 75.2204 55.7063 73.1104 56.3663C73.6104 54.4963 73.8804 52.5363 73.8804 50.5163C73.8804 38.0363 63.7204 27.8763 51.2404 27.8763C46.0204 27.8763 41.2204 29.6563 37.3904 32.6263C33.5604 29.6563 28.7504 27.8763 23.5404 27.8763C11.0604 27.8763 0.900391 38.0363 0.900391 50.5163C0.900391 62.9963 11.0604 73.1563 23.5404 73.1563C25.5304 73.1563 27.4604 72.8963 29.3004 72.4063C28.8404 74.1963 28.6004 76.0663 28.6004 77.9963C28.6004 83.2163 30.3804 88.0163 33.3504 91.8463C30.3804 95.6763 28.6004 100.486 28.6004 105.696C28.6004 107.606 28.8404 109.466 29.2904 111.236C27.4504 110.756 25.5204 110.496 23.5404 110.496C11.0604 110.496 0.900391 120.656 0.900391 133.136C0.900391 145.616 11.0604 155.776 23.5404 155.776C28.7604 155.776 33.5604 153.996 37.3904 151.026C41.2204 153.996 46.0304 155.776 51.2404 155.776C63.7204 155.776 73.8804 145.616 73.8804 133.136C73.8804 131.126 73.6104 129.186 73.1204 127.326C75.2304 127.976 77.4804 128.336 79.8004 128.336C82.9904 128.336 86.0204 127.676 88.7704 126.476C94.2304 142.316 109.3 153.776 126.93 153.776H173.95C173.95 166.256 184.11 176.416 196.59 176.416C201.81 176.416 206.61 174.636 210.44 171.666C214.27 174.636 219.08 176.416 224.29 176.416C236.77 176.416 246.93 166.256 246.93 153.776H254.57C275.79 153.776 293.3 137.176 294.81 116.326H275.67C272.91 116.326 270.66 114.076 270.66 111.316C270.66 108.556 272.94 106.296 275.69 106.296ZM215.24 153.766C215.24 158.546 213.42 162.896 210.45 166.196C207.48 162.896 205.66 158.546 205.66 153.766H215.24ZM152.79 23.3864C152.79 18.2064 154.92 13.5163 158.34 10.1263C161.77 13.5063 163.89 18.1964 163.89 23.3864C163.89 23.5964 163.87 23.7963 163.86 24.0063H152.81C152.82 23.7963 152.79 23.5964 152.79 23.3864ZM178.96 23.3864C178.96 18.2064 181.09 13.5163 184.51 10.1263C187.94 13.5063 190.06 18.1964 190.06 23.3864C190.06 23.5964 190.04 23.7963 190.03 24.0063H178.98C178.99 23.7963 178.96 23.5964 178.96 23.3864ZM205.14 23.3864C205.14 18.2064 207.27 13.5163 210.69 10.1263C214.12 13.5063 216.24 18.1964 216.24 23.3864C216.24 23.5964 216.22 23.7963 216.21 24.0063H205.16C205.16 23.7963 205.14 23.5964 205.14 23.3864ZM242.42 23.3864C242.42 23.5964 242.4 23.7963 242.39 24.0063H220.23C220.24 23.7963 220.25 23.5964 220.25 23.3864C220.25 17.2664 217.81 11.7164 213.85 7.63635C216.73 5.81635 220.13 4.74634 223.78 4.74634C234.05 4.74634 242.42 13.1064 242.42 23.3864ZM207.53 7.63635C203.58 11.7164 201.13 17.2664 201.13 23.3864C201.13 23.5964 201.14 23.8063 201.15 24.0063H194.05C194.06 23.7963 194.07 23.5964 194.07 23.3864C194.07 17.2664 191.63 11.7164 187.67 7.63635C190.55 5.81635 193.95 4.74634 197.6 4.74634C201.25 4.74634 204.65 5.81635 207.53 7.63635ZM181.36 7.63635C177.41 11.7164 174.96 17.2664 174.96 23.3864C174.96 23.5964 174.97 23.8063 174.98 24.0063H167.88C167.89 23.7963 167.9 23.5964 167.9 23.3864C167.9 17.2664 165.46 11.7164 161.5 7.63635C164.38 5.81635 167.78 4.74634 171.43 4.74634C175.08 4.74634 178.48 5.81635 181.36 7.63635ZM126.62 23.3864C126.62 13.1064 134.98 4.74634 145.26 4.74634C148.91 4.74634 152.31 5.81635 155.19 7.63635C151.24 11.7164 148.79 17.2664 148.79 23.3864C148.79 23.5964 148.8 23.8063 148.81 24.0063H126.95C126.85 24.0063 126.76 24.0163 126.66 24.0163C126.65 23.8063 126.62 23.5964 126.62 23.3864ZM69.8904 105.686C69.8904 109.666 68.6204 113.356 66.4804 116.396C65.4304 115.436 64.2804 114.576 63.0704 113.826C61.8704 111.366 61.1704 108.606 61.1704 105.686C61.1704 102.616 61.9304 99.7164 63.2504 97.1664C64.0404 96.6664 64.8004 96.1263 65.5304 95.5363C66.2504 96.1263 67.0104 96.6664 67.8104 97.1664C69.1304 99.7164 69.8904 102.616 69.8904 105.686ZM42.1904 133.126C42.1904 137.906 40.3704 142.256 37.4004 145.556C34.4304 142.256 32.6104 137.906 32.6104 133.126C32.6104 129.146 33.8804 125.456 36.0204 122.416C37.4104 123.676 38.9504 124.776 40.6204 125.666C41.6204 127.956 42.1904 130.476 42.1904 133.126ZM40.3904 118.006C43.4504 115.796 47.2004 114.476 51.2604 114.476C54.4404 114.476 57.4304 115.276 60.0504 116.686C60.7904 118.016 61.6604 119.256 62.6504 120.396C59.5004 122.836 55.5504 124.316 51.2604 124.316C48.5404 124.316 45.9604 123.716 43.6304 122.666C42.7404 120.986 41.6504 119.416 40.3904 118.006ZM61.1804 77.9763C61.1804 75.0363 61.8804 72.2563 63.1104 69.7763C64.3104 69.0363 65.4404 68.1863 66.4804 67.2463C68.6304 70.2863 69.9004 73.9763 69.9004 77.9763C69.9004 81.0463 69.1404 83.9463 67.8204 86.4963C67.0304 86.9963 66.2704 87.5363 65.5404 88.1263C64.8204 87.5363 64.0604 86.9963 63.2604 86.4963C61.9404 83.9463 61.1804 81.0563 61.1804 77.9763ZM37.4004 38.0763C40.3704 41.3763 42.1904 45.7263 42.1904 50.5063C42.1904 53.1763 41.6104 55.7163 40.6004 58.0163C38.9504 58.8963 37.4204 59.9863 36.0404 61.2363C33.8904 58.1963 32.6204 54.5063 32.6204 50.5063C32.6104 45.7263 34.4304 41.3763 37.4004 38.0763ZM43.5904 61.0063C45.9304 59.9463 48.5204 59.3363 51.2504 59.3363C55.5404 59.3363 59.4804 60.8063 62.6404 63.2563C61.6704 64.3863 60.8104 65.6064 60.0804 66.9164C57.4504 68.3364 54.4504 69.1463 51.2604 69.1463C47.2004 69.1463 43.4604 67.8263 40.3904 65.6163C41.6404 64.2263 42.7104 62.6763 43.5904 61.0063ZM61.9304 91.8363C61.3304 92.6163 60.7704 93.4363 60.2704 94.2863C57.6004 95.7763 54.5204 96.6263 51.2504 96.6263C46.4704 96.6263 42.1204 94.8063 38.8204 91.8363C42.1204 88.8663 46.4704 87.0463 51.2504 87.0463C54.5204 87.0463 57.5904 87.8964 60.2704 89.3864C60.7704 90.2364 61.3204 91.0563 61.9304 91.8363ZM69.1404 91.8363C69.7404 91.0563 70.3004 90.2364 70.8004 89.3864C73.4704 87.8964 76.5504 87.0463 79.8204 87.0463C82.2104 87.0463 84.4904 87.5163 86.6004 88.3363V95.3263C84.5004 96.1463 82.2204 96.6163 79.8204 96.6163C76.5504 96.6163 73.4804 95.7663 70.8004 94.2763C70.3004 93.4263 69.7404 92.6063 69.1404 91.8363ZM79.8204 59.3363C82.2804 59.3363 84.6204 59.8264 86.7704 60.6964C86.6604 61.9064 86.6004 63.1263 86.6004 64.3563V84.0763C84.4604 83.4063 82.1804 83.0363 79.8204 83.0363C77.4604 83.0363 75.1904 83.3963 73.0604 84.0663C73.6004 82.1263 73.9004 80.0863 73.9004 77.9663C73.9004 72.8063 72.1604 68.0363 69.2404 64.2263C69.8904 63.3763 70.4804 62.4863 71.0004 61.5563C73.6204 60.1463 76.6204 59.3363 79.8204 59.3363ZM69.8904 50.4963C69.8904 53.4363 69.1904 56.2164 67.9704 58.6964C67.1204 59.2164 66.3104 59.7963 65.5404 60.4263C61.6404 57.2463 56.6704 55.3363 51.2604 55.3363C49.2704 55.3363 47.3404 55.5963 45.5004 56.0863C45.9604 54.2963 46.2004 52.4263 46.2004 50.4963C46.2004 44.6963 44.0004 39.3964 40.4004 35.3864C43.4604 33.1764 47.2104 31.8563 51.2704 31.8563C61.5304 31.8563 69.8904 40.2263 69.8904 50.4963ZM23.5504 69.1364C13.2704 69.1364 4.91039 60.7763 4.91039 50.4963C4.91039 40.2163 13.2704 31.8563 23.5504 31.8563C27.6104 31.8563 31.3504 33.1764 34.4204 35.3864C30.8204 39.3964 28.6204 44.6963 28.6204 50.4963C28.6204 55.6563 30.3604 60.4263 33.2804 64.2363C32.5004 65.2463 31.8104 66.3363 31.2104 67.4663C28.8704 68.5363 26.2804 69.1364 23.5504 69.1364ZM34.2104 70.4663C35.3304 69.8663 36.4004 69.1664 37.4004 68.3864C41.2304 71.3564 46.0404 73.1364 51.2504 73.1364C53.5804 73.1364 55.8304 72.7863 57.9404 72.1263C57.4404 73.9963 57.1704 75.9563 57.1704 77.9763C57.1704 80.0863 57.4704 82.1363 58.0104 84.0763C55.8704 83.4063 53.6004 83.0463 51.2504 83.0463C45.4504 83.0463 40.1504 85.2463 36.1404 88.8463C33.9304 85.7863 32.6104 82.0363 32.6104 77.9763C32.6104 75.3063 33.1904 72.7663 34.2104 70.4663ZM32.6104 105.686C32.6104 101.626 33.9304 97.8863 36.1404 94.8163C40.1504 98.4163 45.4504 100.616 51.2504 100.616C53.6104 100.616 55.8804 100.256 58.0104 99.5863C57.4704 101.526 57.1704 103.576 57.1704 105.686C57.1704 107.696 57.4404 109.636 57.9304 111.496C55.8204 110.846 53.5704 110.486 51.2504 110.486C46.0304 110.486 41.2304 112.266 37.4004 115.236C36.3904 114.456 35.3204 113.746 34.1804 113.146C33.1804 110.856 32.6104 108.336 32.6104 105.686ZM4.91039 133.126C4.91039 122.846 13.2704 114.486 23.5504 114.486C26.2704 114.486 28.8504 115.086 31.1804 116.136C31.7804 117.286 32.4804 118.376 33.2604 119.406C30.3504 123.216 28.6104 127.966 28.6104 133.126C28.6104 138.926 30.8104 144.226 34.4104 148.236C31.3504 150.446 27.6004 151.766 23.5404 151.766C13.2704 151.766 4.91039 143.406 4.91039 133.126ZM69.8904 133.126C69.8904 143.406 61.5304 151.766 51.2504 151.766C47.1904 151.766 43.4504 150.446 40.3804 148.236C43.9804 144.226 46.1804 138.926 46.1804 133.126C46.1804 131.216 45.9404 129.356 45.4904 127.586C47.3304 128.066 49.2604 128.326 51.2404 128.326C56.6504 128.326 61.6204 126.416 65.5204 123.236C66.3004 123.876 67.1204 124.456 67.9804 124.986C69.2004 127.446 69.8904 130.206 69.8904 133.126ZM79.8204 124.326C76.6404 124.326 73.6504 123.526 71.0304 122.116C70.5004 121.166 69.9104 120.266 69.2504 119.406C72.1604 115.596 73.9004 110.846 73.9004 105.686C73.9004 103.576 73.6004 101.526 73.0604 99.5863C75.2004 100.256 77.4704 100.616 79.8204 100.616C82.1804 100.616 84.4604 100.256 86.6004 99.5763V113.406C86.6004 116.556 86.9804 119.616 87.6704 122.566C85.2704 123.686 82.6204 124.326 79.8204 124.326ZM177.96 153.766H201.67C201.67 159.566 203.87 164.866 207.47 168.876C204.41 171.086 200.66 172.406 196.6 172.406C186.33 172.406 177.96 164.046 177.96 153.766ZM242.95 153.766C242.95 164.046 234.59 172.406 224.31 172.406C220.25 172.406 216.51 171.086 213.44 168.876C217.04 164.866 219.24 159.566 219.24 153.766H242.95ZM257.1 74.9063C251.2 74.9063 246.42 70.1263 246.42 64.2263C246.42 58.3263 251.2 53.5463 257.1 53.5463C263 53.5463 267.78 58.3263 267.78 64.2263C267.78 70.1263 263 74.9063 257.1 74.9063Z" fill="white"/>
</svg>
