<svg width="200" height="1379" viewBox="0 0 200 1379" fill="none" xmlns="http://www.w3.org/2000/svg">
<path fill-rule="evenodd" clip-rule="evenodd" d="M72 170C72 125.653 43.1309 88.0475 3.16211 74.9512C14.2793 31.8453 53.4219 0 100 0C145.262 0 183.5 30.0699 195.828 71.3222C154.83 83.8068 125 121.92 125 167V1009C125 1054.37 155.209 1092.68 196.609 1104.91C185.193 1147.58 146.268 1179 100 1179C54.418 1179 15.959 1148.5 3.91406 1106.8C43.4922 1093.48 72 1056.07 72 1012V170Z" fill="white"/>
<path d="M171.36 1350.36L129.523 1320.21L144.45 1369.57L114.672 1327.47L112.762 1379L98.2694 1329.52L79.7297 1377.63L82.0877 1326.12L48.9313 1365.62L67.8916 1317.66L23.7038 1344.25L57.2049 1305.05L6.78434 1315.85L51.1928 1289.65L0 1283.5L50.5102 1273.13L4.08853 1250.68L55.2261 1257.29L18.6087 1220.98L64.8373 1243.84L41.9815 1197.61L78.2887 1234.23L71.6837 1183.09L94.1326 1229.51L104.495 1179L110.645 1230.19L136.852 1185.78L126.048 1236.2L165.251 1202.7L138.658 1246.89L186.617 1227.93L147.125 1261.09L198.635 1258.73L150.517 1277.27L200 1291.76L148.469 1293.67L190.568 1323.45L141.209 1308.52L171.36 1350.36Z" fill="white"/>
</svg>
