<svg width="167" height="1158" viewBox="0 0 167 1158" fill="none" xmlns="http://www.w3.org/2000/svg">
<rect width="167" height="990" rx="83.5" fill="white"/>
<path d="M143.085 1133.94L108.152 1108.62L120.616 1150.08L95.751 1114.71L94.1563 1158L82.055 1116.43L66.5743 1156.85L68.5432 1113.58L40.8577 1146.76L56.6895 1106.47L19.7927 1128.81L47.7661 1095.88L5.66492 1104.96L42.746 1082.94L0 1077.78L42.176 1069.07L3.41392 1050.21L46.1138 1055.76L15.5382 1025.26L54.1391 1044.46L35.0546 1005.63L65.3711 1036.39L59.8559 993.434L78.6008 1032.43L87.2536 990L92.3889 1033L114.271 995.699L105.25 1038.05L137.985 1009.91L115.78 1047.03L155.826 1031.1L122.849 1058.95L165.86 1056.97L125.682 1072.55L167 1084.72L123.972 1086.32L159.124 1111.34L117.91 1098.8L143.085 1133.94Z" fill="white"/>
</svg>
