<svg width="111" height="81" viewBox="0 0 111 81" fill="none" xmlns="http://www.w3.org/2000/svg">
<g clip-path="url(#clip0)">
<path d="M110.999 11.2357V2.27419C110.999 1.02296 109.925 0 108.59 0H6.04353C4.70931 0 3.63477 1.01451 3.63477 2.27419V11.2357V17.7708V40.4112C3.63477 41.7132 4.75408 42.7615 6.12412 42.7615C7.50311 42.7615 8.61347 41.7047 8.61347 40.4112V17.7623H18.2575V40.4112C18.2575 41.7132 19.3768 42.7615 20.7468 42.7615C22.1258 42.7615 23.2362 41.7047 23.2362 40.4112V17.7623H32.8802V40.4112C32.8802 41.7132 33.9995 42.7615 35.3695 42.7615C36.7485 42.7615 37.8589 41.7047 37.8589 40.4112V17.7623H47.5029V40.4112C47.5029 41.7132 48.6222 42.7615 49.9922 42.7615C51.3712 42.7615 52.4816 41.7047 52.4816 40.4112V17.7623H62.1256V40.4112C62.1256 41.7132 63.2449 42.7615 64.6149 42.7615C65.9939 42.7615 67.1043 41.7047 67.1043 40.4112V17.7623H76.7483V40.4112C76.7483 41.7132 77.8676 42.7615 79.2376 42.7615C80.6166 42.7615 81.727 41.7047 81.727 40.4112V17.7623H91.371V40.4112C91.371 41.7132 92.4903 42.7615 93.8603 42.7615C95.2393 42.7615 96.3497 41.7047 96.3497 40.4112V17.7623H105.994V40.4112C105.994 41.7132 107.113 42.7615 108.483 42.7615C109.862 42.7615 110.972 41.7047 110.972 40.4112L110.999 11.2357ZM42.0227 13.2478C39.1394 13.2478 36.8022 11.0412 36.8022 8.31897C36.8022 5.5967 39.1394 3.39015 42.0227 3.39015C44.9061 3.39015 47.2432 5.5967 47.2432 8.31897C47.2432 11.0412 44.8971 13.2478 42.0227 13.2478ZM70.0503 12.0557C68.4385 12.0557 67.1222 10.8214 67.1222 9.2912C67.1222 7.76944 68.4295 6.52667 70.0503 6.52667C71.6621 6.52667 72.9784 7.76099 72.9784 9.2912C72.9695 10.813 71.6621 12.0557 70.0503 12.0557Z" fill="white"/>
<path d="M0.196999 51.1484C0.322362 50.8017 0.510407 50.4974 0.770087 50.2522C1.02081 49.9986 1.31631 49.8126 1.68345 49.6689C2.05058 49.5252 2.43562 49.4575 2.88335 49.4575C3.34003 49.4575 3.74298 49.5252 4.10116 49.6689C4.45934 49.8126 4.75484 49.9986 4.99661 50.2522C5.23838 50.5058 5.43538 50.8017 5.5697 51.1484C5.69506 51.4865 5.75774 51.867 5.75774 52.2812C5.75774 52.6955 5.69506 53.0675 5.5697 53.4141C5.43538 53.7607 5.23838 54.0651 4.99661 54.3102C4.75484 54.547 4.45934 54.7499 4.10116 54.8936C3.74298 55.0373 3.34003 55.1049 2.88335 55.1049C2.43562 55.1049 2.05058 55.0373 1.68345 54.8936C1.31631 54.7499 1.02977 54.5554 0.770087 54.3102C0.519361 54.0566 0.322362 53.7607 0.196999 53.4141C0.071636 53.0675 0 52.687 0 52.2812C0 51.8754 0.071636 51.4865 0.196999 51.1484ZM1.60286 52.8646C1.64763 53.0675 1.71926 53.245 1.83567 53.3972C1.94313 53.5578 2.07744 53.6846 2.24758 53.7776C2.41772 53.8706 2.63262 53.9213 2.88335 53.9213C3.15198 53.9213 3.36689 53.8706 3.53703 53.7776C3.70716 53.6846 3.84148 53.5578 3.94894 53.4056C4.05639 53.2535 4.12803 53.0844 4.1728 52.8815C4.21757 52.6786 4.23548 52.4841 4.23548 52.2728C4.23548 52.0614 4.21757 51.867 4.1728 51.6641C4.12803 51.4612 4.05639 51.2836 3.94894 51.1315C3.84148 50.9793 3.70716 50.8609 3.53703 50.7595C3.36689 50.6665 3.14303 50.6327 2.88335 50.6327C2.63262 50.6327 2.41772 50.6834 2.24758 50.7764C2.07744 50.8694 1.94313 50.9962 1.83567 51.1484C1.71926 51.309 1.64763 51.4781 1.60286 51.681C1.55808 51.8754 1.52227 52.0783 1.52227 52.2812C1.52227 52.4757 1.55808 52.6786 1.60286 52.8646Z" fill="white"/>
<path d="M14.8816 51.1321C14.8368 51.0222 14.7741 50.9292 14.7025 50.8616C14.6219 50.7855 14.5234 50.7348 14.416 50.6925C14.2995 50.6587 14.1652 50.6418 14.0041 50.6418C13.7623 50.6418 13.5742 50.6925 13.422 50.8024C13.2698 50.9123 13.1534 51.0391 13.0817 51.1998C13.0011 51.3688 12.9564 51.5464 12.9206 51.7408C12.9026 51.9268 12.8758 52.1128 12.8758 52.2819C12.8758 52.451 12.8847 52.6454 12.9116 52.8314C12.9295 53.0343 12.9743 53.2034 13.0638 53.364C13.1355 53.5247 13.2429 53.6599 13.4041 53.7614C13.5563 53.8713 13.7533 53.922 14.0041 53.922C14.1742 53.922 14.3175 53.8882 14.4518 53.8206C14.5682 53.7614 14.6756 53.6769 14.7562 53.5923C14.8368 53.4909 14.9085 53.3894 14.9443 53.2795C14.9801 53.1781 14.998 53.0766 14.998 52.9921H16.5203C16.5203 53.0851 16.5113 53.195 16.4755 53.3302C16.4307 53.4824 16.377 53.6177 16.3054 53.7783C16.2337 53.9305 16.1263 54.0911 16.0099 54.2517C15.8755 54.4124 15.7233 54.5476 15.5353 54.6745C15.3472 54.8013 15.1323 54.9027 14.8816 54.9873C14.6309 55.0634 14.3264 55.1056 14.0041 55.1056C13.5832 55.1056 13.1981 55.0464 12.8668 54.9281C12.5355 54.8013 12.2669 54.6153 12.043 54.3786C11.8191 54.1418 11.649 53.8459 11.5326 53.4909C11.4162 53.1442 11.3535 52.7384 11.3535 52.2904C11.3535 51.8338 11.4162 51.428 11.5416 51.0814C11.6669 50.7432 11.846 50.4389 12.0788 50.2022C12.3116 49.9654 12.5892 49.7795 12.9116 49.6611C13.225 49.5343 13.6011 49.4751 13.9951 49.4751C14.1652 49.4751 14.3443 49.492 14.5324 49.5174C14.7115 49.5343 14.8905 49.585 15.0696 49.6442C15.2487 49.7118 15.4189 49.7964 15.589 49.8978C15.7502 49.9993 15.8935 50.1261 16.0367 50.2783C16.1621 50.4304 16.2695 50.608 16.3501 50.8109C16.4307 51.0138 16.4844 51.2505 16.5113 51.521H14.989C14.9622 51.3604 14.9353 51.2251 14.8816 51.1321Z" fill="white"/>
<path d="M25.4039 51.4685C25.7531 51.4685 26.0755 51.5023 26.3441 51.57C26.6127 51.6376 26.8455 51.7475 27.0336 51.8912C27.2216 52.0349 27.3739 52.2125 27.4724 52.4323C27.5709 52.6521 27.6246 52.9142 27.6246 53.2101C27.6246 53.4806 27.5798 53.7089 27.5082 53.9033C27.4276 54.1062 27.3201 54.2669 27.1948 54.3852C27.0694 54.5289 26.9172 54.6135 26.765 54.698C26.6038 54.7656 26.4426 54.8248 26.2993 54.8586C26.1471 54.9009 26.0038 54.9263 25.8785 54.9347C25.7531 54.9432 25.6456 54.9432 25.583 54.9432H22.4668V49.6255H23.9264V51.477H25.4039V51.4685ZM25.4845 53.8695C25.5919 53.861 25.6994 53.8188 25.7889 53.768C25.8695 53.7173 25.9501 53.6497 26.0038 53.5567C26.0665 53.4637 26.0844 53.3453 26.0844 53.2101C26.0844 53.0748 26.0665 52.9564 26.0038 52.8634C25.9501 52.7705 25.8785 52.7028 25.771 52.6521C25.6725 52.6014 25.5561 52.5591 25.4307 52.5422C25.3054 52.5253 25.1621 52.5084 25.0188 52.5084H23.9085V53.8949H25.1442C25.2606 53.8949 25.3681 53.8864 25.4845 53.8695Z" fill="white"/>
<path d="M36.623 53.4728L37.5543 49.6177H39.6944V54.9354H38.3244V50.6575H38.3065L37.2498 54.9354H35.9067L34.85 50.6575H34.8321V54.9354H33.4531V49.6177H35.6559L36.6051 53.4728H36.623Z" fill="white"/>
<path d="M47.4482 52.8979L49.4988 49.6177H51.0389V54.9354H49.5794V51.7228H49.5615L47.5736 54.9354H45.9707V49.6177H47.4303V52.8979H47.4482Z" fill="white"/>
<path d="M60.9261 51.5368V49.6177H62.3856V54.9354H60.9261V52.6527H58.777V54.9354H57.3174V49.6177H58.777V51.5368H60.9261Z" fill="white"/>
<path d="M68.5202 51.1484C68.6456 50.8017 68.8336 50.4974 69.0933 50.2522C69.3441 49.9986 69.6396 49.8126 70.0067 49.6689C70.3738 49.5252 70.7589 49.4575 71.2066 49.4575C71.6633 49.4575 72.0662 49.5252 72.4244 49.6689C72.7826 49.8126 73.0781 49.9986 73.3198 50.2522C73.5616 50.5058 73.7586 50.8017 73.8929 51.1484C74.0183 51.4865 74.081 51.867 74.081 52.2812C74.081 52.6955 74.0183 53.0675 73.8929 53.4141C73.7586 53.7607 73.5616 54.0651 73.3198 54.3102C73.0781 54.547 72.7826 54.7499 72.4244 54.8936C72.0662 55.0373 71.6633 55.1049 71.2066 55.1049C70.7589 55.1049 70.3738 55.0373 70.0067 54.8936C69.6396 54.7499 69.353 54.5554 69.0933 54.3102C68.8426 54.0566 68.6456 53.7607 68.5202 53.4141C68.3949 53.0759 68.3232 52.6955 68.3232 52.2812C68.3232 51.867 68.3949 51.4865 68.5202 51.1484ZM69.9171 52.8646C69.9619 53.0675 70.0335 53.245 70.15 53.3972C70.2574 53.5578 70.3917 53.6846 70.5619 53.7776C70.732 53.8706 70.9469 53.9213 71.1976 53.9213C71.4663 53.9213 71.6812 53.8706 71.8513 53.7776C72.0214 53.6846 72.1558 53.5578 72.2632 53.4056C72.3707 53.2535 72.4423 53.0844 72.4871 52.8815C72.5319 52.6786 72.5498 52.4841 72.5498 52.2728C72.5498 52.0614 72.5319 51.867 72.4871 51.6641C72.4423 51.4612 72.3707 51.2836 72.2632 51.1315C72.1558 50.9793 72.0214 50.8609 71.8513 50.7595C71.6812 50.6665 71.4573 50.6327 71.1976 50.6327C70.9469 50.6327 70.732 50.6834 70.5619 50.7764C70.3917 50.8694 70.2574 50.9962 70.15 51.1484C70.0335 51.309 69.9619 51.4781 69.9171 51.681C69.8813 51.8754 69.8455 52.0783 69.8455 52.2812C69.8455 52.4757 69.8813 52.6786 69.9171 52.8646Z" fill="white"/>
<path d="M87.9687 49.6177L86.0704 52.0779L88.0583 54.9354H86.2942L84.7451 52.6781H84.4675V54.9354H83.0079V52.6781H82.6945L81.1096 54.9354H79.4082L81.414 52.0779L79.5425 49.6177H81.217L82.7482 51.7312H83.0258V49.6177H84.4854V51.7312H84.763L86.3121 49.6177H87.9687Z" fill="white"/>
<path d="M97.3375 49.6177H99.2896L96.9614 51.8242L99.3881 54.9354H97.4808L95.8152 52.6866L95.2242 53.253V54.9354H93.7646V49.6177H95.2242V51.6382L97.3375 49.6177Z" fill="white"/>
<path d="M109.647 54.2764C109.656 54.3779 109.692 54.4624 109.718 54.5132C109.754 54.5808 109.781 54.6231 109.826 54.6569C109.871 54.6907 109.898 54.7076 109.951 54.7161V54.9359H108.331L108.25 54.6822C108.205 54.5808 108.196 54.4624 108.196 54.3103L107.865 54.6231C107.748 54.7161 107.632 54.7921 107.498 54.8598C107.363 54.9274 107.211 54.9866 107.032 55.0289C106.853 55.0711 106.638 55.0881 106.396 55.0881C106.146 55.0881 105.913 55.0542 105.698 54.9866C105.483 54.919 105.304 54.8091 105.143 54.6738C104.99 54.5301 104.865 54.361 104.785 54.1496C104.704 53.9467 104.659 53.71 104.659 53.4395C104.659 53.2197 104.695 53.0168 104.767 52.8308C104.838 52.6448 104.946 52.4841 105.071 52.3404C105.205 52.1967 105.367 52.0783 105.555 51.9938C105.743 51.8923 105.958 51.8332 106.199 51.8078L107.632 51.6049C107.686 51.5964 107.74 51.5964 107.802 51.5711C107.865 51.5626 107.919 51.5373 107.972 51.5034C108.026 51.4696 108.071 51.4358 108.098 51.3851C108.134 51.3259 108.151 51.2583 108.151 51.1653C108.151 51.0723 108.134 50.9962 108.107 50.9286C108.071 50.8525 108.026 50.7848 107.954 50.7426C107.883 50.6834 107.793 50.6411 107.677 50.6158C107.56 50.5819 107.417 50.5735 107.247 50.5735C107.05 50.5735 106.898 50.5904 106.781 50.6242C106.656 50.6665 106.558 50.7257 106.495 50.7848C106.423 50.8525 106.369 50.937 106.334 51.0131L106.271 51.3005H104.811C104.811 51.2414 104.82 51.1484 104.847 51.03C104.865 50.9201 104.91 50.7933 104.973 50.6496C105.026 50.5228 105.125 50.379 105.223 50.2438C105.322 50.1085 105.465 49.9732 105.653 49.8549C105.823 49.745 106.047 49.6435 106.298 49.5759C106.549 49.5082 106.853 49.466 107.211 49.4575C107.713 49.4575 108.125 49.5082 108.438 49.6012C108.742 49.7027 108.993 49.8295 109.172 49.9817C109.342 50.1423 109.459 50.3114 109.521 50.4974C109.575 50.6834 109.602 50.8778 109.602 51.0638V53.8791C109.62 54.0482 109.629 54.175 109.647 54.2764ZM107.892 52.4588C107.793 52.501 107.677 52.5349 107.534 52.5602L107.14 52.6279C106.969 52.6617 106.817 52.687 106.692 52.7293C106.566 52.7716 106.459 52.8223 106.378 52.8815C106.298 52.9491 106.226 53.0337 106.19 53.1182C106.146 53.2112 106.128 53.3211 106.128 53.4564C106.128 53.5663 106.146 53.6677 106.181 53.7438C106.226 53.8368 106.28 53.896 106.352 53.9552C106.414 54.0059 106.486 54.0566 106.575 54.0735C106.674 54.1074 106.763 54.1158 106.871 54.1158C106.925 54.1158 106.996 54.1074 107.086 54.0989C107.166 54.0904 107.256 54.0651 107.363 54.0397C107.462 53.9974 107.551 53.9636 107.65 53.896C107.748 53.8453 107.829 53.7692 107.901 53.6762C107.981 53.5832 108.053 53.4733 108.089 53.338C108.134 53.2112 108.16 53.059 108.16 52.8815V52.3404C108.071 52.3911 107.972 52.425 107.892 52.4588Z" fill="white"/>
<path d="M3.52807 63.1274C3.4833 63.0175 3.42062 62.9245 3.34898 62.8569C3.26839 62.7808 3.16989 62.7301 3.06244 62.6878C2.94603 62.654 2.81171 62.6371 2.65053 62.6371C2.40876 62.6371 2.22072 62.6878 2.06849 62.7977C1.91626 62.9076 1.79985 63.0344 1.72822 63.195C1.64763 63.3641 1.60286 63.5417 1.56704 63.7361C1.54913 63.9221 1.52227 64.1081 1.52227 64.2772C1.52227 64.4463 1.53122 64.6407 1.55808 64.8267C1.57599 65.0296 1.62076 65.1987 1.71031 65.3593C1.78195 65.5199 1.8894 65.6552 2.05058 65.7567C2.20281 65.8666 2.39981 65.9173 2.65053 65.9173C2.82067 65.9173 2.96394 65.8835 3.09826 65.8158C3.21467 65.7567 3.32212 65.6721 3.40271 65.5876C3.4833 65.4861 3.55494 65.3847 3.59076 65.2748C3.62657 65.1733 3.64448 65.0719 3.64448 64.9873H5.16675C5.16675 65.0803 5.15779 65.1902 5.12198 65.3255C5.0772 65.4777 5.02348 65.6129 4.95184 65.7736C4.8802 65.9258 4.77275 66.0864 4.65634 66.247C4.52202 66.4076 4.3698 66.5429 4.18175 66.6697C3.99371 66.7965 3.7788 66.898 3.52807 66.9825C3.27735 67.0586 2.97289 67.1009 2.65053 67.1009C2.22967 67.1009 1.84463 67.0417 1.51331 66.9234C1.18199 66.7881 0.913359 66.6105 0.689497 66.3654C0.465634 66.1287 0.295499 65.8328 0.17909 65.4777C0.0626815 65.1311 0 64.7252 0 64.2772C0 63.8206 0.0626815 63.4148 0.188045 63.0682C0.313408 62.73 0.492498 62.4257 0.725315 62.189C0.958132 61.9523 1.23572 61.7663 1.55808 61.6479C1.87149 61.5211 2.24758 61.4619 2.64158 61.4619C2.81171 61.4619 2.9908 61.4788 3.17885 61.5042C3.35794 61.5211 3.53703 61.5718 3.71612 61.631C3.89521 61.6986 4.06534 61.7832 4.23548 61.8846C4.39666 61.9861 4.53993 62.1129 4.68321 62.2651C4.80857 62.4172 4.91602 62.5948 4.99661 62.7977C5.0772 63.0006 5.13093 63.2373 5.15779 63.5078H3.63553C3.60866 63.3557 3.5818 63.2288 3.52807 63.1274Z" fill="white"/>
<path d="M15.6879 66.2815C15.6968 66.3829 15.7326 66.4675 15.7595 66.5182C15.7953 66.5858 15.8222 66.6281 15.8669 66.6619C15.9117 66.6957 15.9386 66.7126 15.9923 66.7211V66.9409H14.3715L14.291 66.6873C14.2462 66.5858 14.2372 66.4675 14.2372 66.3153L13.9059 66.6281C13.7895 66.7211 13.6731 66.7972 13.5388 66.8648C13.4045 66.9324 13.2522 66.9916 13.0731 67.0339C12.894 67.0762 12.6791 67.0931 12.4374 67.0931C12.1866 67.0931 11.9538 67.0593 11.7389 66.9916C11.524 66.924 11.3449 66.8141 11.1837 66.6788C11.0315 66.5351 10.9061 66.366 10.8256 66.1547C10.745 65.9517 10.7002 65.715 10.7002 65.4445C10.7002 65.2247 10.736 65.0218 10.8076 64.8358C10.8793 64.6498 10.9867 64.4892 11.1121 64.3454C11.2464 64.2017 11.4076 64.0834 11.5956 63.9988C11.7837 63.8974 11.9986 63.8382 12.2404 63.8128L13.6731 63.6099C13.7268 63.6015 13.7805 63.6015 13.8432 63.5761C13.9059 63.5677 13.9596 63.5423 14.0134 63.5085C14.0671 63.4747 14.1119 63.4408 14.1387 63.3901C14.1745 63.3309 14.1925 63.2633 14.1925 63.1703C14.1925 63.0773 14.1745 63.0012 14.1477 62.9336C14.1119 62.8575 14.0671 62.7899 13.9955 62.7391C13.9238 62.68 13.8343 62.6377 13.7179 62.6123C13.6015 62.5785 13.4582 62.5701 13.288 62.5701C13.091 62.5701 12.9388 62.587 12.8224 62.6208C12.697 62.6631 12.5986 62.7222 12.5359 62.7814C12.4642 62.849 12.4105 62.9336 12.3747 63.0097L12.312 63.2971H10.8524C10.8524 63.2379 10.8614 63.1449 10.8882 63.0266C10.9061 62.9167 10.9509 62.7899 11.0136 62.6461C11.0673 62.5193 11.1658 62.3756 11.2643 62.2403C11.3628 62.1051 11.5061 61.9698 11.6941 61.8515C11.8643 61.7415 12.0881 61.6401 12.3389 61.5725C12.5896 61.5048 12.894 61.4626 13.2522 61.4541C13.7537 61.4541 14.1656 61.5048 14.479 61.5978C14.7834 61.6993 15.0342 61.8261 15.2133 61.9783C15.3834 62.1389 15.4998 62.308 15.5625 62.5024C15.6162 62.6884 15.6431 62.8829 15.6431 63.0689V65.8841C15.652 66.0447 15.661 66.18 15.6879 66.2815ZM13.9238 64.4553C13.8253 64.4976 13.7089 64.5314 13.5656 64.5568L13.1716 64.6244C13.0015 64.6583 12.8493 64.6836 12.7239 64.7259C12.5986 64.7682 12.4911 64.8189 12.4105 64.8781C12.3299 64.9457 12.2583 65.0302 12.2225 65.1148C12.1777 65.2078 12.1598 65.3177 12.1598 65.4529C12.1598 65.5629 12.1777 65.6643 12.2135 65.7404C12.2583 65.8334 12.312 65.8926 12.3836 65.9518C12.4463 66.0025 12.518 66.0532 12.6075 66.0701C12.706 66.1039 12.7955 66.1124 12.903 66.1124C12.9567 66.1124 13.0284 66.1039 13.1179 66.0955C13.1985 66.087 13.288 66.0617 13.3955 66.0363C13.494 65.994 13.5835 65.9602 13.682 65.8926C13.7805 65.8418 13.8611 65.7658 13.9328 65.6728C14.0134 65.5798 14.085 65.4699 14.1208 65.3346C14.1656 65.2078 14.1925 65.0556 14.1925 64.8781V64.337C14.1029 64.3877 14.0134 64.43 13.9238 64.4553Z" fill="white"/>
<path d="M24.0426 62.7395L24.0247 63.7286C24.0068 64.2866 23.962 64.777 23.9083 65.1997C23.8456 65.6224 23.7471 65.969 23.6217 66.248C23.4874 66.527 23.3083 66.7384 23.0845 66.8905C22.8606 67.0343 22.5651 67.1019 22.2159 67.1019C22.0457 67.1019 21.9114 67.0934 21.7771 67.085C21.6517 67.0681 21.5532 67.0343 21.4727 67.0089V65.8507C21.5264 65.8676 21.5891 65.8929 21.6607 65.9098C21.7323 65.9183 21.8219 65.9268 21.9293 65.9268C22.0457 65.9268 22.1442 65.8929 22.2248 65.8253C22.3054 65.7661 22.386 65.6562 22.4487 65.4871C22.5114 65.318 22.5562 65.0898 22.6009 64.7854C22.6367 64.4895 22.6547 64.1091 22.6636 63.6356L22.7084 61.6235H27.2394V66.9413H25.7887V62.7395H24.0426Z" fill="white"/>
<path d="M33.5075 63.1449C33.6329 62.7983 33.821 62.494 34.0806 62.2488C34.3314 61.9952 34.6269 61.8092 34.994 61.6655C35.3611 61.5217 35.7462 61.4541 36.1939 61.4541C36.6506 61.4541 37.0535 61.5217 37.4117 61.6655C37.7699 61.8092 38.0654 61.9952 38.3072 62.2488C38.5489 62.5024 38.7459 62.7983 38.8802 63.1449C39.0056 63.4831 39.0683 63.8636 39.0683 64.2778C39.0683 64.6921 39.0056 65.0641 38.8802 65.4107C38.7459 65.7573 38.5489 66.0617 38.3072 66.3068C38.0654 66.5435 37.7699 66.7464 37.4117 66.8902C37.0535 67.0339 36.6506 67.1015 36.1939 67.1015C35.7462 67.1015 35.3611 67.0339 34.994 66.8902C34.6269 66.7464 34.3403 66.552 34.0806 66.3068C33.8299 66.0532 33.6329 65.7573 33.5075 65.4107C33.3822 65.0725 33.3105 64.6921 33.3105 64.2778C33.3105 63.8636 33.3732 63.4916 33.5075 63.1449ZM34.9044 64.8696C34.9492 65.0725 35.0209 65.25 35.1373 65.4022C35.2447 65.5629 35.379 65.6897 35.5492 65.7827C35.7193 65.8757 35.9342 65.9264 36.1849 65.9264C36.4536 65.9264 36.6685 65.8757 36.8386 65.7827C37.0088 65.6897 37.1431 65.5629 37.2505 65.4107C37.358 65.2585 37.4296 65.0894 37.4744 64.8865C37.5192 64.6836 37.5371 64.4892 37.5371 64.2778C37.5371 64.0665 37.5192 63.872 37.4744 63.6691C37.4296 63.4662 37.358 63.2887 37.2505 63.1365C37.1431 62.9843 37.0088 62.866 36.8386 62.7645C36.6685 62.6715 36.4446 62.6377 36.1849 62.6377C35.9342 62.6377 35.7193 62.6884 35.5492 62.7814C35.379 62.8744 35.2447 63.0012 35.1373 63.1534C35.0209 63.314 34.9492 63.4831 34.9044 63.686C34.8597 63.8889 34.8328 64.0834 34.8328 64.2863C34.8239 64.4807 34.8597 64.6752 34.9044 64.8696Z" fill="white"/>
<path d="M48.6038 63.5426V61.6235H50.0634V66.9412H48.6038V64.6586H46.4547V66.9412H44.9951V61.6235H46.4547V63.5426H48.6038Z" fill="white"/>
<path d="M3.94963 73.6201H5.90172L3.57354 75.8267L6.00021 78.9378H4.08395L2.43632 76.689L1.84533 77.2554V78.9378H0.385742V73.6201H1.84533V75.6407L3.94963 73.6201Z" fill="white"/>
<path d="M13.0574 74.38C13.1559 74.2194 13.2633 74.0841 13.3798 73.9573C13.4872 73.8474 13.6126 73.7459 13.7379 73.6783C13.8722 73.6107 14.0245 73.5515 14.1946 73.5177C14.3558 73.4754 14.5349 73.4585 14.7498 73.4585C14.9199 73.4585 15.099 73.4754 15.2781 73.5177C15.4572 73.5599 15.6363 73.6191 15.8154 73.7121C15.9855 73.7882 16.1556 73.915 16.2989 74.0418C16.4601 74.1856 16.5944 74.3631 16.7108 74.5575C16.8272 74.7604 16.9257 74.9887 16.9884 75.2592C17.0601 75.5298 17.0959 75.8257 17.0959 76.1808C17.0959 76.6119 17.0511 77.0093 16.9436 77.3643C16.8451 77.7279 16.7019 78.0322 16.4959 78.2943C16.2989 78.5479 16.0482 78.7424 15.7527 78.8946C15.4482 79.0383 15.099 79.1059 14.6871 79.1059C14.5528 79.1059 14.4006 79.0975 14.2662 79.0636C14.114 79.0467 13.9797 78.996 13.8454 78.9368C13.6932 78.8777 13.5678 78.7847 13.4514 78.6832C13.326 78.5733 13.2186 78.4465 13.1201 78.2859H13.1022V81.0081H11.6426V73.6276H13.0395V74.3885H13.0574V74.38ZM13.72 74.8365C13.5588 74.938 13.4335 75.0563 13.335 75.2085C13.2275 75.3607 13.1648 75.5298 13.1111 75.7158C13.0663 75.9018 13.0484 76.0878 13.0484 76.2738C13.0484 76.3752 13.0484 76.4851 13.0663 76.6035C13.0753 76.7218 13.1022 76.8402 13.129 76.967C13.1738 77.0854 13.2096 77.2037 13.2813 77.3136C13.335 77.432 13.4066 77.5334 13.5051 77.6264C13.6036 77.7025 13.72 77.7786 13.8454 77.8378C13.9707 77.8885 14.1319 77.9139 14.311 77.9139C14.4901 77.9139 14.6513 77.8801 14.7767 77.8378C14.902 77.7786 15.0184 77.711 15.1169 77.6264C15.1975 77.5334 15.2871 77.4404 15.3497 77.3136C15.4035 77.2037 15.4482 77.0854 15.4841 76.967C15.5199 76.8486 15.5378 76.7303 15.5557 76.6035C15.5647 76.4851 15.5646 76.3752 15.5646 76.2738C15.5646 76.0878 15.5467 75.9018 15.502 75.7158C15.4482 75.5213 15.3856 75.3522 15.2871 75.2085C15.1796 75.0563 15.0542 74.938 14.8931 74.8365C14.7229 74.7435 14.5349 74.6928 14.3021 74.6928C14.0782 74.7013 13.8812 74.752 13.72 74.8365Z" fill="white"/>
<path d="M27.6146 78.2774C27.6236 78.3789 27.6594 78.4634 27.6862 78.5141C27.7221 78.5818 27.7489 78.624 27.7937 78.6579C27.8385 78.6917 27.8653 78.7086 27.9191 78.717V78.9368H26.2983L26.2177 78.6832C26.1729 78.5818 26.164 78.4634 26.164 78.3112L25.8327 78.624C25.7163 78.717 25.5998 78.7931 25.4655 78.8608C25.3312 78.9284 25.179 78.9876 24.9999 79.0298C24.8208 79.0721 24.6059 79.089 24.3641 79.089C24.1134 79.089 23.8806 79.0552 23.6657 78.9876C23.4508 78.9199 23.2717 78.81 23.1105 78.6748C22.9583 78.531 22.8329 78.362 22.7523 78.1506C22.6717 77.9477 22.627 77.711 22.627 77.4404C22.627 77.2206 22.6628 77.0177 22.7344 76.8317C22.806 76.6457 22.9135 76.4851 23.0389 76.3414C23.1732 76.1977 23.3344 76.0793 23.5224 75.9948C23.7104 75.8933 23.9254 75.8341 24.1671 75.8088L25.5998 75.6059C25.6536 75.5974 25.7073 75.5974 25.77 75.5721C25.8327 75.5636 25.8864 75.5382 25.9401 75.5044C25.9938 75.4706 26.0386 75.4368 26.0655 75.3861C26.1013 75.3269 26.1192 75.2593 26.1192 75.1663C26.1192 75.0733 26.1013 74.9972 26.0744 74.9295C26.0386 74.8534 25.9938 74.7858 25.9222 74.7435C25.8506 74.6844 25.761 74.6421 25.6446 74.6167C25.5282 74.5829 25.3849 74.5745 25.2148 74.5745C25.0178 74.5745 24.8656 74.5914 24.7492 74.6252C24.6238 74.6674 24.5253 74.7266 24.4626 74.7858C24.391 74.8534 24.3373 74.938 24.3014 75.0141L24.2388 75.3015H22.7792C22.7792 75.2423 22.7881 75.1493 22.815 75.031C22.8329 74.9211 22.8777 74.7943 22.9404 74.6505C22.9941 74.5237 23.0926 74.38 23.1911 74.2447C23.2896 74.1095 23.4329 73.9742 23.6209 73.8558C23.791 73.7459 24.0149 73.6445 24.2656 73.5769C24.5164 73.5092 24.8208 73.467 25.179 73.4585C25.6804 73.4585 26.0923 73.5092 26.4058 73.6022C26.7102 73.7037 26.9609 73.8305 27.14 73.9827C27.3102 74.1433 27.4266 74.3124 27.4892 74.4984C27.543 74.6844 27.5698 74.8788 27.5698 75.0648V77.8801C27.5788 78.0491 27.5877 78.176 27.6146 78.2774ZM25.8506 76.4598C25.7521 76.502 25.6357 76.5358 25.4924 76.5612L25.0984 76.6288C24.9283 76.6627 24.776 76.688 24.6507 76.7303C24.5253 76.7726 24.4179 76.8233 24.3373 76.8825C24.2567 76.9501 24.185 77.0346 24.1492 77.1192C24.1044 77.2122 24.0865 77.3221 24.0865 77.4574C24.0865 77.5673 24.1044 77.6687 24.1403 77.7448C24.185 77.8378 24.2388 77.897 24.3104 77.9561C24.3731 78.0069 24.4447 78.0576 24.5343 78.0745C24.6328 78.1083 24.7223 78.1168 24.8298 78.1168C24.8835 78.1168 24.9551 78.1083 25.0447 78.0999C25.1253 78.0914 25.2148 78.0661 25.3223 78.0407C25.4208 77.9984 25.5103 77.9646 25.6088 77.897C25.7073 77.8462 25.7879 77.7702 25.8595 77.6772C25.9401 77.5842 26.0118 77.4743 26.0476 77.339C26.0923 77.2122 26.1192 77.06 26.1192 76.8825V76.3414C26.0297 76.3837 25.9401 76.4259 25.8506 76.4598Z" fill="white"/>
<path d="M36.9753 75.1331C36.9306 75.0232 36.8679 74.9302 36.7963 74.8626C36.7157 74.7865 36.6172 74.7357 36.5097 74.6935C36.3933 74.6597 36.259 74.6428 36.0978 74.6428C35.856 74.6428 35.668 74.6935 35.5158 74.8034C35.3635 74.9133 35.2471 75.0401 35.1755 75.2007C35.0949 75.3698 35.0501 75.5474 35.0143 75.7418C34.9964 75.9278 34.9695 76.1138 34.9695 76.2829C34.9695 76.452 34.9785 76.6464 35.0054 76.8324C35.0233 77.0353 35.068 77.2044 35.1576 77.365C35.2292 77.5256 35.3367 77.6609 35.4978 77.7624C35.6501 77.8723 35.8471 77.923 36.0978 77.923C36.2679 77.923 36.4112 77.8892 36.5455 77.8215C36.6619 77.7624 36.7694 77.6778 36.85 77.5933C36.9306 77.4918 37.0022 77.3904 37.038 77.2805C37.0738 77.179 37.0917 77.0776 37.0917 76.993H38.614C38.614 77.086 38.6051 77.1959 38.5692 77.3312C38.5245 77.4834 38.4707 77.6186 38.3991 77.7793C38.3275 77.9314 38.22 78.0921 38.1036 78.2527C37.9693 78.4133 37.8171 78.5486 37.629 78.6754C37.441 78.8022 37.2261 78.9037 36.9753 78.9882C36.7246 79.0643 36.4202 79.1066 36.0978 79.1066C35.6769 79.1066 35.2919 79.0474 34.9606 78.929C34.6293 78.8022 34.3606 78.6162 34.1368 78.3795C33.9129 78.1428 33.7428 77.8469 33.6264 77.4918C33.5099 77.1452 33.4473 76.7394 33.4473 76.2913C33.4473 75.8348 33.5099 75.429 33.6353 75.0824C33.7607 74.7442 33.9398 74.4398 34.1726 74.2031C34.4054 73.9664 34.683 73.7804 35.0054 73.6621C35.3188 73.5352 35.6948 73.4761 36.0888 73.4761C36.259 73.4761 36.4381 73.493 36.6261 73.5183C36.8052 73.5352 36.9843 73.586 37.1634 73.6452C37.3425 73.7128 37.5126 73.7973 37.6827 73.8988C37.8439 74.0002 37.9872 74.127 38.1305 74.2792C38.2558 74.4314 38.3633 74.6089 38.4439 74.8118C38.5245 75.0147 38.5782 75.2515 38.6051 75.522H37.0828C37.0649 75.3614 37.0291 75.2261 36.9753 75.1331Z" fill="white"/>
<path d="M44.4138 75.1493C44.5392 74.8027 44.7272 74.4984 44.9869 74.2532C45.2376 73.9996 45.5331 73.8136 45.9002 73.6699C46.2674 73.5261 46.6524 73.4585 47.1001 73.4585C47.5568 73.4585 47.9598 73.5261 48.318 73.6699C48.6761 73.8136 48.9716 73.9996 49.2134 74.2532C49.4552 74.5068 49.6522 74.8027 49.7865 75.1493C49.9119 75.4875 49.9746 75.868 49.9746 76.2822C49.9746 76.6965 49.9119 77.0684 49.7865 77.4151C49.6522 77.7617 49.4552 78.066 49.2134 78.3112C48.9716 78.5479 48.6761 78.7508 48.318 78.8946C47.9598 79.0383 47.5568 79.1059 47.1001 79.1059C46.6524 79.1059 46.2674 79.0383 45.9002 78.8946C45.5331 78.7508 45.2466 78.5564 44.9869 78.3112C44.7362 78.0576 44.5392 77.7617 44.4138 77.4151C44.2884 77.0769 44.2168 76.6965 44.2168 76.2822C44.2168 75.868 44.2884 75.4875 44.4138 75.1493ZM45.8107 76.8655C45.8555 77.0684 45.9271 77.246 46.0435 77.3982C46.151 77.5588 46.2853 77.6856 46.4554 77.7786C46.6256 77.8716 46.8405 77.9223 47.0912 77.9223C47.3598 77.9223 47.5747 77.8716 47.7449 77.7786C47.915 77.6856 48.0493 77.5588 48.1568 77.4066C48.2642 77.2544 48.3359 77.0854 48.3806 76.8825C48.4254 76.6796 48.4433 76.4851 48.4433 76.2738C48.4433 76.0624 48.4254 75.8679 48.3806 75.665C48.3359 75.4621 48.2642 75.2846 48.1568 75.1324C48.0493 74.9803 47.915 74.8619 47.7449 74.7604C47.5747 74.6674 47.3509 74.6336 47.0912 74.6336C46.8405 74.6336 46.6256 74.6844 46.4554 74.7774C46.2853 74.8703 46.151 74.9972 46.0435 75.1493C45.9271 75.31 45.8555 75.4791 45.8107 75.682C45.7659 75.8849 45.7391 76.0793 45.7391 76.2822C45.7391 76.4767 45.7659 76.6796 45.8107 76.8655Z" fill="white"/>
<path d="M60.292 73.6201V74.7361H58.5906V78.9378H57.131V74.7361H55.4297V73.6201H60.292Z" fill="white"/>
<path d="M68.869 75.4716C69.2093 75.4716 69.5227 75.5054 69.8003 75.573C70.0779 75.6407 70.3017 75.7506 70.4898 75.8943C70.6778 76.038 70.83 76.2156 70.9196 76.4354C71.027 76.6552 71.0808 76.9173 71.0808 77.2132C71.0808 77.4837 71.036 77.712 70.9554 77.9064C70.8748 78.1093 70.7674 78.2699 70.633 78.3883C70.5077 78.532 70.3555 78.6166 70.2032 78.7011C70.042 78.7687 69.8898 78.8279 69.7376 78.8617C69.5854 78.904 69.451 78.9294 69.3257 78.9378C69.1914 78.9463 69.0929 78.9463 69.0212 78.9463H66.0752V73.6286H67.5348V75.48H68.869V75.4716ZM68.9406 77.8726C69.057 77.8641 69.1556 77.8219 69.2451 77.7711C69.3436 77.7204 69.4063 77.6528 69.469 77.5598C69.5227 77.4668 69.5495 77.3484 69.5495 77.2132C69.5495 77.0779 69.5137 76.9595 69.469 76.8665C69.4063 76.7735 69.3346 76.7059 69.2361 76.6552C69.1287 76.6045 69.0212 76.5622 68.8959 76.5453C68.7616 76.5284 68.6183 76.5115 68.475 76.5115H67.5348V77.898H68.6004C68.7257 77.898 68.8421 77.8895 68.9406 77.8726ZM71.7255 78.9378V73.6201H73.1851V78.9378H71.7255Z" fill="white"/>
</g>
<defs>
<clipPath id="clip0">
<rect width="111" height="81" fill="white"/>
</clipPath>
</defs>
</svg>
