<svg width="807" height="622" viewBox="0 0 807 622" fill="none" xmlns="http://www.w3.org/2000/svg">
<path d="M32.0687 304.962C22.1673 304.962 14.1309 312.347 14.1309 321.476L14.1309 810.012C14.1309 817.354 20.6055 823.301 28.566 823.301H35.541C43.5168 823.301 49.9762 817.354 49.9762 810.012L49.9762 321.462C49.9914 312.347 41.9701 304.962 32.0687 304.962Z" fill="white"/>
<path d="M137.314 459.237C127.412 459.237 119.376 466.621 119.376 475.75L119.376 683.906C119.376 691.249 125.835 697.195 133.811 697.195H140.786C148.762 697.195 155.221 691.249 155.221 683.906L155.221 475.736C155.237 466.621 147.215 459.237 137.314 459.237Z" fill="white"/>
<path d="M137.314 77.0557C127.412 77.0557 119.376 84.4399 119.376 93.5691L119.376 382.059C119.376 389.402 125.835 395.348 133.811 395.348H140.786C148.762 395.348 155.221 389.402 155.221 382.059L155.221 93.5691C155.237 84.4539 147.215 77.0557 137.314 77.0557Z" fill="white"/>
<path d="M307.456 420.821C297.555 420.821 289.519 428.206 289.519 437.335L289.519 625.809C289.519 633.151 295.978 639.098 303.954 639.098H310.929C318.904 639.098 325.364 633.151 325.364 625.809L325.364 437.335C325.394 428.219 317.358 420.821 307.456 420.821Z" fill="white"/>
<path d="M691.477 237.093C681.575 237.093 673.539 244.477 673.539 253.606V349.477C673.539 356.819 679.998 362.766 687.974 362.766H694.949C702.925 362.766 709.384 356.819 709.384 349.477V253.606C709.415 244.491 701.393 237.093 691.477 237.093Z" fill="white"/>
<path d="M465.339 135.962C455.438 135.962 447.401 143.346 447.401 152.475V248.332C447.401 255.674 453.861 261.621 461.837 261.621H468.812C476.787 261.621 483.247 255.674 483.247 248.332V152.461C483.262 143.36 475.241 135.962 465.339 135.962Z" fill="white"/>
<path d="M283.348 73.0071C273.447 73.0071 265.41 80.3914 265.41 89.5206V248.332C265.41 255.674 271.87 261.621 279.845 261.621H286.82C294.796 261.621 301.255 255.674 301.255 248.332V89.5066C301.271 80.4054 293.249 73.0071 283.348 73.0071Z" fill="white"/>
<path d="M168.612 43.9851C168.612 53.1003 176.634 60.4985 186.55 60.4985L237.619 60.4985C245.595 60.4985 252.054 54.5521 252.054 47.2096V40.7884C252.054 33.446 245.595 27.4995 237.619 27.4995L186.55 27.4995C176.634 27.4716 168.612 34.8699 168.612 43.9851Z" fill="white"/>
<path d="M314.632 290.655C314.632 299.77 322.653 307.168 332.57 307.168H419.605C427.581 307.168 434.04 301.222 434.04 293.88V287.458C434.04 280.116 427.581 274.169 419.605 274.169H332.57C322.668 274.155 314.632 281.54 314.632 290.655Z" fill="white"/>
<path d="M498.559 106.94C498.559 116.055 506.58 123.453 516.496 123.453L655.45 123.453C663.426 123.453 669.885 117.507 669.885 110.164V103.743C669.885 96.4007 663.426 90.4541 655.45 90.4541L516.496 90.4541C506.58 90.4262 498.559 97.8105 498.559 106.94Z" fill="white"/>
<path d="M722.773 208.073C722.773 217.188 730.795 224.586 740.711 224.586H770.37C790.173 224.586 806.231 209.804 806.231 191.573H740.711C730.81 191.56 722.773 198.958 722.773 208.073Z" fill="white"/>
<path d="M703.092 76.8301C712.993 76.8301 721.03 69.4457 721.03 60.3166V33.0128C721.03 14.7823 704.972 -0.000236511 685.169 -0.000236511V60.3166C685.154 69.4457 693.19 76.8301 703.092 76.8301Z" fill="white"/>
<path d="M338.753 391.788C338.753 400.903 346.774 408.301 356.691 408.301L645.758 408.301C653.734 408.301 660.194 402.355 660.194 395.012V388.591C660.194 381.249 653.734 375.302 645.758 375.302L356.676 375.302C346.774 375.288 338.753 382.673 338.753 391.788Z" fill="white"/>
<path d="M696.434 362.766L691.476 377.102L686.517 362.766L686.578 377.814L677.086 365.614L682.166 379.908L669.08 371.016L678.663 383.16L663.257 378.456L676.419 387.25L660.194 387.209L675.645 391.801L660.194 396.394L676.419 396.338L663.257 405.146L678.678 400.428L669.095 412.586L682.181 403.68L677.116 417.988L686.593 405.774L686.533 420.822L691.491 406.486L696.449 420.822L696.389 405.774L705.881 417.974L700.801 403.68L713.887 412.572L704.304 400.428L719.709 405.132L706.548 396.338L722.772 396.38L707.321 391.787L722.772 387.181L706.548 387.25L719.709 378.442L704.288 383.146L713.871 371.002L700.786 379.908L705.85 365.6L696.373 377.814L696.434 362.766Z" fill="#94C124"/>
<path d="M288.292 261.635L283.334 275.97L278.376 261.635L278.436 276.682L268.944 264.482L274.024 278.776L260.938 269.884L270.521 282.029L255.116 277.324L268.277 286.119L252.053 286.077L267.504 290.669L252.053 295.262L268.277 295.206L255.116 304.014L270.536 299.296L260.953 311.454L274.039 302.548L268.975 316.842L278.452 304.642L278.391 319.69L283.349 305.354L288.308 319.69L288.247 304.628L297.739 316.842L292.659 302.548L305.745 311.44L296.162 299.296L311.568 303.986L298.406 295.192L314.631 295.248L299.179 290.655L314.631 286.049L298.406 286.119L311.568 277.31L296.162 282.015L305.745 269.87L292.644 278.776L297.724 264.468L288.232 276.682L288.292 261.635Z" fill="#9BCB36"/>
<path d="M470.281 77.9061L465.337 92.242L460.364 77.9061L460.44 92.9538L450.948 80.7537L456.027 95.0477L442.927 86.1558L452.525 98.3001L437.104 93.596L450.265 102.404L434.041 102.348L449.492 106.941L434.041 111.547L450.281 111.477L437.119 120.285L452.525 115.567L442.942 127.726L456.027 118.82L450.963 133.128L460.44 120.914L460.394 135.961L465.337 121.626L470.296 135.961L470.235 120.914L479.727 133.114L474.648 118.82L487.748 127.712L478.15 115.567L493.571 120.272L480.41 111.477L496.634 111.519L481.183 106.927L496.619 102.32L480.394 102.39L493.556 93.582L478.15 98.2862L487.733 86.1418L474.648 95.0477L479.712 80.7397L470.22 92.9538L470.281 77.9061Z" fill="#94C124"/>
<path d="M142.255 398.837L137.312 413.173L132.354 398.837L132.414 413.885L122.922 401.684L128.002 415.978L114.901 407.086L124.499 419.231L109.079 414.527L122.24 423.335L106.016 423.279L121.467 427.871L106.031 432.464L122.255 432.408L109.094 441.216L124.499 436.498L114.916 448.656L128.002 439.75L122.938 454.058L132.43 441.844L132.369 456.892L137.312 442.556L142.286 456.892L142.21 441.844L151.702 454.044L146.622 439.75L159.723 448.642L150.125 436.498L165.546 441.202L152.384 432.408L168.609 432.45L153.157 427.857L168.593 423.251L152.369 423.321L165.53 414.513L150.125 419.217L159.708 407.073L146.622 415.978L151.687 401.67L142.21 413.885L142.255 398.837Z" fill="#95C11F"/>
<path d="M32.0687 245.345C22.1673 245.345 14.1309 237.96 14.1309 228.831L14.1309 201.528C14.1309 183.297 30.1885 168.515 49.9914 168.515L49.9914 228.831C49.9914 237.946 41.9701 245.345 32.0687 245.345Z" fill="white"/>
<path d="M37.0111 245.833L32.0528 260.169L27.0945 245.833L27.1703 260.881L17.6782 248.681L22.7427 262.975L9.65701 254.083L19.24 266.227L3.83441 261.523L16.9959 270.317L0.771484 270.275L16.2226 274.868L0.771484 279.46L16.9959 279.405L3.83441 288.213L19.2552 283.495L9.67217 295.653L22.7579 286.747L17.6934 301.055L27.1703 288.841L27.1248 303.889L32.0679 289.553L37.0262 303.889L36.9656 288.827L46.4576 301.041L41.378 286.747L54.4789 295.639L44.8807 283.495L60.3015 288.199L47.1248 279.391L63.3492 279.447L47.8981 274.854L63.3492 270.248L47.1248 270.317L60.2863 261.509L44.8807 266.213L54.4637 254.069L41.378 262.975L46.4425 248.667L36.9504 260.881L37.0111 245.833Z" fill="#94C124"/>
<path d="M696.434 179.038L691.476 193.374L686.517 179.038L686.578 194.1L677.086 181.886L682.166 196.18L669.08 187.288L678.663 199.432L663.257 194.728L676.419 203.536L660.194 203.48L675.645 208.073L660.194 212.679L676.419 212.609L663.257 221.417L678.678 216.713L669.095 228.857L682.181 219.966L677.116 234.26L686.593 222.045L686.533 237.093L691.491 222.757L696.449 237.093L696.389 222.045L705.881 234.246L700.801 219.952L713.887 228.844L704.304 216.699L719.709 221.403L706.548 212.609L722.772 212.651L707.321 208.059L722.772 203.466L706.548 203.522L719.709 194.714L704.288 199.432L713.871 187.274L700.786 196.18L705.85 181.886L696.373 194.086L696.434 179.038Z" fill="#94C124"/>
<path d="M470.281 261.635L465.337 275.97L460.364 261.635L460.44 276.682L450.948 264.482L456.027 278.776L442.927 269.884L452.525 282.029L437.104 277.324L450.265 286.119L434.041 286.077L449.492 290.669L434.041 295.262L450.281 295.206L437.119 304.014L452.525 299.296L442.942 311.454L456.027 302.548L450.963 316.842L460.44 304.642L460.394 319.69L465.337 305.354L470.296 319.69L470.235 304.628L479.727 316.842L474.648 302.548L487.748 311.44L478.15 299.296L493.571 303.986L480.41 295.192L496.634 295.248L481.183 290.655L496.619 286.049L480.394 286.119L493.556 277.31L478.15 282.015L487.733 269.87L474.648 278.776L479.712 264.468L470.22 276.682L470.281 261.635Z" fill="#95C11F"/>
<path d="M142.255 15.509L137.312 29.8449L132.354 15.509L132.414 30.5707L122.922 18.3566L128.002 32.6507L114.901 23.7727L124.499 35.903L109.079 31.2128L122.24 40.007L106.016 39.9512L121.467 44.5437L106.031 49.1501L122.255 49.0803L109.094 57.8884L124.499 53.1843L114.916 65.3286L128.002 56.4367L122.938 70.7307L132.43 58.5166L132.369 73.5645L137.312 59.2285L142.286 73.5645L142.21 58.5166L151.702 70.7168L146.622 56.4228L159.723 65.3146L150.125 53.1703L165.546 57.8745L152.384 49.0803L168.609 49.1362L153.157 44.5297L168.593 39.9372L152.369 39.993L165.53 31.1849L150.125 35.903L159.708 23.7587L146.622 32.6507L151.687 18.3566L142.21 30.5707L142.255 15.509Z" fill="#94C124"/>
<path d="M312.399 362.766L307.456 377.102L302.497 362.766L302.558 377.814L293.066 365.614L298.146 379.908L285.045 371.016L294.643 383.16L279.222 378.456L292.399 387.25L276.159 387.209L291.625 391.801L276.174 396.394L292.399 396.338L279.237 405.146L294.643 400.428L285.06 412.586L298.146 403.68L293.081 417.988L302.573 405.774L302.513 420.822L307.456 406.486L312.429 420.822L312.353 405.774L321.845 417.974L316.766 403.68L329.867 412.572L320.284 400.428L335.689 405.132L322.528 396.338L338.752 396.38L323.301 391.787L338.752 387.181L322.528 387.25L335.689 378.442L320.268 383.147L329.851 371.002L316.766 379.908L321.83 365.6L312.353 377.814L312.399 362.766Z" fill="#94C124"/>
<path d="M288.292 14.9509L283.334 29.2868L278.376 14.9509L278.436 30.0127L268.944 17.7986L274.024 32.0926L260.938 23.2007L270.521 35.345L255.116 30.6409L268.277 39.449L252.053 39.3931L267.504 43.9856L252.053 48.5921L268.277 48.5223L255.116 57.3304L270.536 52.6263L260.953 64.7705L274.039 55.8786L268.975 70.1726L278.452 57.9585L278.391 73.0063L283.349 58.6704L288.308 73.0063L288.247 57.9585L297.739 70.1587L292.659 55.8647L305.745 64.7566L296.162 52.6123L311.568 57.3165L298.406 48.5223L314.631 48.5641L299.179 43.9717L314.631 39.3791L298.406 39.435L311.568 30.6269L296.162 35.345L305.745 23.1867L292.644 32.0926L297.724 17.7846L288.232 29.9987L288.292 14.9509Z" fill="#95C11F"/>
<path d="M708.034 77.9061L703.075 92.242L698.117 77.9061L698.193 92.9538L688.701 80.7537L693.765 95.0477L680.679 86.1558L690.262 98.3001L674.857 93.596L688.018 102.404L671.794 102.348L687.245 106.941L671.794 111.547L688.018 111.477L674.872 120.285L690.278 115.567L680.695 127.726L693.78 118.82L688.716 133.128L698.193 120.914L698.147 135.961L703.09 121.626L708.049 135.961L707.988 120.914L717.48 133.114L712.401 118.82L725.501 127.712L715.903 115.567L731.324 120.272L718.147 111.477L734.372 111.519L718.921 106.927L734.372 102.32L718.147 102.39L731.309 93.582L715.903 98.2862L725.486 86.1418L712.401 95.0477L717.465 80.7397L707.973 92.9538L708.034 77.9061Z" fill="#9BCB36"/>
<path d="M294.71 610.942L253.785 569.121" stroke="white" stroke-width="1.7449" stroke-miterlimit="10" stroke-linecap="round" stroke-linejoin="round"/>
<path d="M294.705 593.857L253.78 552.036" stroke="white" stroke-width="1.7449" stroke-miterlimit="10" stroke-linecap="round" stroke-linejoin="round"/>
<path d="M294.705 576.772L253.78 534.951" stroke="white" stroke-width="1.7449" stroke-miterlimit="10" stroke-linecap="round" stroke-linejoin="round"/>
<path d="M294.705 559.686L253.78 517.865" stroke="white" stroke-width="1.7449" stroke-miterlimit="10" stroke-linecap="round" stroke-linejoin="round"/>
<path d="M294.705 542.601L253.78 500.78" stroke="white" stroke-width="1.7449" stroke-miterlimit="10" stroke-linecap="round" stroke-linejoin="round"/>
<path d="M294.705 525.515L253.78 483.694" stroke="white" stroke-width="1.7449" stroke-miterlimit="10" stroke-linecap="round" stroke-linejoin="round"/>
<path d="M294.705 508.429L253.78 466.608" stroke="white" stroke-width="1.7449" stroke-miterlimit="10" stroke-linecap="round" stroke-linejoin="round"/>
<path d="M294.705 491.343L253.78 449.522" stroke="white" stroke-width="1.7449" stroke-miterlimit="10" stroke-linecap="round" stroke-linejoin="round"/>
<path d="M294.705 474.259L253.78 432.424" stroke="white" stroke-width="1.7449" stroke-miterlimit="10" stroke-linecap="round" stroke-linejoin="round"/>
<path d="M189.066 272.73L148.141 230.909" stroke="white" stroke-width="1.7449" stroke-miterlimit="10" stroke-linecap="round" stroke-linejoin="round"/>
<path d="M189.066 255.646L148.141 213.81" stroke="white" stroke-width="1.7449" stroke-miterlimit="10" stroke-linecap="round" stroke-linejoin="round"/>
<path d="M189.066 238.545L148.141 196.724" stroke="white" stroke-width="1.7449" stroke-miterlimit="10" stroke-linecap="round" stroke-linejoin="round"/>
<path d="M189.067 386.886L148.142 345.065" stroke="white" stroke-width="1.7449" stroke-miterlimit="10" stroke-linecap="round" stroke-linejoin="round"/>
<path d="M189.066 369.801L148.141 327.98" stroke="white" stroke-width="1.7449" stroke-miterlimit="10" stroke-linecap="round" stroke-linejoin="round"/>
<path d="M189.066 352.715L148.141 310.894" stroke="white" stroke-width="1.7449" stroke-miterlimit="10" stroke-linecap="round" stroke-linejoin="round"/>
<path d="M189.066 221.459L148.141 179.638" stroke="white" stroke-width="1.7449" stroke-miterlimit="10" stroke-linecap="round" stroke-linejoin="round"/>
<path d="M189.066 204.375L148.141 162.554" stroke="white" stroke-width="1.7449" stroke-miterlimit="10" stroke-linecap="round" stroke-linejoin="round"/>
<path d="M189.066 187.287L148.141 145.466" stroke="white" stroke-width="1.7449" stroke-miterlimit="10" stroke-linecap="round" stroke-linejoin="round"/>
<path d="M189.066 170.202L148.141 128.381" stroke="white" stroke-width="1.7449" stroke-miterlimit="10" stroke-linecap="round" stroke-linejoin="round"/>
<path d="M189.066 153.118L148.141 111.297" stroke="white" stroke-width="1.7449" stroke-miterlimit="10" stroke-linecap="round" stroke-linejoin="round"/>
<path d="M189.066 136.029L148.141 94.2081" stroke="white" stroke-width="1.7449" stroke-miterlimit="10" stroke-linecap="round" stroke-linejoin="round"/>
<path d="M370.127 399.267C378.702 399.267 385.653 405.667 385.653 413.561C385.653 421.456 378.702 427.855 370.127 427.855C361.551 427.855 354.6 421.456 354.6 413.561C354.6 405.667 361.551 399.267 370.127 399.267Z" stroke="white" stroke-width="1.7449" stroke-miterlimit="10" stroke-linecap="round" stroke-linejoin="round"/>
<path d="M391.428 399.268C400.004 399.268 406.955 405.668 406.955 413.562C406.955 421.457 400.004 427.856 391.428 427.856C382.853 427.856 375.901 421.457 375.901 413.562C375.901 405.668 382.853 399.268 391.428 399.268Z" stroke="white" stroke-width="1.7449" stroke-miterlimit="10" stroke-linecap="round" stroke-linejoin="round"/>
<path d="M412.735 399.268C421.31 399.268 428.262 405.668 428.262 413.562C428.262 421.457 421.31 427.856 412.735 427.856C404.16 427.856 397.208 421.457 397.208 413.562C397.208 405.668 404.16 399.268 412.735 399.268Z" stroke="white" stroke-width="1.7449" stroke-miterlimit="10" stroke-linecap="round" stroke-linejoin="round"/>
<path d="M434.037 399.268C442.612 399.268 449.564 405.668 449.564 413.562C449.564 421.457 442.612 427.856 434.037 427.856C425.461 427.856 418.51 421.457 418.51 413.562C418.51 405.668 425.461 399.268 434.037 399.268Z" stroke="white" stroke-width="1.7449" stroke-miterlimit="10" stroke-linecap="round" stroke-linejoin="round"/>
<path d="M455.813 399.268C464.388 399.268 471.34 405.668 471.34 413.562C471.34 421.457 464.388 427.856 455.813 427.856C447.238 427.856 440.286 421.457 440.286 413.562C440.286 405.668 447.238 399.268 455.813 399.268Z" stroke="white" stroke-width="1.7449" stroke-miterlimit="10" stroke-linecap="round" stroke-linejoin="round"/>
<path d="M477.573 399.268C486.148 399.268 493.1 405.668 493.1 413.562C493.1 421.457 486.148 427.856 477.573 427.856C468.998 427.856 462.046 421.457 462.046 413.562C462.046 405.668 468.998 399.268 477.573 399.268Z" stroke="white" stroke-width="1.7449" stroke-miterlimit="10" stroke-linecap="round" stroke-linejoin="round"/>
<path d="M499.332 399.268C507.907 399.268 514.859 405.668 514.859 413.562C514.859 421.457 507.907 427.856 499.332 427.856C490.756 427.856 483.805 421.457 483.805 413.562C483.805 405.668 490.756 399.268 499.332 399.268Z" stroke="white" stroke-width="1.7449" stroke-miterlimit="10" stroke-linecap="round" stroke-linejoin="round"/>
<path d="M521.102 399.268C529.677 399.268 536.629 405.668 536.629 413.562C536.629 421.457 529.677 427.856 521.102 427.856C512.527 427.856 505.575 421.457 505.575 413.562C505.575 405.668 512.527 399.268 521.102 399.268Z" stroke="white" stroke-width="1.7449" stroke-miterlimit="10" stroke-linecap="round" stroke-linejoin="round"/>
<path d="M542.866 399.268C551.441 399.268 558.393 405.668 558.393 413.562C558.393 421.457 551.441 427.856 542.866 427.856C534.291 427.856 527.339 421.457 527.339 413.562C527.339 405.668 534.291 399.268 542.866 399.268Z" stroke="white" stroke-width="1.7449" stroke-miterlimit="10" stroke-linecap="round" stroke-linejoin="round"/>
<path d="M564.639 399.268C573.215 399.268 580.166 405.668 580.166 413.562C580.166 421.457 573.215 427.856 564.639 427.856C556.064 427.856 549.112 421.457 549.112 413.562C549.112 405.668 556.064 399.268 564.639 399.268Z" stroke="white" stroke-width="1.7449" stroke-miterlimit="10" stroke-linecap="round" stroke-linejoin="round"/>
<path d="M586.397 399.268C594.972 399.268 601.924 405.668 601.924 413.562C601.924 421.457 594.972 427.856 586.397 427.856C577.822 427.856 570.87 421.457 570.87 413.562C570.87 405.668 577.822 399.268 586.397 399.268Z" stroke="white" stroke-width="1.7449" stroke-miterlimit="10" stroke-linecap="round" stroke-linejoin="round"/>
<path d="M608.17 399.268C616.745 399.268 623.697 405.668 623.697 413.562C623.697 421.457 616.745 427.856 608.17 427.856C599.594 427.856 592.643 421.457 592.643 413.562C592.643 405.668 599.594 399.268 608.17 399.268Z" stroke="white" stroke-width="1.7449" stroke-miterlimit="10" stroke-linecap="round" stroke-linejoin="round"/>
<path d="M629.931 399.268C638.507 399.268 645.458 405.668 645.458 413.562C645.458 421.457 638.507 427.856 629.931 427.856C621.356 427.856 614.404 421.457 614.404 413.562C614.404 405.668 621.356 399.268 629.931 399.268Z" stroke="white" stroke-width="1.7449" stroke-miterlimit="10" stroke-linecap="round" stroke-linejoin="round"/>
<path d="M668.417 315.586C676.992 315.586 683.943 321.985 683.943 329.88C683.943 337.774 676.992 344.174 668.417 344.174C659.841 344.174 652.89 337.774 652.89 329.88C652.89 321.985 659.841 315.586 668.417 315.586Z" stroke="white" stroke-width="1.7449" stroke-miterlimit="10" stroke-linecap="round" stroke-linejoin="round"/>
<path d="M668.416 295.974C676.991 295.974 683.942 302.374 683.942 310.268C683.942 318.162 676.991 324.562 668.416 324.562C659.84 324.562 652.889 318.162 652.889 310.268C652.889 302.374 659.84 295.974 668.416 295.974Z" stroke="white" stroke-width="1.7449" stroke-miterlimit="10" stroke-linecap="round" stroke-linejoin="round"/>
<path d="M668.416 276.361C676.991 276.361 683.942 282.761 683.942 290.655C683.942 298.55 676.991 304.949 668.416 304.949C659.84 304.949 652.889 298.55 652.889 290.655C652.889 282.761 659.84 276.361 668.416 276.361Z" stroke="white" stroke-width="1.7449" stroke-miterlimit="10" stroke-linecap="round" stroke-linejoin="round"/>
<path d="M668.416 256.749C676.991 256.749 683.942 263.148 683.942 271.042C683.942 278.937 676.991 285.336 668.416 285.336C659.84 285.336 652.889 278.937 652.889 271.042C652.889 263.148 659.84 256.749 668.416 256.749Z" stroke="white" stroke-width="1.7449" stroke-miterlimit="10" stroke-linecap="round" stroke-linejoin="round"/>
<path d="M164.335 616.233C176.838 616.233 186.973 625.564 186.973 637.074C186.973 648.584 176.838 657.915 164.335 657.915C151.832 657.915 141.696 648.584 141.696 637.074C141.696 625.564 151.832 616.233 164.335 616.233Z" stroke="white" stroke-width="2.5438" stroke-miterlimit="10" stroke-linecap="round" stroke-linejoin="round"/>
<path d="M164.335 587.645C176.837 587.645 186.973 596.976 186.973 608.486C186.973 619.996 176.837 629.327 164.335 629.327C151.832 629.327 141.696 619.996 141.696 608.486C141.696 596.976 151.832 587.645 164.335 587.645Z" stroke="white" stroke-width="2.5438" stroke-miterlimit="10" stroke-linecap="round" stroke-linejoin="round"/>
<path d="M164.335 560.271C176.837 560.271 186.973 569.602 186.973 581.112C186.973 592.622 176.837 601.953 164.335 601.953C151.832 601.953 141.696 592.622 141.696 581.112C141.696 569.602 151.832 560.271 164.335 560.271Z" stroke="white" stroke-width="2.5438" stroke-miterlimit="10" stroke-linecap="round" stroke-linejoin="round"/>
<path d="M164.335 531.683C176.837 531.683 186.973 541.014 186.973 552.524C186.973 564.034 176.837 573.365 164.335 573.365C151.832 573.365 141.696 564.034 141.696 552.524C141.696 541.014 151.832 531.683 164.335 531.683Z" stroke="white" stroke-width="2.5438" stroke-miterlimit="10" stroke-linecap="round" stroke-linejoin="round"/>
<path d="M164.335 503.095C176.837 503.095 186.973 512.426 186.973 523.936C186.973 535.446 176.837 544.777 164.335 544.777C151.832 544.777 141.696 535.446 141.696 523.936C141.696 512.426 151.832 503.095 164.335 503.095Z" stroke="white" stroke-width="2.5438" stroke-miterlimit="10" stroke-linecap="round" stroke-linejoin="round"/>
<path d="M164.335 474.494C176.838 474.494 186.973 483.825 186.973 495.335C186.973 506.845 176.838 516.175 164.335 516.175C151.832 516.175 141.696 506.845 141.696 495.335C141.696 483.825 151.832 474.494 164.335 474.494Z" stroke="white" stroke-width="2.5438" stroke-miterlimit="10" stroke-linecap="round" stroke-linejoin="round"/>
<path d="M455.601 232.04L408.277 215.847H459.801" stroke="white" stroke-width="2" stroke-miterlimit="10" stroke-linecap="round" stroke-linejoin="round"/>
<path d="M455.601 215.847L408.277 199.654H459.801" stroke="white" stroke-width="2" stroke-miterlimit="10" stroke-linecap="round" stroke-linejoin="round"/>
<path d="M455.601 199.655L408.277 183.463H459.801" stroke="white" stroke-width="2" stroke-miterlimit="10" stroke-linecap="round" stroke-linejoin="round"/>
<path d="M455.601 183.462L408.277 167.27H459.801" stroke="white" stroke-width="2" stroke-miterlimit="10" stroke-linecap="round" stroke-linejoin="round"/>
<path d="M455.601 167.269L408.277 151.077H459.801" stroke="white" stroke-width="2" stroke-miterlimit="10" stroke-linecap="round" stroke-linejoin="round"/>
<path d="M100.397 480.106C100.397 480.106 85.5677 496.326 70.7231 480.106C55.8785 463.886 39.1992 483.707 39.1992 483.707" stroke="white" stroke-width="2" stroke-miterlimit="10" stroke-linecap="round" stroke-linejoin="round"/>
<path d="M100.394 466.51C100.394 466.51 85.5648 482.731 70.7202 466.51C55.8756 450.29 39.1963 470.112 39.1963 470.112" stroke="white" stroke-width="2" stroke-miterlimit="10" stroke-linecap="round" stroke-linejoin="round"/>
<path d="M100.394 452.928C100.394 452.928 85.5648 469.149 70.7202 452.928C55.8908 436.708 39.1963 456.53 39.1963 456.53" stroke="white" stroke-width="2" stroke-miterlimit="10" stroke-linecap="round" stroke-linejoin="round"/>
<path d="M100.394 439.346C100.394 439.346 85.5648 455.566 70.7202 439.346C55.8756 423.125 39.1963 442.947 39.1963 442.947" stroke="white" stroke-width="2" stroke-miterlimit="10" stroke-linecap="round" stroke-linejoin="round"/>
<path d="M100.394 425.752C100.394 425.752 85.5648 441.972 70.7202 425.752C55.8756 409.532 39.1963 429.353 39.1963 429.353" stroke="white" stroke-width="2" stroke-miterlimit="10" stroke-linecap="round" stroke-linejoin="round"/>
<path d="M578.178 117.297C578.178 117.297 595.798 130.949 578.178 144.615C560.559 158.266 582.09 173.635 582.09 173.635" stroke="white" stroke-width="2" stroke-miterlimit="10" stroke-linecap="round" stroke-linejoin="round"/>
<path d="M563.412 117.297C563.412 117.297 581.031 130.949 563.412 144.615C545.792 158.266 567.324 173.635 567.324 173.635" stroke="white" stroke-width="2" stroke-miterlimit="10" stroke-linecap="round" stroke-linejoin="round"/>
<path d="M548.658 117.297C548.658 117.297 566.277 130.949 548.658 144.615C531.038 158.266 552.57 173.635 552.57 173.635" stroke="white" stroke-width="2" stroke-miterlimit="10" stroke-linecap="round" stroke-linejoin="round"/>
<path d="M533.903 117.297C533.903 117.297 551.522 130.949 533.903 144.615C516.283 158.266 537.815 173.635 537.815 173.635" stroke="white" stroke-width="2" stroke-miterlimit="10" stroke-linecap="round" stroke-linejoin="round"/>
<path d="M519.133 117.296C519.133 117.296 536.752 130.948 519.133 144.614C501.514 158.279 523.045 173.634 523.045 173.634" stroke="white" stroke-width="2" stroke-miterlimit="10" stroke-linecap="round" stroke-linejoin="round"/>
<path d="M650.583 117.297C650.583 117.297 668.202 130.949 650.583 144.615C632.963 158.28 654.495 173.635 654.495 173.635" stroke="white" stroke-width="2" stroke-miterlimit="10" stroke-linecap="round" stroke-linejoin="round"/>
<path d="M635.83 117.297C635.83 117.297 653.449 130.949 635.83 144.615C618.21 158.28 639.742 173.635 639.742 173.635" stroke="white" stroke-width="2" stroke-miterlimit="10" stroke-linecap="round" stroke-linejoin="round"/>
<path d="M621.078 117.297C621.078 117.297 638.697 130.949 621.078 144.615C603.458 158.266 624.99 173.635 624.99 173.635" stroke="white" stroke-width="2" stroke-miterlimit="10" stroke-linecap="round" stroke-linejoin="round"/>
<path d="M606.308 117.297C606.308 117.297 623.927 130.949 606.308 144.615C588.689 158.266 610.22 173.635 610.22 173.635" stroke="white" stroke-width="2" stroke-miterlimit="10" stroke-linecap="round" stroke-linejoin="round"/>
<path d="M591.553 117.297C591.553 117.297 609.173 130.949 591.553 144.615C573.934 158.266 595.465 173.635 595.465 173.635" stroke="white" stroke-width="2" stroke-miterlimit="10" stroke-linecap="round" stroke-linejoin="round"/>
</svg>
