<svg width="1915" height="308" viewBox="0 0 1915 308" fill="none" xmlns="http://www.w3.org/2000/svg">
<rect x="146" y="93" width="1725" height="156" rx="51" fill="#95C11F"/>
<rect x="1641" y="180" width="274" height="47" rx="23.5" fill="black"/>
<rect x="1811" y="160" width="58" height="7" rx="3.5" transform="rotate(90 1811 160)" fill="#95C11F"/>
<rect x="1738" y="160" width="58" height="7" rx="3.5" transform="rotate(90 1738 160)" fill="#95C11F"/>
<rect x="1665" y="160" width="58" height="7" rx="3.5" transform="rotate(90 1665 160)" fill="#95C11F"/>
<rect x="1826" y="160" width="58" height="7" rx="3.5" transform="rotate(90 1826 160)" fill="#95C11F"/>
<rect x="1753" y="160" width="58" height="7" rx="3.5" transform="rotate(90 1753 160)" fill="#95C11F"/>
<rect x="1680" y="160" width="58" height="7" rx="3.5" transform="rotate(90 1680 160)" fill="#95C11F"/>
<rect x="1841" y="160" width="58" height="7" rx="3.5" transform="rotate(90 1841 160)" fill="#95C11F"/>
<rect x="1768" y="160" width="58" height="7" rx="3.5" transform="rotate(90 1768 160)" fill="#95C11F"/>
<rect x="1695" y="160" width="58" height="7" rx="3.5" transform="rotate(90 1695 160)" fill="#95C11F"/>
<rect x="1856" y="160" width="58" height="7" rx="3.5" transform="rotate(90 1856 160)" fill="#95C11F"/>
<rect x="1783" y="160" width="58" height="7" rx="3.5" transform="rotate(90 1783 160)" fill="#95C11F"/>
<rect x="1710" y="160" width="58" height="7" rx="3.5" transform="rotate(90 1710 160)" fill="#95C11F"/>
<rect x="1871" y="160" width="58" height="7" rx="3.5" transform="rotate(90 1871 160)" fill="#95C11F"/>
<rect x="1798" y="160" width="58" height="7" rx="3.5" transform="rotate(90 1798 160)" fill="#95C11F"/>
<rect x="1725" y="160" width="58" height="7" rx="3.5" transform="rotate(90 1725 160)" fill="#95C11F"/>
<circle cx="1807" cy="135" r="25" fill="#FF0000"/>
<line x1="1742.95" y1="93.0588" x2="1673.72" y2="23.8284" stroke="#95C11F" stroke-width="4" stroke-linecap="round" stroke-linejoin="round"/>
<line x1="2" y1="-2" x2="99.9066" y2="-2" transform="matrix(0.707107 -0.707107 -0.707107 -0.707107 1641 305.059)" stroke="#95C11F" stroke-width="4" stroke-linecap="round" stroke-linejoin="round"/>
<line x1="1710.35" y1="93.0588" x2="1641.12" y2="23.8284" stroke="#95C11F" stroke-width="4" stroke-linecap="round" stroke-linejoin="round"/>
<line x1="2" y1="-2" x2="99.9066" y2="-2" transform="matrix(0.707107 -0.707107 -0.707107 -0.707107 1673.6 305.059)" stroke="#95C11F" stroke-width="4" stroke-linecap="round" stroke-linejoin="round"/>
<line x1="1677.75" y1="93.0588" x2="1608.52" y2="23.8284" stroke="#95C11F" stroke-width="4" stroke-linecap="round" stroke-linejoin="round"/>
<line x1="1645.15" y1="93.0588" x2="1575.92" y2="23.8284" stroke="#95C11F" stroke-width="4" stroke-linecap="round" stroke-linejoin="round"/>
<line x1="1612.55" y1="93.0588" x2="1543.32" y2="23.8284" stroke="#95C11F" stroke-width="4" stroke-linecap="round" stroke-linejoin="round"/>
<line x1="1580.23" y1="93.0588" x2="1511" y2="23.8284" stroke="#95C11F" stroke-width="4" stroke-linecap="round" stroke-linejoin="round"/>
<line x1="1547.91" y1="93.0588" x2="1478.68" y2="23.8284" stroke="#95C11F" stroke-width="4" stroke-linecap="round" stroke-linejoin="round"/>
<line x1="1515.58" y1="93.0588" x2="1446.35" y2="23.8284" stroke="#95C11F" stroke-width="4" stroke-linecap="round" stroke-linejoin="round"/>
<line x1="1483.26" y1="93.0588" x2="1414.03" y2="23.8284" stroke="#95C11F" stroke-width="4" stroke-linecap="round" stroke-linejoin="round"/>
<line x1="1450.93" y1="93.0588" x2="1381.7" y2="23.8284" stroke="#95C11F" stroke-width="4" stroke-linecap="round" stroke-linejoin="round"/>
<line x1="1418.61" y1="93.0588" x2="1349.38" y2="23.8284" stroke="#95C11F" stroke-width="4" stroke-linecap="round" stroke-linejoin="round"/>
<line x1="1386.28" y1="93.0588" x2="1317.05" y2="23.8284" stroke="#95C11F" stroke-width="4" stroke-linecap="round" stroke-linejoin="round"/>
<line x1="1353.96" y1="93.0588" x2="1284.73" y2="23.8284" stroke="#95C11F" stroke-width="4" stroke-linecap="round" stroke-linejoin="round"/>
<line x1="1321.64" y1="93.0588" x2="1252.41" y2="23.8284" stroke="#95C11F" stroke-width="4" stroke-linecap="round" stroke-linejoin="round"/>
<line x1="1289.31" y1="93.0588" x2="1220.08" y2="23.8284" stroke="#95C11F" stroke-width="4" stroke-linecap="round" stroke-linejoin="round"/>
<line x1="1256.99" y1="93.0588" x2="1187.76" y2="23.8284" stroke="#95C11F" stroke-width="4" stroke-linecap="round" stroke-linejoin="round"/>
<line x1="1224.66" y1="93.0588" x2="1155.43" y2="23.8284" stroke="#95C11F" stroke-width="4" stroke-linecap="round" stroke-linejoin="round"/>
<line x1="1192.34" y1="93.0588" x2="1123.11" y2="23.8284" stroke="#95C11F" stroke-width="4" stroke-linecap="round" stroke-linejoin="round"/>
<line x1="1160.02" y1="93.0588" x2="1090.78" y2="23.8284" stroke="#95C11F" stroke-width="4" stroke-linecap="round" stroke-linejoin="round"/>
<line x1="1127.69" y1="93.0588" x2="1058.46" y2="23.8284" stroke="#95C11F" stroke-width="4" stroke-linecap="round" stroke-linejoin="round"/>
<line x1="1095.37" y1="93.0588" x2="1026.14" y2="23.8284" stroke="#95C11F" stroke-width="4" stroke-linecap="round" stroke-linejoin="round"/>
<line x1="1063.04" y1="93.0588" x2="993.812" y2="23.8284" stroke="#95C11F" stroke-width="4" stroke-linecap="round" stroke-linejoin="round"/>
<line x1="1030.72" y1="93.0588" x2="961.488" y2="23.8284" stroke="#95C11F" stroke-width="4" stroke-linecap="round" stroke-linejoin="round"/>
<line x1="998.394" y1="93.0588" x2="929.164" y2="23.8284" stroke="#95C11F" stroke-width="4" stroke-linecap="round" stroke-linejoin="round"/>
<line x1="966.07" y1="93.0588" x2="896.84" y2="23.8284" stroke="#95C11F" stroke-width="4" stroke-linecap="round" stroke-linejoin="round"/>
<line x1="933.746" y1="93.0588" x2="864.515" y2="23.8284" stroke="#95C11F" stroke-width="4" stroke-linecap="round" stroke-linejoin="round"/>
<line x1="901.422" y1="93.0588" x2="832.191" y2="23.8284" stroke="#95C11F" stroke-width="4" stroke-linecap="round" stroke-linejoin="round"/>
<line x1="869.097" y1="93.0588" x2="799.867" y2="23.8284" stroke="#95C11F" stroke-width="4" stroke-linecap="round" stroke-linejoin="round"/>
<line x1="836.773" y1="93.0588" x2="767.543" y2="23.8284" stroke="#95C11F" stroke-width="4" stroke-linecap="round" stroke-linejoin="round"/>
<line x1="804.449" y1="93.0588" x2="735.219" y2="23.8284" stroke="#95C11F" stroke-width="4" stroke-linecap="round" stroke-linejoin="round"/>
<line x1="772.125" y1="93.0588" x2="702.894" y2="23.8284" stroke="#95C11F" stroke-width="4" stroke-linecap="round" stroke-linejoin="round"/>
<line x1="739.8" y1="93.0588" x2="670.57" y2="23.8284" stroke="#95C11F" stroke-width="4" stroke-linecap="round" stroke-linejoin="round"/>
<line x1="739.8" y1="93.0588" x2="670.57" y2="23.8284" stroke="#95C11F" stroke-width="4" stroke-linecap="round" stroke-linejoin="round"/>
<line x1="739.8" y1="93.0588" x2="670.57" y2="23.8284" stroke="#95C11F" stroke-width="4" stroke-linecap="round" stroke-linejoin="round"/>
<line x1="739.8" y1="93.0588" x2="670.57" y2="23.8284" stroke="#95C11F" stroke-width="4" stroke-linecap="round" stroke-linejoin="round"/>
<line x1="739.8" y1="93.0588" x2="670.57" y2="23.8284" stroke="#95C11F" stroke-width="4" stroke-linecap="round" stroke-linejoin="round"/>
<line x1="707.23" y1="93.0588" x2="638" y2="23.8284" stroke="#95C11F" stroke-width="4" stroke-linecap="round" stroke-linejoin="round"/>
<line x1="674.66" y1="93.0588" x2="605.429" y2="23.8284" stroke="#95C11F" stroke-width="4" stroke-linecap="round" stroke-linejoin="round"/>
<line x1="642.09" y1="93.0588" x2="572.859" y2="23.8284" stroke="#95C11F" stroke-width="4" stroke-linecap="round" stroke-linejoin="round"/>
<line x1="609.519" y1="93.0588" x2="540.289" y2="23.8284" stroke="#95C11F" stroke-width="4" stroke-linecap="round" stroke-linejoin="round"/>
<line x1="576.949" y1="93.0588" x2="507.719" y2="23.8284" stroke="#95C11F" stroke-width="4" stroke-linecap="round" stroke-linejoin="round"/>
<line x1="544.379" y1="93.0588" x2="475.148" y2="23.8284" stroke="#95C11F" stroke-width="4" stroke-linecap="round" stroke-linejoin="round"/>
<line x1="511.808" y1="93.0588" x2="442.578" y2="23.8284" stroke="#95C11F" stroke-width="4" stroke-linecap="round" stroke-linejoin="round"/>
<line x1="479.238" y1="93.0588" x2="410.008" y2="23.8284" stroke="#95C11F" stroke-width="4" stroke-linecap="round" stroke-linejoin="round"/>
<line x1="446.668" y1="93.0588" x2="377.437" y2="23.8284" stroke="#95C11F" stroke-width="4" stroke-linecap="round" stroke-linejoin="round"/>
<line x1="414.097" y1="93.0588" x2="344.867" y2="23.8284" stroke="#95C11F" stroke-width="4" stroke-linecap="round" stroke-linejoin="round"/>
<line x1="381.527" y1="93.0588" x2="312.297" y2="23.8284" stroke="#95C11F" stroke-width="4" stroke-linecap="round" stroke-linejoin="round"/>
<line x1="348.957" y1="93.0588" x2="279.726" y2="23.8284" stroke="#95C11F" stroke-width="4" stroke-linecap="round" stroke-linejoin="round"/>
<line x1="316.386" y1="93.0588" x2="247.156" y2="23.8284" stroke="#95C11F" stroke-width="4" stroke-linecap="round" stroke-linejoin="round"/>
<line x1="283.816" y1="93.0588" x2="214.586" y2="23.8284" stroke="#95C11F" stroke-width="4" stroke-linecap="round" stroke-linejoin="round"/>
<line x1="251.246" y1="93.0588" x2="182.015" y2="23.8284" stroke="#95C11F" stroke-width="4" stroke-linecap="round" stroke-linejoin="round"/>
<path d="M2 2L182.147 106.657V234.476L2 301.387L174.426 211.314L2 234.476L174.426 189.868L2 179.574L174.426 170.995L2 124.672L174.426 152.123L2 63.7647L174.426 124.672L2 2Z" stroke="#95C11F" stroke-width="4" stroke-linejoin="round"/>
</svg>
