<svg width="1871" height="308" viewBox="0 0 1871 308" fill="none" xmlns="http://www.w3.org/2000/svg">
<path fill-rule="evenodd" clip-rule="evenodd" d="M3.00421 0.270661C2.08006 -0.266225 0.897107 0.0183598 0.318262 0.916823C-0.260583 1.81529 -0.0307369 3.01009 0.840137 3.62966L155.829 113.895C155.427 114.444 155.035 115.001 154.655 115.567L2.66568 61.8789C1.67318 61.5283 0.578806 62.007 0.162563 62.9738C-0.253679 63.9406 0.150686 65.0646 1.08745 65.5446L146.163 139.887C146.055 141.244 146 142.615 146 144V145.572L2.31399 122.696C1.26328 122.529 0.265519 123.214 0.0435529 124.254C-0.178413 125.295 0.45312 126.327 1.48063 126.603L146 165.429V170.407L1.90016 177.576C0.83937 177.629 0.00483704 178.502 -0.000431299 179.564C-0.00569963 180.626 0.820134 181.507 1.88035 181.57L146 190.174V195.156L1.49862 232.539C0.474213 232.804 -0.166502 233.821 0.0368092 234.86C0.24012 235.898 1.21709 236.599 2.26581 236.458L149.528 216.676C150.114 218.166 150.769 219.622 151.488 221.04L1.07351 299.615C0.137727 300.103 -0.256912 301.235 0.172158 302.2C0.601229 303.165 1.70621 303.63 2.69592 303.262L169.846 241.178C177.708 246.133 187.019 249 197 249H1697.06L1642.41 303.645C1641.63 304.426 1641.63 305.692 1642.41 306.473C1643.19 307.254 1644.46 307.254 1645.24 306.473L1702.72 249H1729.66L1675.01 303.645C1674.23 304.426 1674.23 305.692 1675.01 306.473C1675.79 307.254 1677.06 307.254 1677.84 306.473L1735.31 249H1820C1837.39 249 1852.75 240.293 1861.96 227H1664.5C1651.52 227 1641 216.479 1641 203.5C1641 192.776 1648.18 183.73 1658 180.911V214.5C1658 216.433 1659.57 218 1661.5 218C1663.43 218 1665 216.433 1665 214.5V180H1673V214.5C1673 216.433 1674.57 218 1676.5 218C1678.43 218 1680 216.433 1680 214.5V180H1688V214.5C1688 216.433 1689.57 218 1691.5 218C1693.43 218 1695 216.433 1695 214.5V180H1703V214.5C1703 216.433 1704.57 218 1706.5 218C1708.43 218 1710 216.433 1710 214.5V180H1718V214.5C1718 216.433 1719.57 218 1721.5 218C1723.43 218 1725 216.433 1725 214.5V180H1731V214.5C1731 216.433 1732.57 218 1734.5 218C1736.43 218 1738 216.433 1738 214.5V180H1746V214.5C1746 216.433 1747.57 218 1749.5 218C1751.43 218 1753 216.433 1753 214.5V180H1761V214.5C1761 216.433 1762.57 218 1764.5 218C1766.43 218 1768 216.433 1768 214.5V180H1776V214.5C1776 216.433 1777.57 218 1779.5 218C1781.43 218 1783 216.433 1783 214.5V180H1791V214.5C1791 216.433 1792.57 218 1794.5 218C1796.43 218 1798 216.433 1798 214.5V180H1804V214.5C1804 216.433 1805.57 218 1807.5 218C1809.43 218 1811 216.433 1811 214.5V180H1819V214.5C1819 216.433 1820.57 218 1822.5 218C1824.43 218 1826 216.433 1826 214.5V180H1834V214.5C1834 216.433 1835.57 218 1837.5 218C1839.43 218 1841 216.433 1841 214.5V180H1849V214.5C1849 216.433 1850.57 218 1852.5 218C1854.43 218 1856 216.433 1856 214.5V180H1864V214.5C1864 216.433 1865.57 218 1867.5 218C1869.43 218 1871 216.433 1871 214.5V180V163.5V144C1871 115.833 1848.17 93 1820 93H1744.94C1744.93 92.5079 1744.74 92.0202 1744.36 91.6446L1675.13 22.4142C1674.35 21.6332 1673.08 21.6332 1672.3 22.4142C1671.52 23.1953 1671.52 24.4616 1672.3 25.2427L1740.06 93H1712.35C1712.33 92.5079 1712.14 92.0202 1711.76 91.6446L1642.53 22.4142C1641.75 21.6332 1640.48 21.6332 1639.7 22.4142C1638.92 23.1953 1638.92 24.4616 1639.7 25.2427L1707.46 93H1679.75C1679.74 92.5079 1679.54 92.0202 1679.16 91.6446L1609.93 22.4142C1609.15 21.6332 1607.89 21.6332 1607.11 22.4142C1606.32 23.1953 1606.32 24.4616 1607.11 25.2427L1674.86 93H1647.15C1647.14 92.5079 1646.94 92.0202 1646.57 91.6446L1577.34 22.4142C1576.55 21.6332 1575.29 21.6332 1574.51 22.4142C1573.73 23.1953 1573.73 24.4616 1574.51 25.2427L1642.26 93H1614.55C1614.54 92.5079 1614.34 92.0202 1613.97 91.6446L1544.74 22.4142C1543.96 21.6332 1542.69 21.6332 1541.91 22.4142C1541.13 23.1953 1541.13 24.4616 1541.91 25.2427L1609.67 93H1582.23C1582.21 92.5079 1582.02 92.0202 1581.64 91.6446L1512.41 22.4142C1511.63 21.6332 1510.37 21.6332 1509.59 22.4142C1508.8 23.1953 1508.8 24.4616 1509.59 25.2427L1577.34 93H1549.9C1549.89 92.5079 1549.7 92.0202 1549.32 91.6446L1480.09 22.4142C1479.31 21.6332 1478.04 21.6332 1477.26 22.4142C1476.48 23.1953 1476.48 24.4616 1477.26 25.2427L1545.02 93H1517.58C1517.57 92.5079 1517.37 92.0202 1517 91.6446L1447.77 22.4142C1446.98 21.6332 1445.72 21.6332 1444.94 22.4142C1444.16 23.1953 1444.16 24.4616 1444.94 25.2427L1512.69 93H1485.26C1485.24 92.5079 1485.05 92.0202 1484.67 91.6446L1415.44 22.4142C1414.66 21.6332 1413.39 21.6332 1412.61 22.4142C1411.83 23.1953 1411.83 24.4616 1412.61 25.2427L1480.37 93H1452.93C1452.92 92.5079 1452.72 92.0202 1452.35 91.6446L1383.12 22.4142C1382.34 21.6332 1381.07 21.6332 1380.29 22.4142C1379.51 23.1953 1379.51 24.4616 1380.29 25.2427L1448.05 93H1420.61C1420.59 92.5079 1420.4 92.0202 1420.02 91.6446L1350.79 22.4142C1350.01 21.6332 1348.74 21.6332 1347.96 22.4142C1347.18 23.1953 1347.18 24.4616 1347.96 25.2427L1415.72 93H1388.28C1388.27 92.5079 1388.07 92.0202 1387.7 91.6446L1318.47 22.4142C1317.69 21.6332 1316.42 21.6332 1315.64 22.4142C1314.86 23.1953 1314.86 24.4616 1315.64 25.2427L1383.4 93H1355.96C1355.94 92.5079 1355.75 92.0202 1355.37 91.6446L1286.14 22.4142C1285.36 21.6332 1284.1 21.6332 1283.32 22.4142C1282.53 23.1953 1282.53 24.4616 1283.32 25.2427L1351.07 93H1323.64C1323.62 92.5079 1323.43 92.0202 1323.05 91.6446L1253.82 22.4142C1253.04 21.6332 1251.77 21.6332 1250.99 22.4142C1250.21 23.1953 1250.21 24.4616 1250.99 25.2427L1318.75 93H1291.31C1291.3 92.5079 1291.1 92.0202 1290.73 91.6446L1221.5 22.4142C1220.71 21.6332 1219.45 21.6332 1218.67 22.4142C1217.89 23.1953 1217.89 24.4616 1218.67 25.2427L1286.42 93H1258.99C1258.97 92.5079 1258.78 92.0202 1258.4 91.6446L1189.17 22.4142C1188.39 21.6332 1187.12 21.6332 1186.34 22.4142C1185.56 23.1953 1185.56 24.4616 1186.34 25.2427L1254.1 93H1226.66C1226.65 92.5079 1226.45 92.0202 1226.08 91.6446L1156.85 22.4142C1156.07 21.6332 1154.8 21.6332 1154.02 22.4142C1153.24 23.1953 1153.24 24.4616 1154.02 25.2427L1221.78 93H1194.34C1194.32 92.5079 1194.13 92.0202 1193.75 91.6446L1124.52 22.4142C1123.74 21.6332 1122.48 21.6332 1121.69 22.4142C1120.91 23.1953 1120.91 24.4616 1121.69 25.2427L1189.45 93H1162.01C1162 92.5079 1161.8 92.0202 1161.43 91.6446L1092.2 22.4142C1091.42 21.6332 1090.15 21.6332 1089.37 22.4142C1088.59 23.1953 1088.59 24.4616 1089.37 25.2427L1157.13 93H1129.69C1129.68 92.5079 1129.48 92.0202 1129.1 91.6446L1059.87 22.4142C1059.09 21.6332 1057.83 21.6332 1057.05 22.4142C1056.27 23.1953 1056.27 24.4616 1057.05 25.2427L1124.8 93H1097.37C1097.35 92.5079 1097.16 92.0202 1096.78 91.6446L1027.55 22.4142C1026.77 21.6332 1025.5 21.6332 1024.72 22.4142C1023.94 23.1953 1023.94 24.4616 1024.72 25.2427L1092.48 93H1065.04C1065.03 92.5079 1064.83 92.0202 1064.46 91.6446L995.226 22.4142C994.445 21.6332 993.179 21.6332 992.398 22.4142C991.617 23.1953 991.617 24.4616 992.398 25.2427L1060.16 93H1032.72C1032.7 92.5079 1032.51 92.0202 1032.13 91.6446L962.902 22.4142C962.121 21.6332 960.854 21.6332 960.073 22.4142C959.292 23.1953 959.292 24.4616 960.073 25.2427L1027.83 93H1000.39C1000.38 92.5079 1000.18 92.0202 999.808 91.6446L930.578 22.4142C929.797 21.6332 928.53 21.6332 927.749 22.4142C926.968 23.1953 926.968 24.4616 927.749 25.2427L995.507 93H968.069C968.054 92.5079 967.859 92.0202 967.484 91.6446L898.253 22.4142C897.472 21.6332 896.206 21.6332 895.425 22.4142C894.644 23.1953 894.644 24.4616 895.425 25.2427L963.182 93H935.745C935.73 92.5079 935.535 92.0202 935.16 91.6446L865.929 22.4142C865.148 21.6332 863.882 21.6332 863.101 22.4142C862.32 23.1953 862.32 24.4616 863.101 25.2427L930.858 93H903.42C903.406 92.5079 903.211 92.0202 902.835 91.6446L833.605 22.4142C832.824 21.6332 831.558 21.6332 830.776 22.4142C829.995 23.1953 829.995 24.4616 830.776 25.2427L898.534 93H871.096C871.082 92.5079 870.887 92.0202 870.511 91.6446L801.281 22.4142C800.5 21.6332 799.233 21.6332 798.452 22.4142C797.671 23.1953 797.671 24.4616 798.452 25.2427L866.21 93H838.772C838.757 92.5079 838.562 92.0202 838.187 91.6446L768.956 22.4142C768.175 21.6332 766.909 21.6332 766.128 22.4142C765.347 23.1953 765.347 24.4616 766.128 25.2427L833.885 93H806.448C806.433 92.5079 806.238 92.0202 805.863 91.6446L736.632 22.4142C735.851 21.6332 734.585 21.6332 733.804 22.4142C733.023 23.1953 733.023 24.4616 733.804 25.2427L801.561 93H774.123C774.109 92.5079 773.914 92.0202 773.538 91.6446L704.308 22.4142C703.527 21.6332 702.261 21.6332 701.48 22.4142C700.699 23.1953 700.699 24.4616 701.48 25.2427L769.237 93H741.799C741.785 92.5079 741.59 92.0202 741.214 91.6446L671.984 22.4142C671.203 21.6332 669.936 21.6332 669.155 22.4142C668.374 23.1953 668.374 24.4616 669.155 25.2427L736.913 93H709.229C709.215 92.5079 709.02 92.0202 708.644 91.6446L639.414 22.4142C638.633 21.6332 637.366 21.6332 636.585 22.4142C635.804 23.1953 635.804 24.4616 636.585 25.2427L704.343 93H676.659C676.644 92.5079 676.449 92.0202 676.074 91.6446L606.843 22.4142C606.062 21.6332 604.796 21.6332 604.015 22.4142C603.234 23.1953 603.234 24.4616 604.015 25.2427L671.772 93H644.088C644.074 92.5079 643.879 92.0202 643.503 91.6446L574.273 22.4142C573.492 21.6332 572.226 21.6332 571.444 22.4142C570.663 23.1953 570.663 24.4616 571.444 25.2427L639.202 93H611.518C611.504 92.5079 611.309 92.0202 610.933 91.6446L541.703 22.4142C540.922 21.6332 539.655 21.6332 538.874 22.4142C538.093 23.1953 538.093 24.4616 538.874 25.2427L606.632 93H578.948C578.933 92.5079 578.738 92.0202 578.363 91.6446L509.132 22.4142C508.351 21.6332 507.085 21.6332 506.304 22.4142C505.523 23.1953 505.523 24.4616 506.304 25.2427L574.061 93H546.377C546.363 92.5079 546.168 92.0202 545.792 91.6446L476.562 22.4142C475.781 21.6332 474.515 21.6332 473.734 22.4142C472.952 23.1953 472.952 24.4616 473.734 25.2427L541.491 93H513.807C513.793 92.5079 513.598 92.0202 513.222 91.6446L443.992 22.4142C443.211 21.6332 441.944 21.6332 441.163 22.4142C440.382 23.1953 440.382 24.4616 441.163 25.2427L508.921 93H481.237C481.222 92.5079 481.027 92.0202 480.652 91.6446L411.421 22.4142C410.64 21.6332 409.374 21.6332 408.593 22.4142C407.812 23.1953 407.812 24.4616 408.593 25.2427L476.35 93H448.666C448.652 92.5079 448.457 92.0202 448.081 91.6446L378.851 22.4142C378.07 21.6332 376.804 21.6332 376.023 22.4142C375.242 23.1953 375.242 24.4616 376.023 25.2427L443.78 93H416.096C416.082 92.5079 415.887 92.0202 415.511 91.6446L346.281 22.4142C345.5 21.6332 344.233 21.6332 343.452 22.4142C342.671 23.1953 342.671 24.4616 343.452 25.2427L411.21 93H383.526C383.511 92.5079 383.316 92.0202 382.941 91.6446L313.71 22.4142C312.929 21.6332 311.663 21.6332 310.882 22.4142C310.101 23.1953 310.101 24.4616 310.882 25.2427L378.639 93H350.955C350.941 92.5079 350.746 92.0202 350.37 91.6446L281.14 22.4142C280.359 21.6332 279.093 21.6332 278.312 22.4142C277.531 23.1953 277.531 24.4616 278.312 25.2427L346.069 93H318.385C318.371 92.5079 318.176 92.0202 317.8 91.6446L248.57 22.4142C247.789 21.6332 246.522 21.6332 245.741 22.4142C244.96 23.1953 244.96 24.4616 245.741 25.2427L313.499 93H285.815C285.8 92.5079 285.605 92.0202 285.23 91.6446L215.999 22.4142C215.218 21.6332 213.952 21.6332 213.171 22.4142C212.39 23.1953 212.39 24.4616 213.171 25.2427L280.928 93H253.244C253.23 92.5079 253.035 92.0202 252.66 91.6446L183.429 22.4142C182.648 21.6332 181.382 21.6332 180.601 22.4142C179.82 23.1953 179.82 24.4616 180.601 25.2427L248.358 93H197C188.308 93 180.124 95.1742 172.963 99.0084L3.00421 0.270661ZM169.028 101.348L38.5349 25.5383L158.32 110.759C161.427 107.146 165.032 103.974 169.028 101.348ZM152.508 119.051L29.4386 75.5782L146.679 135.657C147.657 129.712 149.663 124.114 152.508 119.051ZM146 149.622L39.423 132.655L146 161.287V149.622ZM146 174.412L38.6001 179.755L146 186.167V174.412ZM146.015 199.284L34.8334 228.047L148.186 212.821C146.883 208.521 146.131 203.981 146.015 199.284ZM153.437 224.535L31.0799 288.453L165.859 238.392C160.92 234.579 156.701 229.881 153.437 224.535ZM1807 160C1820.81 160 1832 148.807 1832 135C1832 121.193 1820.81 110 1807 110C1793.19 110 1782 121.193 1782 135C1782 148.807 1793.19 160 1807 160Z" fill="#95C11F"/>
</svg>
