<svg width="616" height="393" viewBox="0 0 616 393" fill="none" xmlns="http://www.w3.org/2000/svg">
<path fill-rule="evenodd" clip-rule="evenodd" d="M329.12 80.3877C329.12 79.8759 328.925 79.364 328.534 78.9735L250.975 1.41428C250.194 0.63323 248.927 0.633229 248.146 1.41428C247.365 2.19533 247.365 3.46166 248.146 4.2427L324.291 80.3877H231.657C203.49 80.3877 180.657 103.221 180.657 131.388V140.334L3.66032 37.5075C2.73617 36.9707 1.55321 37.2552 0.974369 38.1537C0.395524 39.0522 0.62537 40.247 1.49624 40.8665L180.657 168.329V168.895L3.32178 106.255C2.32929 105.904 1.23491 106.383 0.818671 107.35C0.402428 108.317 0.806793 109.44 1.74356 109.92L180.657 201.602V202.401L2.9701 174.112C1.91939 173.945 0.921626 174.629 0.69966 175.67C0.477694 176.711 1.10923 177.743 2.13674 178.019L180.657 225.979V226.477L2.55627 235.337C1.49548 235.39 0.660944 236.263 0.655676 237.325C0.650408 238.387 1.47624 239.268 2.53646 239.331L180.657 249.965V250.467L2.15473 296.646C1.13032 296.912 0.489606 297.929 0.692916 298.967C0.896227 300.005 1.8732 300.706 2.92192 300.565L180.657 276.69V277.986L1.72962 371.456C0.793834 371.945 0.399195 373.077 0.828266 374.041C1.25734 375.006 2.36232 375.471 3.35202 375.103L181.568 308.909C186.078 332.462 206.789 350.26 231.657 350.26H398.852L360.073 389.04C359.292 389.821 359.292 391.088 360.073 391.869C360.854 392.65 362.12 392.65 362.901 391.869L404.509 350.26H435.218L396.438 389.04C395.657 389.821 395.657 391.088 396.438 391.869C397.219 392.65 398.485 392.65 399.266 391.869L440.875 350.26H564.133C592.299 350.26 615.133 327.427 615.133 299.26V297.201C611.834 298.665 608.335 299.759 604.688 300.431V272.76C604.688 270.604 602.94 268.856 600.783 268.856C598.627 268.856 596.879 270.604 596.879 272.76V301.202C596.635 301.206 596.391 301.208 596.146 301.208H587.954V272.76C587.954 270.604 586.206 268.856 584.05 268.856C581.893 268.856 580.145 270.604 580.145 272.76V301.208H571.221V272.76C571.221 270.604 569.473 268.856 567.317 268.856C565.16 268.856 563.412 270.604 563.412 272.76V301.208H554.487V272.76C554.487 270.604 552.739 268.856 550.582 268.856C548.426 268.856 546.678 270.604 546.678 272.76V301.208H538.136C538.008 301.208 537.881 301.207 537.753 301.206V272.76C537.753 270.604 536.005 268.856 533.849 268.856C531.692 268.856 529.944 270.604 529.944 272.76V300.494C507.973 296.62 491.282 277.436 491.282 254.353C491.282 231.271 507.973 212.086 529.944 208.212V250.449C529.944 252.605 531.692 254.353 533.849 254.353C536.005 254.353 537.753 252.605 537.753 250.449V207.5C537.881 207.499 538.008 207.499 538.136 207.499H546.678V250.449C546.678 252.605 548.426 254.353 550.582 254.353C552.739 254.353 554.487 252.605 554.487 250.449V207.499H563.412V250.449C563.412 252.605 565.16 254.353 567.317 254.353C569.473 254.353 571.221 252.605 571.221 250.449V207.499H580.145V250.449C580.145 252.605 581.893 254.353 584.05 254.353C586.206 254.353 587.954 252.605 587.954 250.449V207.499H596.146C596.391 207.499 596.635 207.5 596.879 207.504V250.449C596.879 252.605 598.627 254.353 600.783 254.353C602.94 254.353 604.688 252.605 604.688 250.449V208.275C608.335 208.947 611.834 210.041 615.133 211.505V131.388C615.133 103.221 592.299 80.3877 564.133 80.3877H474.583C474.583 79.8759 474.387 79.364 473.997 78.9735L396.438 1.41428C395.657 0.63323 394.39 0.633229 393.609 1.41428C392.828 2.19533 392.828 3.46166 393.609 4.2427L469.754 80.3877H438.217C438.217 79.8759 438.022 79.364 437.632 78.9735L360.072 1.41428C359.291 0.63323 358.025 0.633229 357.244 1.41428C356.463 2.19533 356.463 3.46166 357.244 4.2427L433.389 80.3877H401.852C401.852 79.8759 401.657 79.364 401.266 78.9735L323.707 1.41428C322.926 0.63323 321.66 0.633229 320.879 1.41428C320.098 2.19533 320.098 3.46166 320.879 4.2427L397.024 80.3877H365.486C365.486 79.8759 365.291 79.364 364.9 78.9735L287.341 1.41428C286.56 0.63323 285.294 0.633229 284.513 1.41428C283.732 2.19533 283.732 3.46166 284.513 4.2427L360.658 80.3877H329.12ZM39.191 62.7752L180.657 144.96V163.42L39.191 62.7752ZM30.0947 119.954L180.657 173.138V197.108L30.0947 119.954ZM40.0791 184.07L180.657 206.451V221.838L40.0791 184.07ZM39.2562 237.517L180.657 230.482V245.958L39.2562 237.517ZM35.4895 292.154L180.657 254.599V272.654L35.4895 292.154ZM31.7358 360.294L180.657 282.499V299.26C180.657 301.155 180.76 303.026 180.961 304.867L31.7358 360.294ZM602.457 142.237C602.457 165.958 582.978 185.187 558.95 185.187C534.921 185.187 515.442 165.958 515.442 142.237C515.442 118.516 534.921 99.2871 558.95 99.2871C582.978 99.2871 602.457 118.516 602.457 142.237Z" fill="white"/>
</svg>
